G04 MADE WITH FRITZING*
G04 WWW.FRITZING.ORG*
G04 DOUBLE SIDED*
G04 HOLES PLATED*
G04 CONTOUR ON CENTER OF CONTOUR VECTOR*
%ASAXBY*%
%FSLAX23Y23*%
%MOIN*%
%OFA0B0*%
%SFA1.0B1.0*%
%ADD10R,0.035000X0.050000*%
%ADD11C,0.010000*%
%ADD12C,0.006000*%
%ADD13C,0.002000*%
%ADD14C,0.005000*%
%ADD15C,0.008051*%
%ADD16R,0.001000X0.001000*%
%LNSILK1*%
G90*
G70*
G54D10*
X1102Y447D03*
X1102Y547D03*
X1098Y938D03*
X1098Y1038D03*
G54D11*
X719Y41D02*
X919Y41D01*
D02*
X919Y41D02*
X919Y141D01*
D02*
X719Y141D02*
X719Y41D01*
G54D12*
D02*
X1119Y652D02*
X1119Y242D01*
D02*
X1116Y1143D02*
X1116Y733D01*
G54D13*
D02*
X1141Y1118D02*
X1141Y758D01*
G54D14*
D02*
X1024Y201D02*
X1084Y201D01*
D02*
X1084Y146D02*
X1084Y131D01*
D02*
X1084Y131D02*
X1084Y101D01*
D02*
X1084Y101D02*
X1084Y86D01*
D02*
X1084Y31D02*
X1024Y31D01*
D02*
X1024Y101D02*
X1024Y131D01*
D02*
X1054Y101D02*
X1024Y131D01*
D02*
X1024Y131D02*
X1084Y131D01*
D02*
X1084Y131D02*
X1054Y101D01*
D02*
X1054Y101D02*
X1024Y101D01*
D02*
X1054Y101D02*
X1084Y101D01*
G54D11*
D02*
X471Y227D02*
X471Y627D01*
D02*
X471Y627D02*
X71Y627D01*
D02*
X71Y627D02*
X71Y227D01*
D02*
X471Y227D02*
X321Y227D01*
D02*
X221Y227D02*
X71Y227D01*
G54D15*
D02*
X828Y214D02*
X853Y240D01*
D02*
X853Y290D02*
X828Y315D01*
D02*
X828Y315D02*
X853Y340D01*
D02*
X853Y391D02*
X828Y416D01*
D02*
X828Y416D02*
X853Y441D01*
D02*
X853Y491D02*
X828Y516D01*
D02*
X828Y214D02*
X678Y214D01*
D02*
X653Y240D02*
X653Y290D01*
D02*
X678Y315D02*
X653Y340D01*
D02*
X653Y340D02*
X653Y391D01*
D02*
X653Y391D02*
X678Y416D01*
D02*
X678Y416D02*
X653Y441D01*
D02*
X653Y441D02*
X653Y491D01*
D02*
X653Y491D02*
X678Y516D01*
D02*
X853Y441D02*
X853Y491D01*
D02*
X853Y340D02*
X853Y391D01*
D02*
X853Y240D02*
X853Y290D01*
D02*
X853Y592D02*
X828Y617D01*
D02*
X653Y541D02*
X653Y592D01*
D02*
X678Y617D02*
X828Y617D01*
D02*
X853Y541D02*
X853Y592D01*
D02*
X828Y516D02*
X853Y541D01*
G54D11*
D02*
X873Y1117D02*
X73Y1117D01*
D02*
X73Y1117D02*
X73Y717D01*
D02*
X73Y717D02*
X873Y717D01*
D02*
X873Y1117D02*
X873Y967D01*
D02*
X873Y867D02*
X873Y717D01*
G36*
X1119Y322D02*
X1084Y322D01*
X1084Y372D01*
X1119Y372D01*
X1119Y322D01*
G37*
D02*
G36*
X1116Y813D02*
X1081Y813D01*
X1081Y863D01*
X1116Y863D01*
X1116Y813D01*
G37*
D02*
G54D16*
X0Y1199D02*
X1142Y1199D01*
X0Y1198D02*
X1142Y1198D01*
X0Y1197D02*
X1142Y1197D01*
X0Y1196D02*
X1142Y1196D01*
X0Y1195D02*
X1142Y1195D01*
X0Y1194D02*
X1142Y1194D01*
X0Y1193D02*
X1142Y1193D01*
X0Y1192D02*
X1142Y1192D01*
X0Y1191D02*
X7Y1191D01*
X1135Y1191D02*
X1142Y1191D01*
X0Y1190D02*
X7Y1190D01*
X1135Y1190D02*
X1142Y1190D01*
X0Y1189D02*
X7Y1189D01*
X1135Y1189D02*
X1142Y1189D01*
X0Y1188D02*
X7Y1188D01*
X1135Y1188D02*
X1142Y1188D01*
X0Y1187D02*
X7Y1187D01*
X1135Y1187D02*
X1142Y1187D01*
X0Y1186D02*
X7Y1186D01*
X1135Y1186D02*
X1142Y1186D01*
X0Y1185D02*
X7Y1185D01*
X1135Y1185D02*
X1142Y1185D01*
X0Y1184D02*
X7Y1184D01*
X1135Y1184D02*
X1142Y1184D01*
X0Y1183D02*
X7Y1183D01*
X1135Y1183D02*
X1142Y1183D01*
X0Y1182D02*
X7Y1182D01*
X1135Y1182D02*
X1142Y1182D01*
X0Y1181D02*
X7Y1181D01*
X1135Y1181D02*
X1142Y1181D01*
X0Y1180D02*
X7Y1180D01*
X1135Y1180D02*
X1142Y1180D01*
X0Y1179D02*
X7Y1179D01*
X1135Y1179D02*
X1142Y1179D01*
X0Y1178D02*
X7Y1178D01*
X1135Y1178D02*
X1142Y1178D01*
X0Y1177D02*
X7Y1177D01*
X1135Y1177D02*
X1142Y1177D01*
X0Y1176D02*
X7Y1176D01*
X1135Y1176D02*
X1142Y1176D01*
X0Y1175D02*
X7Y1175D01*
X1135Y1175D02*
X1142Y1175D01*
X0Y1174D02*
X7Y1174D01*
X1135Y1174D02*
X1142Y1174D01*
X0Y1173D02*
X7Y1173D01*
X851Y1173D02*
X862Y1173D01*
X911Y1173D02*
X918Y1173D01*
X977Y1173D02*
X977Y1173D01*
X998Y1173D02*
X998Y1173D01*
X1026Y1173D02*
X1043Y1173D01*
X1086Y1173D02*
X1087Y1173D01*
X1135Y1173D02*
X1142Y1173D01*
X0Y1172D02*
X7Y1172D01*
X851Y1172D02*
X865Y1172D01*
X888Y1172D02*
X890Y1172D01*
X909Y1172D02*
X921Y1172D01*
X938Y1172D02*
X941Y1172D01*
X954Y1172D02*
X957Y1172D01*
X974Y1172D02*
X979Y1172D01*
X997Y1172D02*
X999Y1172D01*
X1026Y1172D02*
X1044Y1172D01*
X1084Y1172D02*
X1089Y1172D01*
X1135Y1172D02*
X1142Y1172D01*
X0Y1171D02*
X7Y1171D01*
X851Y1171D02*
X867Y1171D01*
X888Y1171D02*
X891Y1171D01*
X909Y1171D02*
X922Y1171D01*
X938Y1171D02*
X941Y1171D01*
X954Y1171D02*
X957Y1171D01*
X973Y1171D02*
X980Y1171D01*
X996Y1171D02*
X999Y1171D01*
X1026Y1171D02*
X1045Y1171D01*
X1084Y1171D02*
X1089Y1171D01*
X1135Y1171D02*
X1142Y1171D01*
X0Y1170D02*
X7Y1170D01*
X851Y1170D02*
X868Y1170D01*
X887Y1170D02*
X891Y1170D01*
X909Y1170D02*
X923Y1170D01*
X938Y1170D02*
X941Y1170D01*
X954Y1170D02*
X957Y1170D01*
X972Y1170D02*
X981Y1170D01*
X996Y1170D02*
X1000Y1170D01*
X1026Y1170D02*
X1044Y1170D01*
X1084Y1170D02*
X1089Y1170D01*
X1135Y1170D02*
X1142Y1170D01*
X0Y1169D02*
X7Y1169D01*
X851Y1169D02*
X868Y1169D01*
X887Y1169D02*
X891Y1169D01*
X911Y1169D02*
X923Y1169D01*
X938Y1169D02*
X941Y1169D01*
X954Y1169D02*
X957Y1169D01*
X972Y1169D02*
X982Y1169D01*
X996Y1169D02*
X1000Y1169D01*
X1026Y1169D02*
X1042Y1169D01*
X1084Y1169D02*
X1087Y1169D01*
X1135Y1169D02*
X1142Y1169D01*
X0Y1168D02*
X7Y1168D01*
X851Y1168D02*
X854Y1168D01*
X865Y1168D02*
X869Y1168D01*
X887Y1168D02*
X892Y1168D01*
X913Y1168D02*
X916Y1168D01*
X920Y1168D02*
X924Y1168D01*
X938Y1168D02*
X941Y1168D01*
X954Y1168D02*
X957Y1168D01*
X971Y1168D02*
X975Y1168D01*
X978Y1168D02*
X982Y1168D01*
X996Y1168D02*
X1000Y1168D01*
X1026Y1168D02*
X1029Y1168D01*
X1084Y1168D02*
X1087Y1168D01*
X1135Y1168D02*
X1142Y1168D01*
X0Y1167D02*
X7Y1167D01*
X851Y1167D02*
X854Y1167D01*
X866Y1167D02*
X869Y1167D01*
X886Y1167D02*
X892Y1167D01*
X913Y1167D02*
X916Y1167D01*
X921Y1167D02*
X924Y1167D01*
X938Y1167D02*
X941Y1167D01*
X954Y1167D02*
X957Y1167D01*
X971Y1167D02*
X975Y1167D01*
X979Y1167D02*
X983Y1167D01*
X996Y1167D02*
X1000Y1167D01*
X1026Y1167D02*
X1029Y1167D01*
X1084Y1167D02*
X1087Y1167D01*
X1135Y1167D02*
X1142Y1167D01*
X0Y1166D02*
X7Y1166D01*
X851Y1166D02*
X854Y1166D01*
X866Y1166D02*
X870Y1166D01*
X886Y1166D02*
X892Y1166D01*
X913Y1166D02*
X916Y1166D01*
X921Y1166D02*
X925Y1166D01*
X938Y1166D02*
X941Y1166D01*
X954Y1166D02*
X957Y1166D01*
X970Y1166D02*
X974Y1166D01*
X979Y1166D02*
X983Y1166D01*
X996Y1166D02*
X1000Y1166D01*
X1026Y1166D02*
X1029Y1166D01*
X1084Y1166D02*
X1087Y1166D01*
X1135Y1166D02*
X1142Y1166D01*
X0Y1165D02*
X7Y1165D01*
X851Y1165D02*
X854Y1165D01*
X867Y1165D02*
X870Y1165D01*
X886Y1165D02*
X893Y1165D01*
X913Y1165D02*
X916Y1165D01*
X922Y1165D02*
X925Y1165D01*
X938Y1165D02*
X941Y1165D01*
X954Y1165D02*
X957Y1165D01*
X970Y1165D02*
X974Y1165D01*
X980Y1165D02*
X984Y1165D01*
X996Y1165D02*
X1000Y1165D01*
X1026Y1165D02*
X1029Y1165D01*
X1084Y1165D02*
X1087Y1165D01*
X1135Y1165D02*
X1142Y1165D01*
X0Y1164D02*
X7Y1164D01*
X851Y1164D02*
X854Y1164D01*
X867Y1164D02*
X870Y1164D01*
X886Y1164D02*
X893Y1164D01*
X913Y1164D02*
X916Y1164D01*
X922Y1164D02*
X926Y1164D01*
X938Y1164D02*
X941Y1164D01*
X954Y1164D02*
X957Y1164D01*
X969Y1164D02*
X973Y1164D01*
X981Y1164D02*
X984Y1164D01*
X996Y1164D02*
X1000Y1164D01*
X1026Y1164D02*
X1029Y1164D01*
X1056Y1164D02*
X1057Y1164D01*
X1072Y1164D02*
X1073Y1164D01*
X1084Y1164D02*
X1087Y1164D01*
X1135Y1164D02*
X1142Y1164D01*
X0Y1163D02*
X7Y1163D01*
X851Y1163D02*
X854Y1163D01*
X866Y1163D02*
X870Y1163D01*
X885Y1163D02*
X893Y1163D01*
X913Y1163D02*
X916Y1163D01*
X923Y1163D02*
X926Y1163D01*
X938Y1163D02*
X941Y1163D01*
X954Y1163D02*
X957Y1163D01*
X969Y1163D02*
X973Y1163D01*
X981Y1163D02*
X985Y1163D01*
X996Y1163D02*
X1000Y1163D01*
X1026Y1163D02*
X1029Y1163D01*
X1055Y1163D02*
X1058Y1163D01*
X1071Y1163D02*
X1074Y1163D01*
X1084Y1163D02*
X1087Y1163D01*
X1135Y1163D02*
X1142Y1163D01*
X0Y1162D02*
X7Y1162D01*
X851Y1162D02*
X854Y1162D01*
X866Y1162D02*
X869Y1162D01*
X885Y1162D02*
X888Y1162D01*
X890Y1162D02*
X893Y1162D01*
X913Y1162D02*
X916Y1162D01*
X923Y1162D02*
X927Y1162D01*
X938Y1162D02*
X941Y1162D01*
X947Y1162D02*
X949Y1162D01*
X954Y1162D02*
X957Y1162D01*
X968Y1162D02*
X972Y1162D01*
X982Y1162D02*
X985Y1162D01*
X996Y1162D02*
X1000Y1162D01*
X1026Y1162D02*
X1040Y1162D01*
X1055Y1162D02*
X1058Y1162D01*
X1071Y1162D02*
X1074Y1162D01*
X1084Y1162D02*
X1087Y1162D01*
X1135Y1162D02*
X1142Y1162D01*
X0Y1161D02*
X7Y1161D01*
X397Y1161D02*
X399Y1161D01*
X427Y1161D02*
X444Y1161D01*
X457Y1161D02*
X476Y1161D01*
X487Y1161D02*
X505Y1161D01*
X517Y1161D02*
X529Y1161D01*
X851Y1161D02*
X854Y1161D01*
X866Y1161D02*
X869Y1161D01*
X885Y1161D02*
X888Y1161D01*
X891Y1161D02*
X894Y1161D01*
X913Y1161D02*
X916Y1161D01*
X924Y1161D02*
X927Y1161D01*
X938Y1161D02*
X941Y1161D01*
X946Y1161D02*
X949Y1161D01*
X954Y1161D02*
X957Y1161D01*
X968Y1161D02*
X972Y1161D01*
X982Y1161D02*
X986Y1161D01*
X996Y1161D02*
X1000Y1161D01*
X1026Y1161D02*
X1041Y1161D01*
X1055Y1161D02*
X1058Y1161D01*
X1071Y1161D02*
X1074Y1161D01*
X1084Y1161D02*
X1087Y1161D01*
X1135Y1161D02*
X1142Y1161D01*
X0Y1160D02*
X7Y1160D01*
X396Y1160D02*
X399Y1160D01*
X426Y1160D02*
X445Y1160D01*
X457Y1160D02*
X476Y1160D01*
X487Y1160D02*
X506Y1160D01*
X517Y1160D02*
X530Y1160D01*
X851Y1160D02*
X854Y1160D01*
X864Y1160D02*
X869Y1160D01*
X884Y1160D02*
X888Y1160D01*
X891Y1160D02*
X894Y1160D01*
X913Y1160D02*
X916Y1160D01*
X924Y1160D02*
X928Y1160D01*
X938Y1160D02*
X941Y1160D01*
X946Y1160D02*
X949Y1160D01*
X954Y1160D02*
X957Y1160D01*
X968Y1160D02*
X971Y1160D01*
X983Y1160D02*
X986Y1160D01*
X996Y1160D02*
X1000Y1160D01*
X1026Y1160D02*
X1040Y1160D01*
X1055Y1160D02*
X1058Y1160D01*
X1071Y1160D02*
X1074Y1160D01*
X1084Y1160D02*
X1087Y1160D01*
X1135Y1160D02*
X1142Y1160D01*
X0Y1159D02*
X7Y1159D01*
X396Y1159D02*
X400Y1159D01*
X427Y1159D02*
X446Y1159D01*
X457Y1159D02*
X476Y1159D01*
X487Y1159D02*
X506Y1159D01*
X517Y1159D02*
X531Y1159D01*
X851Y1159D02*
X868Y1159D01*
X884Y1159D02*
X887Y1159D01*
X891Y1159D02*
X894Y1159D01*
X913Y1159D02*
X916Y1159D01*
X925Y1159D02*
X928Y1159D01*
X938Y1159D02*
X941Y1159D01*
X946Y1159D02*
X949Y1159D01*
X954Y1159D02*
X957Y1159D01*
X967Y1159D02*
X971Y1159D01*
X983Y1159D02*
X986Y1159D01*
X996Y1159D02*
X1000Y1159D01*
X1026Y1159D02*
X1040Y1159D01*
X1055Y1159D02*
X1058Y1159D01*
X1071Y1159D02*
X1074Y1159D01*
X1084Y1159D02*
X1087Y1159D01*
X1135Y1159D02*
X1142Y1159D01*
X0Y1158D02*
X7Y1158D01*
X396Y1158D02*
X400Y1158D01*
X427Y1158D02*
X446Y1158D01*
X457Y1158D02*
X476Y1158D01*
X488Y1158D02*
X506Y1158D01*
X518Y1158D02*
X531Y1158D01*
X851Y1158D02*
X867Y1158D01*
X884Y1158D02*
X887Y1158D01*
X891Y1158D02*
X895Y1158D01*
X913Y1158D02*
X916Y1158D01*
X925Y1158D02*
X928Y1158D01*
X938Y1158D02*
X941Y1158D01*
X946Y1158D02*
X949Y1158D01*
X954Y1158D02*
X957Y1158D01*
X967Y1158D02*
X970Y1158D01*
X983Y1158D02*
X986Y1158D01*
X996Y1158D02*
X1000Y1158D01*
X1026Y1158D02*
X1029Y1158D01*
X1055Y1158D02*
X1059Y1158D01*
X1070Y1158D02*
X1074Y1158D01*
X1084Y1158D02*
X1087Y1158D01*
X1135Y1158D02*
X1142Y1158D01*
X0Y1157D02*
X7Y1157D01*
X396Y1157D02*
X400Y1157D01*
X443Y1157D02*
X446Y1157D01*
X457Y1157D02*
X460Y1157D01*
X473Y1157D02*
X476Y1157D01*
X503Y1157D02*
X506Y1157D01*
X521Y1157D02*
X524Y1157D01*
X528Y1157D02*
X532Y1157D01*
X851Y1157D02*
X867Y1157D01*
X883Y1157D02*
X887Y1157D01*
X892Y1157D02*
X895Y1157D01*
X913Y1157D02*
X916Y1157D01*
X925Y1157D02*
X928Y1157D01*
X938Y1157D02*
X941Y1157D01*
X946Y1157D02*
X949Y1157D01*
X954Y1157D02*
X957Y1157D01*
X967Y1157D02*
X970Y1157D01*
X983Y1157D02*
X986Y1157D01*
X996Y1157D02*
X1000Y1157D01*
X1026Y1157D02*
X1029Y1157D01*
X1055Y1157D02*
X1059Y1157D01*
X1070Y1157D02*
X1073Y1157D01*
X1084Y1157D02*
X1087Y1157D01*
X1135Y1157D02*
X1142Y1157D01*
X0Y1156D02*
X7Y1156D01*
X396Y1156D02*
X400Y1156D01*
X443Y1156D02*
X446Y1156D01*
X457Y1156D02*
X460Y1156D01*
X473Y1156D02*
X476Y1156D01*
X503Y1156D02*
X506Y1156D01*
X521Y1156D02*
X524Y1156D01*
X529Y1156D02*
X532Y1156D01*
X851Y1156D02*
X868Y1156D01*
X883Y1156D02*
X886Y1156D01*
X892Y1156D02*
X895Y1156D01*
X913Y1156D02*
X916Y1156D01*
X925Y1156D02*
X928Y1156D01*
X938Y1156D02*
X941Y1156D01*
X946Y1156D02*
X949Y1156D01*
X954Y1156D02*
X957Y1156D01*
X967Y1156D02*
X971Y1156D01*
X983Y1156D02*
X986Y1156D01*
X996Y1156D02*
X1000Y1156D01*
X1026Y1156D02*
X1029Y1156D01*
X1056Y1156D02*
X1059Y1156D01*
X1069Y1156D02*
X1073Y1156D01*
X1084Y1156D02*
X1087Y1156D01*
X1135Y1156D02*
X1142Y1156D01*
X0Y1155D02*
X7Y1155D01*
X396Y1155D02*
X400Y1155D01*
X443Y1155D02*
X446Y1155D01*
X457Y1155D02*
X460Y1155D01*
X473Y1155D02*
X476Y1155D01*
X503Y1155D02*
X506Y1155D01*
X521Y1155D02*
X524Y1155D01*
X529Y1155D02*
X533Y1155D01*
X851Y1155D02*
X854Y1155D01*
X864Y1155D02*
X869Y1155D01*
X883Y1155D02*
X886Y1155D01*
X892Y1155D02*
X896Y1155D01*
X913Y1155D02*
X916Y1155D01*
X924Y1155D02*
X928Y1155D01*
X938Y1155D02*
X941Y1155D01*
X946Y1155D02*
X949Y1155D01*
X954Y1155D02*
X957Y1155D01*
X968Y1155D02*
X971Y1155D01*
X983Y1155D02*
X986Y1155D01*
X996Y1155D02*
X1000Y1155D01*
X1026Y1155D02*
X1029Y1155D01*
X1056Y1155D02*
X1060Y1155D01*
X1069Y1155D02*
X1072Y1155D01*
X1084Y1155D02*
X1103Y1155D01*
X1135Y1155D02*
X1142Y1155D01*
X0Y1154D02*
X7Y1154D01*
X396Y1154D02*
X400Y1154D01*
X443Y1154D02*
X446Y1154D01*
X457Y1154D02*
X460Y1154D01*
X473Y1154D02*
X476Y1154D01*
X503Y1154D02*
X506Y1154D01*
X521Y1154D02*
X524Y1154D01*
X530Y1154D02*
X533Y1154D01*
X851Y1154D02*
X854Y1154D01*
X865Y1154D02*
X869Y1154D01*
X883Y1154D02*
X886Y1154D01*
X893Y1154D02*
X896Y1154D01*
X913Y1154D02*
X916Y1154D01*
X924Y1154D02*
X927Y1154D01*
X938Y1154D02*
X941Y1154D01*
X946Y1154D02*
X949Y1154D01*
X954Y1154D02*
X957Y1154D01*
X968Y1154D02*
X971Y1154D01*
X982Y1154D02*
X986Y1154D01*
X996Y1154D02*
X1000Y1154D01*
X1026Y1154D02*
X1029Y1154D01*
X1057Y1154D02*
X1060Y1154D01*
X1068Y1154D02*
X1072Y1154D01*
X1084Y1154D02*
X1103Y1154D01*
X1135Y1154D02*
X1142Y1154D01*
X0Y1153D02*
X7Y1153D01*
X396Y1153D02*
X400Y1153D01*
X443Y1153D02*
X446Y1153D01*
X457Y1153D02*
X460Y1153D01*
X473Y1153D02*
X476Y1153D01*
X503Y1153D02*
X506Y1153D01*
X521Y1153D02*
X524Y1153D01*
X530Y1153D02*
X534Y1153D01*
X851Y1153D02*
X854Y1153D01*
X866Y1153D02*
X869Y1153D01*
X882Y1153D02*
X886Y1153D01*
X893Y1153D02*
X896Y1153D01*
X913Y1153D02*
X916Y1153D01*
X923Y1153D02*
X927Y1153D01*
X938Y1153D02*
X941Y1153D01*
X946Y1153D02*
X949Y1153D01*
X954Y1153D02*
X957Y1153D01*
X968Y1153D02*
X972Y1153D01*
X982Y1153D02*
X985Y1153D01*
X996Y1153D02*
X1000Y1153D01*
X1026Y1153D02*
X1029Y1153D01*
X1057Y1153D02*
X1061Y1153D01*
X1068Y1153D02*
X1071Y1153D01*
X1084Y1153D02*
X1103Y1153D01*
X1135Y1153D02*
X1142Y1153D01*
X0Y1152D02*
X7Y1152D01*
X396Y1152D02*
X400Y1152D01*
X443Y1152D02*
X446Y1152D01*
X457Y1152D02*
X460Y1152D01*
X473Y1152D02*
X476Y1152D01*
X503Y1152D02*
X506Y1152D01*
X521Y1152D02*
X524Y1152D01*
X531Y1152D02*
X534Y1152D01*
X851Y1152D02*
X854Y1152D01*
X866Y1152D02*
X870Y1152D01*
X882Y1152D02*
X896Y1152D01*
X913Y1152D02*
X916Y1152D01*
X923Y1152D02*
X926Y1152D01*
X938Y1152D02*
X941Y1152D01*
X946Y1152D02*
X949Y1152D01*
X954Y1152D02*
X957Y1152D01*
X969Y1152D02*
X972Y1152D01*
X981Y1152D02*
X985Y1152D01*
X996Y1152D02*
X1000Y1152D01*
X1026Y1152D02*
X1029Y1152D01*
X1058Y1152D02*
X1061Y1152D01*
X1068Y1152D02*
X1071Y1152D01*
X1084Y1152D02*
X1103Y1152D01*
X1135Y1152D02*
X1142Y1152D01*
X0Y1151D02*
X7Y1151D01*
X396Y1151D02*
X400Y1151D01*
X443Y1151D02*
X446Y1151D01*
X457Y1151D02*
X476Y1151D01*
X503Y1151D02*
X506Y1151D01*
X521Y1151D02*
X524Y1151D01*
X531Y1151D02*
X535Y1151D01*
X851Y1151D02*
X854Y1151D01*
X867Y1151D02*
X870Y1151D01*
X882Y1151D02*
X897Y1151D01*
X913Y1151D02*
X916Y1151D01*
X922Y1151D02*
X926Y1151D01*
X938Y1151D02*
X941Y1151D01*
X946Y1151D02*
X949Y1151D01*
X954Y1151D02*
X957Y1151D01*
X969Y1151D02*
X973Y1151D01*
X981Y1151D02*
X984Y1151D01*
X996Y1151D02*
X1000Y1151D01*
X1026Y1151D02*
X1029Y1151D01*
X1058Y1151D02*
X1062Y1151D01*
X1067Y1151D02*
X1071Y1151D01*
X1084Y1151D02*
X1087Y1151D01*
X1100Y1151D02*
X1103Y1151D01*
X1135Y1151D02*
X1142Y1151D01*
X0Y1150D02*
X7Y1150D01*
X396Y1150D02*
X400Y1150D01*
X443Y1150D02*
X446Y1150D01*
X457Y1150D02*
X476Y1150D01*
X503Y1150D02*
X506Y1150D01*
X521Y1150D02*
X524Y1150D01*
X532Y1150D02*
X535Y1150D01*
X851Y1150D02*
X854Y1150D01*
X867Y1150D02*
X870Y1150D01*
X881Y1150D02*
X897Y1150D01*
X913Y1150D02*
X916Y1150D01*
X922Y1150D02*
X925Y1150D01*
X938Y1150D02*
X941Y1150D01*
X946Y1150D02*
X949Y1150D01*
X954Y1150D02*
X957Y1150D01*
X970Y1150D02*
X973Y1150D01*
X980Y1150D02*
X984Y1150D01*
X996Y1150D02*
X1000Y1150D01*
X1026Y1150D02*
X1029Y1150D01*
X1059Y1150D02*
X1062Y1150D01*
X1067Y1150D02*
X1070Y1150D01*
X1084Y1150D02*
X1087Y1150D01*
X1100Y1150D02*
X1103Y1150D01*
X1135Y1150D02*
X1142Y1150D01*
X0Y1149D02*
X7Y1149D01*
X396Y1149D02*
X400Y1149D01*
X443Y1149D02*
X446Y1149D01*
X457Y1149D02*
X476Y1149D01*
X503Y1149D02*
X506Y1149D01*
X521Y1149D02*
X524Y1149D01*
X532Y1149D02*
X536Y1149D01*
X851Y1149D02*
X854Y1149D01*
X866Y1149D02*
X870Y1149D01*
X881Y1149D02*
X897Y1149D01*
X913Y1149D02*
X916Y1149D01*
X921Y1149D02*
X925Y1149D01*
X938Y1149D02*
X941Y1149D01*
X946Y1149D02*
X949Y1149D01*
X954Y1149D02*
X957Y1149D01*
X970Y1149D02*
X974Y1149D01*
X980Y1149D02*
X983Y1149D01*
X996Y1149D02*
X1000Y1149D01*
X1026Y1149D02*
X1029Y1149D01*
X1059Y1149D02*
X1062Y1149D01*
X1066Y1149D02*
X1070Y1149D01*
X1084Y1149D02*
X1087Y1149D01*
X1100Y1149D02*
X1103Y1149D01*
X1135Y1149D02*
X1142Y1149D01*
X0Y1148D02*
X7Y1148D01*
X396Y1148D02*
X400Y1148D01*
X443Y1148D02*
X446Y1148D01*
X457Y1148D02*
X476Y1148D01*
X502Y1148D02*
X506Y1148D01*
X521Y1148D02*
X524Y1148D01*
X533Y1148D02*
X536Y1148D01*
X851Y1148D02*
X854Y1148D01*
X866Y1148D02*
X869Y1148D01*
X881Y1148D02*
X884Y1148D01*
X894Y1148D02*
X898Y1148D01*
X913Y1148D02*
X916Y1148D01*
X921Y1148D02*
X924Y1148D01*
X938Y1148D02*
X941Y1148D01*
X946Y1148D02*
X949Y1148D01*
X954Y1148D02*
X957Y1148D01*
X971Y1148D02*
X974Y1148D01*
X979Y1148D02*
X983Y1148D01*
X996Y1148D02*
X1000Y1148D01*
X1026Y1148D02*
X1029Y1148D01*
X1059Y1148D02*
X1063Y1148D01*
X1066Y1148D02*
X1069Y1148D01*
X1084Y1148D02*
X1087Y1148D01*
X1100Y1148D02*
X1103Y1148D01*
X1135Y1148D02*
X1142Y1148D01*
X0Y1147D02*
X7Y1147D01*
X396Y1147D02*
X400Y1147D01*
X428Y1147D02*
X446Y1147D01*
X473Y1147D02*
X476Y1147D01*
X491Y1147D02*
X506Y1147D01*
X521Y1147D02*
X524Y1147D01*
X533Y1147D02*
X536Y1147D01*
X851Y1147D02*
X854Y1147D01*
X865Y1147D02*
X869Y1147D01*
X881Y1147D02*
X884Y1147D01*
X895Y1147D02*
X898Y1147D01*
X913Y1147D02*
X916Y1147D01*
X920Y1147D02*
X924Y1147D01*
X938Y1147D02*
X941Y1147D01*
X946Y1147D02*
X950Y1147D01*
X954Y1147D02*
X957Y1147D01*
X971Y1147D02*
X975Y1147D01*
X979Y1147D02*
X982Y1147D01*
X996Y1147D02*
X1000Y1147D01*
X1026Y1147D02*
X1029Y1147D01*
X1060Y1147D02*
X1063Y1147D01*
X1065Y1147D02*
X1069Y1147D01*
X1084Y1147D02*
X1087Y1147D01*
X1100Y1147D02*
X1103Y1147D01*
X1135Y1147D02*
X1142Y1147D01*
X0Y1146D02*
X7Y1146D01*
X396Y1146D02*
X400Y1146D01*
X427Y1146D02*
X446Y1146D01*
X473Y1146D02*
X476Y1146D01*
X491Y1146D02*
X505Y1146D01*
X521Y1146D02*
X524Y1146D01*
X533Y1146D02*
X536Y1146D01*
X851Y1146D02*
X854Y1146D01*
X864Y1146D02*
X869Y1146D01*
X880Y1146D02*
X884Y1146D01*
X895Y1146D02*
X898Y1146D01*
X913Y1146D02*
X916Y1146D01*
X919Y1146D02*
X923Y1146D01*
X938Y1146D02*
X942Y1146D01*
X945Y1146D02*
X950Y1146D01*
X953Y1146D02*
X957Y1146D01*
X972Y1146D02*
X976Y1146D01*
X978Y1146D02*
X982Y1146D01*
X996Y1146D02*
X1000Y1146D01*
X1026Y1146D02*
X1029Y1146D01*
X1060Y1146D02*
X1068Y1146D01*
X1084Y1146D02*
X1087Y1146D01*
X1100Y1146D02*
X1103Y1146D01*
X0Y1145D02*
X7Y1145D01*
X396Y1145D02*
X400Y1145D01*
X427Y1145D02*
X445Y1145D01*
X473Y1145D02*
X476Y1145D01*
X491Y1145D02*
X505Y1145D01*
X521Y1145D02*
X524Y1145D01*
X533Y1145D02*
X536Y1145D01*
X851Y1145D02*
X868Y1145D01*
X880Y1145D02*
X883Y1145D01*
X895Y1145D02*
X898Y1145D01*
X909Y1145D02*
X923Y1145D01*
X939Y1145D02*
X956Y1145D01*
X972Y1145D02*
X981Y1145D01*
X996Y1145D02*
X1015Y1145D01*
X1026Y1145D02*
X1029Y1145D01*
X1061Y1145D02*
X1068Y1145D01*
X1084Y1145D02*
X1103Y1145D01*
X0Y1144D02*
X7Y1144D01*
X396Y1144D02*
X400Y1144D01*
X427Y1144D02*
X444Y1144D01*
X473Y1144D02*
X476Y1144D01*
X492Y1144D02*
X506Y1144D01*
X521Y1144D02*
X524Y1144D01*
X533Y1144D02*
X536Y1144D01*
X851Y1144D02*
X867Y1144D01*
X880Y1144D02*
X883Y1144D01*
X896Y1144D02*
X899Y1144D01*
X909Y1144D02*
X922Y1144D01*
X940Y1144D02*
X956Y1144D01*
X973Y1144D02*
X981Y1144D01*
X996Y1144D02*
X1015Y1144D01*
X1026Y1144D02*
X1029Y1144D01*
X1061Y1144D02*
X1067Y1144D01*
X1084Y1144D02*
X1103Y1144D01*
X0Y1143D02*
X7Y1143D01*
X396Y1143D02*
X400Y1143D01*
X426Y1143D02*
X430Y1143D01*
X473Y1143D02*
X476Y1143D01*
X502Y1143D02*
X506Y1143D01*
X521Y1143D02*
X524Y1143D01*
X533Y1143D02*
X536Y1143D01*
X851Y1143D02*
X866Y1143D01*
X880Y1143D02*
X883Y1143D01*
X896Y1143D02*
X899Y1143D01*
X909Y1143D02*
X921Y1143D01*
X940Y1143D02*
X955Y1143D01*
X974Y1143D02*
X980Y1143D01*
X996Y1143D02*
X1015Y1143D01*
X1026Y1143D02*
X1029Y1143D01*
X1062Y1143D02*
X1067Y1143D01*
X1084Y1143D02*
X1103Y1143D01*
X0Y1142D02*
X7Y1142D01*
X396Y1142D02*
X400Y1142D01*
X426Y1142D02*
X430Y1142D01*
X473Y1142D02*
X476Y1142D01*
X503Y1142D02*
X506Y1142D01*
X521Y1142D02*
X524Y1142D01*
X532Y1142D02*
X536Y1142D01*
X851Y1142D02*
X864Y1142D01*
X881Y1142D02*
X882Y1142D01*
X897Y1142D02*
X898Y1142D01*
X910Y1142D02*
X920Y1142D01*
X941Y1142D02*
X946Y1142D01*
X949Y1142D02*
X954Y1142D01*
X975Y1142D02*
X978Y1142D01*
X996Y1142D02*
X1015Y1142D01*
X1027Y1142D02*
X1028Y1142D01*
X1062Y1142D02*
X1066Y1142D01*
X1085Y1142D02*
X1102Y1142D01*
X0Y1141D02*
X7Y1141D01*
X396Y1141D02*
X400Y1141D01*
X426Y1141D02*
X430Y1141D01*
X473Y1141D02*
X476Y1141D01*
X503Y1141D02*
X506Y1141D01*
X521Y1141D02*
X524Y1141D01*
X532Y1141D02*
X535Y1141D01*
X0Y1140D02*
X7Y1140D01*
X396Y1140D02*
X400Y1140D01*
X426Y1140D02*
X430Y1140D01*
X473Y1140D02*
X476Y1140D01*
X503Y1140D02*
X506Y1140D01*
X521Y1140D02*
X524Y1140D01*
X531Y1140D02*
X535Y1140D01*
X1135Y1140D02*
X1142Y1140D01*
X0Y1139D02*
X7Y1139D01*
X396Y1139D02*
X400Y1139D01*
X426Y1139D02*
X430Y1139D01*
X473Y1139D02*
X476Y1139D01*
X503Y1139D02*
X506Y1139D01*
X521Y1139D02*
X524Y1139D01*
X531Y1139D02*
X534Y1139D01*
X1135Y1139D02*
X1142Y1139D01*
X0Y1138D02*
X7Y1138D01*
X396Y1138D02*
X400Y1138D01*
X426Y1138D02*
X430Y1138D01*
X473Y1138D02*
X476Y1138D01*
X503Y1138D02*
X506Y1138D01*
X521Y1138D02*
X524Y1138D01*
X530Y1138D02*
X534Y1138D01*
X1135Y1138D02*
X1142Y1138D01*
X0Y1137D02*
X7Y1137D01*
X396Y1137D02*
X400Y1137D01*
X426Y1137D02*
X430Y1137D01*
X473Y1137D02*
X476Y1137D01*
X503Y1137D02*
X506Y1137D01*
X521Y1137D02*
X524Y1137D01*
X530Y1137D02*
X533Y1137D01*
X1135Y1137D02*
X1142Y1137D01*
X0Y1136D02*
X7Y1136D01*
X396Y1136D02*
X400Y1136D01*
X426Y1136D02*
X430Y1136D01*
X473Y1136D02*
X476Y1136D01*
X503Y1136D02*
X506Y1136D01*
X521Y1136D02*
X524Y1136D01*
X529Y1136D02*
X533Y1136D01*
X1135Y1136D02*
X1142Y1136D01*
X0Y1135D02*
X7Y1135D01*
X396Y1135D02*
X400Y1135D01*
X426Y1135D02*
X430Y1135D01*
X473Y1135D02*
X476Y1135D01*
X503Y1135D02*
X506Y1135D01*
X521Y1135D02*
X524Y1135D01*
X528Y1135D02*
X532Y1135D01*
X1135Y1135D02*
X1142Y1135D01*
X0Y1134D02*
X7Y1134D01*
X396Y1134D02*
X400Y1134D01*
X426Y1134D02*
X430Y1134D01*
X473Y1134D02*
X476Y1134D01*
X503Y1134D02*
X506Y1134D01*
X521Y1134D02*
X524Y1134D01*
X528Y1134D02*
X532Y1134D01*
X1135Y1134D02*
X1142Y1134D01*
X0Y1133D02*
X7Y1133D01*
X396Y1133D02*
X415Y1133D01*
X426Y1133D02*
X445Y1133D01*
X472Y1133D02*
X476Y1133D01*
X487Y1133D02*
X506Y1133D01*
X517Y1133D02*
X531Y1133D01*
X1135Y1133D02*
X1142Y1133D01*
X0Y1132D02*
X7Y1132D01*
X396Y1132D02*
X416Y1132D01*
X426Y1132D02*
X446Y1132D01*
X471Y1132D02*
X476Y1132D01*
X487Y1132D02*
X506Y1132D01*
X517Y1132D02*
X531Y1132D01*
X1135Y1132D02*
X1142Y1132D01*
X0Y1131D02*
X7Y1131D01*
X396Y1131D02*
X416Y1131D01*
X426Y1131D02*
X446Y1131D01*
X471Y1131D02*
X476Y1131D01*
X487Y1131D02*
X505Y1131D01*
X517Y1131D02*
X530Y1131D01*
X1135Y1131D02*
X1142Y1131D01*
X0Y1130D02*
X7Y1130D01*
X396Y1130D02*
X415Y1130D01*
X426Y1130D02*
X445Y1130D01*
X472Y1130D02*
X476Y1130D01*
X487Y1130D02*
X504Y1130D01*
X517Y1130D02*
X528Y1130D01*
X1135Y1130D02*
X1142Y1130D01*
X0Y1129D02*
X7Y1129D01*
X1135Y1129D02*
X1142Y1129D01*
X0Y1128D02*
X7Y1128D01*
X1135Y1128D02*
X1142Y1128D01*
X0Y1127D02*
X7Y1127D01*
X1135Y1127D02*
X1142Y1127D01*
X0Y1126D02*
X7Y1126D01*
X1135Y1126D02*
X1142Y1126D01*
X0Y1125D02*
X7Y1125D01*
X1135Y1125D02*
X1142Y1125D01*
X0Y1124D02*
X7Y1124D01*
X1135Y1124D02*
X1142Y1124D01*
X0Y1123D02*
X7Y1123D01*
X1135Y1123D02*
X1142Y1123D01*
X0Y1122D02*
X7Y1122D01*
X1135Y1122D02*
X1142Y1122D01*
X0Y1121D02*
X7Y1121D01*
X1135Y1121D02*
X1142Y1121D01*
X0Y1120D02*
X7Y1120D01*
X1135Y1120D02*
X1142Y1120D01*
X0Y1119D02*
X7Y1119D01*
X0Y1118D02*
X7Y1118D01*
X0Y1117D02*
X7Y1117D01*
X1135Y1117D02*
X1142Y1117D01*
X0Y1116D02*
X7Y1116D01*
X1135Y1116D02*
X1142Y1116D01*
X0Y1115D02*
X7Y1115D01*
X1135Y1115D02*
X1142Y1115D01*
X0Y1114D02*
X7Y1114D01*
X1135Y1114D02*
X1142Y1114D01*
X0Y1113D02*
X7Y1113D01*
X1135Y1113D02*
X1142Y1113D01*
X0Y1112D02*
X7Y1112D01*
X1135Y1112D02*
X1142Y1112D01*
X0Y1111D02*
X7Y1111D01*
X1135Y1111D02*
X1142Y1111D01*
X0Y1110D02*
X7Y1110D01*
X1135Y1110D02*
X1142Y1110D01*
X0Y1109D02*
X7Y1109D01*
X1135Y1109D02*
X1142Y1109D01*
X0Y1108D02*
X7Y1108D01*
X1135Y1108D02*
X1142Y1108D01*
X0Y1107D02*
X7Y1107D01*
X1135Y1107D02*
X1142Y1107D01*
X0Y1106D02*
X7Y1106D01*
X994Y1106D02*
X996Y1106D01*
X1011Y1106D02*
X1013Y1106D01*
X1028Y1106D02*
X1043Y1106D01*
X1135Y1106D02*
X1142Y1106D01*
X0Y1105D02*
X7Y1105D01*
X994Y1105D02*
X997Y1105D01*
X1010Y1105D02*
X1013Y1105D01*
X1028Y1105D02*
X1043Y1105D01*
X1135Y1105D02*
X1142Y1105D01*
X0Y1104D02*
X7Y1104D01*
X994Y1104D02*
X997Y1104D01*
X1010Y1104D02*
X1013Y1104D01*
X1028Y1104D02*
X1043Y1104D01*
X1135Y1104D02*
X1142Y1104D01*
X0Y1103D02*
X7Y1103D01*
X994Y1103D02*
X997Y1103D01*
X1010Y1103D02*
X1013Y1103D01*
X1028Y1103D02*
X1043Y1103D01*
X1135Y1103D02*
X1142Y1103D01*
X0Y1102D02*
X7Y1102D01*
X994Y1102D02*
X997Y1102D01*
X1010Y1102D02*
X1013Y1102D01*
X1028Y1102D02*
X1031Y1102D01*
X1135Y1102D02*
X1142Y1102D01*
X0Y1101D02*
X7Y1101D01*
X994Y1101D02*
X997Y1101D01*
X1010Y1101D02*
X1013Y1101D01*
X1028Y1101D02*
X1031Y1101D01*
X1135Y1101D02*
X1142Y1101D01*
X0Y1100D02*
X7Y1100D01*
X994Y1100D02*
X997Y1100D01*
X1010Y1100D02*
X1013Y1100D01*
X1028Y1100D02*
X1031Y1100D01*
X1135Y1100D02*
X1142Y1100D01*
X0Y1099D02*
X7Y1099D01*
X994Y1099D02*
X997Y1099D01*
X1010Y1099D02*
X1013Y1099D01*
X1028Y1099D02*
X1031Y1099D01*
X1135Y1099D02*
X1142Y1099D01*
X0Y1098D02*
X7Y1098D01*
X994Y1098D02*
X997Y1098D01*
X1010Y1098D02*
X1013Y1098D01*
X1028Y1098D02*
X1031Y1098D01*
X1135Y1098D02*
X1142Y1098D01*
X0Y1097D02*
X7Y1097D01*
X994Y1097D02*
X997Y1097D01*
X1010Y1097D02*
X1013Y1097D01*
X1028Y1097D02*
X1031Y1097D01*
X1135Y1097D02*
X1142Y1097D01*
X0Y1096D02*
X7Y1096D01*
X994Y1096D02*
X998Y1096D01*
X1010Y1096D02*
X1013Y1096D01*
X1028Y1096D02*
X1031Y1096D01*
X1135Y1096D02*
X1142Y1096D01*
X0Y1095D02*
X7Y1095D01*
X994Y1095D02*
X998Y1095D01*
X1009Y1095D02*
X1013Y1095D01*
X1028Y1095D02*
X1031Y1095D01*
X1135Y1095D02*
X1142Y1095D01*
X0Y1094D02*
X7Y1094D01*
X995Y1094D02*
X998Y1094D01*
X1009Y1094D02*
X1012Y1094D01*
X1028Y1094D02*
X1031Y1094D01*
X1135Y1094D02*
X1142Y1094D01*
X0Y1093D02*
X7Y1093D01*
X995Y1093D02*
X999Y1093D01*
X1008Y1093D02*
X1012Y1093D01*
X1028Y1093D02*
X1031Y1093D01*
X1135Y1093D02*
X1142Y1093D01*
X0Y1092D02*
X7Y1092D01*
X996Y1092D02*
X999Y1092D01*
X1008Y1092D02*
X1011Y1092D01*
X1028Y1092D02*
X1041Y1092D01*
X1135Y1092D02*
X1142Y1092D01*
X0Y1091D02*
X7Y1091D01*
X996Y1091D02*
X999Y1091D01*
X1008Y1091D02*
X1011Y1091D01*
X1028Y1091D02*
X1042Y1091D01*
X1135Y1091D02*
X1142Y1091D01*
X0Y1090D02*
X7Y1090D01*
X996Y1090D02*
X1000Y1090D01*
X1007Y1090D02*
X1011Y1090D01*
X1028Y1090D02*
X1043Y1090D01*
X1135Y1090D02*
X1142Y1090D01*
X0Y1089D02*
X7Y1089D01*
X997Y1089D02*
X1000Y1089D01*
X1007Y1089D02*
X1010Y1089D01*
X1028Y1089D02*
X1043Y1089D01*
X1135Y1089D02*
X1142Y1089D01*
X0Y1088D02*
X7Y1088D01*
X997Y1088D02*
X1001Y1088D01*
X1006Y1088D02*
X1010Y1088D01*
X1040Y1088D02*
X1043Y1088D01*
X1135Y1088D02*
X1142Y1088D01*
X0Y1087D02*
X7Y1087D01*
X997Y1087D02*
X1001Y1087D01*
X1006Y1087D02*
X1010Y1087D01*
X1040Y1087D02*
X1043Y1087D01*
X1135Y1087D02*
X1142Y1087D01*
X0Y1086D02*
X7Y1086D01*
X998Y1086D02*
X1001Y1086D01*
X1006Y1086D02*
X1009Y1086D01*
X1040Y1086D02*
X1043Y1086D01*
X1135Y1086D02*
X1142Y1086D01*
X0Y1085D02*
X7Y1085D01*
X998Y1085D02*
X1002Y1085D01*
X1005Y1085D02*
X1009Y1085D01*
X1040Y1085D02*
X1043Y1085D01*
X1135Y1085D02*
X1142Y1085D01*
X0Y1084D02*
X7Y1084D01*
X999Y1084D02*
X1002Y1084D01*
X1005Y1084D02*
X1008Y1084D01*
X1040Y1084D02*
X1043Y1084D01*
X1135Y1084D02*
X1142Y1084D01*
X0Y1083D02*
X7Y1083D01*
X999Y1083D02*
X1008Y1083D01*
X1040Y1083D02*
X1043Y1083D01*
X1135Y1083D02*
X1142Y1083D01*
X0Y1082D02*
X7Y1082D01*
X999Y1082D02*
X1008Y1082D01*
X1040Y1082D02*
X1043Y1082D01*
X1135Y1082D02*
X1142Y1082D01*
X0Y1081D02*
X7Y1081D01*
X1000Y1081D02*
X1007Y1081D01*
X1040Y1081D02*
X1043Y1081D01*
X1135Y1081D02*
X1142Y1081D01*
X0Y1080D02*
X7Y1080D01*
X1000Y1080D02*
X1007Y1080D01*
X1040Y1080D02*
X1043Y1080D01*
X1135Y1080D02*
X1142Y1080D01*
X0Y1079D02*
X7Y1079D01*
X1001Y1079D02*
X1006Y1079D01*
X1024Y1079D02*
X1028Y1079D01*
X1040Y1079D02*
X1043Y1079D01*
X1135Y1079D02*
X1142Y1079D01*
X0Y1078D02*
X7Y1078D01*
X1001Y1078D02*
X1006Y1078D01*
X1024Y1078D02*
X1043Y1078D01*
X1135Y1078D02*
X1142Y1078D01*
X0Y1077D02*
X7Y1077D01*
X1001Y1077D02*
X1006Y1077D01*
X1024Y1077D02*
X1043Y1077D01*
X1135Y1077D02*
X1142Y1077D01*
X0Y1076D02*
X7Y1076D01*
X1002Y1076D02*
X1005Y1076D01*
X1025Y1076D02*
X1043Y1076D01*
X1135Y1076D02*
X1142Y1076D01*
X0Y1075D02*
X7Y1075D01*
X1002Y1075D02*
X1005Y1075D01*
X1027Y1075D02*
X1042Y1075D01*
X1135Y1075D02*
X1142Y1075D01*
X0Y1074D02*
X7Y1074D01*
X1031Y1074D02*
X1039Y1074D01*
X1135Y1074D02*
X1142Y1074D01*
X0Y1073D02*
X7Y1073D01*
X1135Y1073D02*
X1142Y1073D01*
X0Y1072D02*
X7Y1072D01*
X1135Y1072D02*
X1142Y1072D01*
X0Y1071D02*
X7Y1071D01*
X1135Y1071D02*
X1142Y1071D01*
X0Y1070D02*
X7Y1070D01*
X1135Y1070D02*
X1142Y1070D01*
X0Y1069D02*
X7Y1069D01*
X1135Y1069D02*
X1142Y1069D01*
X0Y1068D02*
X7Y1068D01*
X1135Y1068D02*
X1142Y1068D01*
X0Y1067D02*
X7Y1067D01*
X1135Y1067D02*
X1142Y1067D01*
X0Y1066D02*
X7Y1066D01*
X1135Y1066D02*
X1142Y1066D01*
X0Y1065D02*
X7Y1065D01*
X1135Y1065D02*
X1142Y1065D01*
X0Y1064D02*
X7Y1064D01*
X1135Y1064D02*
X1142Y1064D01*
X0Y1063D02*
X7Y1063D01*
X1135Y1063D02*
X1142Y1063D01*
X0Y1062D02*
X7Y1062D01*
X1135Y1062D02*
X1142Y1062D01*
X0Y1061D02*
X7Y1061D01*
X1135Y1061D02*
X1142Y1061D01*
X0Y1060D02*
X7Y1060D01*
X1135Y1060D02*
X1142Y1060D01*
X0Y1059D02*
X7Y1059D01*
X1135Y1059D02*
X1142Y1059D01*
X0Y1058D02*
X7Y1058D01*
X1135Y1058D02*
X1142Y1058D01*
X0Y1057D02*
X7Y1057D01*
X1135Y1057D02*
X1142Y1057D01*
X0Y1056D02*
X7Y1056D01*
X1135Y1056D02*
X1142Y1056D01*
X0Y1055D02*
X7Y1055D01*
X1135Y1055D02*
X1142Y1055D01*
X0Y1054D02*
X7Y1054D01*
X1135Y1054D02*
X1142Y1054D01*
X0Y1053D02*
X7Y1053D01*
X1135Y1053D02*
X1142Y1053D01*
X0Y1052D02*
X7Y1052D01*
X1135Y1052D02*
X1142Y1052D01*
X0Y1051D02*
X7Y1051D01*
X1135Y1051D02*
X1142Y1051D01*
X0Y1050D02*
X7Y1050D01*
X1135Y1050D02*
X1142Y1050D01*
X0Y1049D02*
X7Y1049D01*
X1135Y1049D02*
X1142Y1049D01*
X0Y1048D02*
X7Y1048D01*
X1135Y1048D02*
X1142Y1048D01*
X0Y1047D02*
X7Y1047D01*
X1135Y1047D02*
X1142Y1047D01*
X0Y1046D02*
X7Y1046D01*
X1135Y1046D02*
X1142Y1046D01*
X0Y1045D02*
X7Y1045D01*
X1135Y1045D02*
X1142Y1045D01*
X0Y1044D02*
X7Y1044D01*
X1135Y1044D02*
X1142Y1044D01*
X0Y1043D02*
X7Y1043D01*
X1135Y1043D02*
X1142Y1043D01*
X0Y1042D02*
X7Y1042D01*
X1135Y1042D02*
X1142Y1042D01*
X0Y1041D02*
X7Y1041D01*
X1135Y1041D02*
X1142Y1041D01*
X0Y1040D02*
X7Y1040D01*
X1135Y1040D02*
X1142Y1040D01*
X0Y1039D02*
X7Y1039D01*
X1135Y1039D02*
X1142Y1039D01*
X0Y1038D02*
X7Y1038D01*
X1135Y1038D02*
X1142Y1038D01*
X0Y1037D02*
X7Y1037D01*
X1135Y1037D02*
X1142Y1037D01*
X0Y1036D02*
X7Y1036D01*
X1135Y1036D02*
X1142Y1036D01*
X0Y1035D02*
X7Y1035D01*
X1135Y1035D02*
X1142Y1035D01*
X0Y1034D02*
X7Y1034D01*
X1135Y1034D02*
X1142Y1034D01*
X0Y1033D02*
X7Y1033D01*
X1135Y1033D02*
X1142Y1033D01*
X0Y1032D02*
X7Y1032D01*
X1135Y1032D02*
X1142Y1032D01*
X0Y1031D02*
X7Y1031D01*
X1135Y1031D02*
X1142Y1031D01*
X0Y1030D02*
X7Y1030D01*
X1135Y1030D02*
X1142Y1030D01*
X0Y1029D02*
X7Y1029D01*
X1135Y1029D02*
X1142Y1029D01*
X0Y1028D02*
X7Y1028D01*
X1135Y1028D02*
X1142Y1028D01*
X0Y1027D02*
X7Y1027D01*
X1135Y1027D02*
X1142Y1027D01*
X0Y1026D02*
X7Y1026D01*
X1135Y1026D02*
X1142Y1026D01*
X0Y1025D02*
X7Y1025D01*
X1135Y1025D02*
X1142Y1025D01*
X0Y1024D02*
X7Y1024D01*
X1135Y1024D02*
X1142Y1024D01*
X0Y1023D02*
X7Y1023D01*
X1135Y1023D02*
X1142Y1023D01*
X0Y1022D02*
X7Y1022D01*
X1135Y1022D02*
X1142Y1022D01*
X0Y1021D02*
X7Y1021D01*
X1135Y1021D02*
X1142Y1021D01*
X0Y1020D02*
X7Y1020D01*
X1135Y1020D02*
X1142Y1020D01*
X0Y1019D02*
X7Y1019D01*
X1135Y1019D02*
X1142Y1019D01*
X0Y1018D02*
X7Y1018D01*
X1135Y1018D02*
X1142Y1018D01*
X0Y1017D02*
X7Y1017D01*
X1135Y1017D02*
X1142Y1017D01*
X0Y1016D02*
X7Y1016D01*
X1135Y1016D02*
X1142Y1016D01*
X0Y1015D02*
X7Y1015D01*
X1135Y1015D02*
X1142Y1015D01*
X0Y1014D02*
X7Y1014D01*
X1135Y1014D02*
X1142Y1014D01*
X0Y1013D02*
X7Y1013D01*
X1135Y1013D02*
X1142Y1013D01*
X0Y1012D02*
X7Y1012D01*
X1135Y1012D02*
X1142Y1012D01*
X0Y1011D02*
X7Y1011D01*
X1135Y1011D02*
X1142Y1011D01*
X0Y1010D02*
X7Y1010D01*
X1135Y1010D02*
X1142Y1010D01*
X0Y1009D02*
X7Y1009D01*
X1135Y1009D02*
X1142Y1009D01*
X0Y1008D02*
X7Y1008D01*
X1135Y1008D02*
X1142Y1008D01*
X0Y1007D02*
X7Y1007D01*
X1135Y1007D02*
X1142Y1007D01*
X0Y1006D02*
X7Y1006D01*
X1135Y1006D02*
X1142Y1006D01*
X0Y1005D02*
X7Y1005D01*
X1135Y1005D02*
X1142Y1005D01*
X0Y1004D02*
X7Y1004D01*
X1135Y1004D02*
X1142Y1004D01*
X0Y1003D02*
X7Y1003D01*
X1135Y1003D02*
X1142Y1003D01*
X0Y1002D02*
X7Y1002D01*
X1135Y1002D02*
X1142Y1002D01*
X0Y1001D02*
X7Y1001D01*
X1135Y1001D02*
X1142Y1001D01*
X0Y1000D02*
X7Y1000D01*
X1135Y1000D02*
X1142Y1000D01*
X0Y999D02*
X7Y999D01*
X1135Y999D02*
X1142Y999D01*
X0Y998D02*
X7Y998D01*
X1135Y998D02*
X1142Y998D01*
X0Y997D02*
X7Y997D01*
X1135Y997D02*
X1142Y997D01*
X0Y996D02*
X7Y996D01*
X1135Y996D02*
X1142Y996D01*
X0Y995D02*
X7Y995D01*
X1135Y995D02*
X1142Y995D01*
X0Y994D02*
X7Y994D01*
X1135Y994D02*
X1142Y994D01*
X0Y993D02*
X7Y993D01*
X1135Y993D02*
X1142Y993D01*
X0Y992D02*
X7Y992D01*
X1135Y992D02*
X1142Y992D01*
X0Y991D02*
X7Y991D01*
X1135Y991D02*
X1142Y991D01*
X0Y990D02*
X7Y990D01*
X1135Y990D02*
X1142Y990D01*
X0Y989D02*
X7Y989D01*
X1135Y989D02*
X1142Y989D01*
X0Y988D02*
X7Y988D01*
X1135Y988D02*
X1142Y988D01*
X0Y987D02*
X7Y987D01*
X1135Y987D02*
X1142Y987D01*
X0Y986D02*
X7Y986D01*
X1135Y986D02*
X1142Y986D01*
X0Y985D02*
X7Y985D01*
X1135Y985D02*
X1142Y985D01*
X0Y984D02*
X7Y984D01*
X1135Y984D02*
X1142Y984D01*
X0Y983D02*
X7Y983D01*
X1135Y983D02*
X1142Y983D01*
X0Y982D02*
X7Y982D01*
X1135Y982D02*
X1142Y982D01*
X0Y981D02*
X7Y981D01*
X1135Y981D02*
X1142Y981D01*
X0Y980D02*
X7Y980D01*
X1135Y980D02*
X1142Y980D01*
X0Y979D02*
X7Y979D01*
X1135Y979D02*
X1142Y979D01*
X0Y978D02*
X7Y978D01*
X1135Y978D02*
X1142Y978D01*
X0Y977D02*
X7Y977D01*
X1135Y977D02*
X1142Y977D01*
X0Y976D02*
X7Y976D01*
X1135Y976D02*
X1142Y976D01*
X0Y975D02*
X7Y975D01*
X1135Y975D02*
X1142Y975D01*
X0Y974D02*
X7Y974D01*
X1135Y974D02*
X1142Y974D01*
X0Y973D02*
X7Y973D01*
X1135Y973D02*
X1142Y973D01*
X0Y972D02*
X7Y972D01*
X1135Y972D02*
X1142Y972D01*
X0Y971D02*
X7Y971D01*
X1135Y971D02*
X1142Y971D01*
X0Y970D02*
X7Y970D01*
X1135Y970D02*
X1142Y970D01*
X0Y969D02*
X7Y969D01*
X1135Y969D02*
X1142Y969D01*
X0Y968D02*
X7Y968D01*
X1135Y968D02*
X1142Y968D01*
X0Y967D02*
X7Y967D01*
X1135Y967D02*
X1142Y967D01*
X0Y966D02*
X7Y966D01*
X1135Y966D02*
X1142Y966D01*
X0Y965D02*
X7Y965D01*
X1135Y965D02*
X1142Y965D01*
X0Y964D02*
X7Y964D01*
X1135Y964D02*
X1142Y964D01*
X0Y963D02*
X7Y963D01*
X1135Y963D02*
X1142Y963D01*
X0Y962D02*
X7Y962D01*
X1135Y962D02*
X1142Y962D01*
X0Y961D02*
X7Y961D01*
X1135Y961D02*
X1142Y961D01*
X0Y960D02*
X7Y960D01*
X1135Y960D02*
X1142Y960D01*
X0Y959D02*
X7Y959D01*
X1135Y959D02*
X1142Y959D01*
X0Y958D02*
X7Y958D01*
X1135Y958D02*
X1142Y958D01*
X0Y957D02*
X7Y957D01*
X1135Y957D02*
X1142Y957D01*
X0Y956D02*
X7Y956D01*
X1135Y956D02*
X1142Y956D01*
X0Y955D02*
X7Y955D01*
X1135Y955D02*
X1142Y955D01*
X0Y954D02*
X7Y954D01*
X1135Y954D02*
X1142Y954D01*
X0Y953D02*
X7Y953D01*
X1135Y953D02*
X1142Y953D01*
X0Y952D02*
X7Y952D01*
X1135Y952D02*
X1142Y952D01*
X0Y951D02*
X7Y951D01*
X1135Y951D02*
X1142Y951D01*
X0Y950D02*
X7Y950D01*
X1135Y950D02*
X1142Y950D01*
X0Y949D02*
X7Y949D01*
X1135Y949D02*
X1142Y949D01*
X0Y948D02*
X7Y948D01*
X1135Y948D02*
X1142Y948D01*
X0Y947D02*
X7Y947D01*
X1135Y947D02*
X1142Y947D01*
X0Y946D02*
X7Y946D01*
X1135Y946D02*
X1142Y946D01*
X0Y945D02*
X7Y945D01*
X1135Y945D02*
X1142Y945D01*
X0Y944D02*
X7Y944D01*
X1135Y944D02*
X1142Y944D01*
X0Y943D02*
X7Y943D01*
X1135Y943D02*
X1142Y943D01*
X0Y942D02*
X7Y942D01*
X1135Y942D02*
X1142Y942D01*
X0Y941D02*
X7Y941D01*
X1135Y941D02*
X1142Y941D01*
X0Y940D02*
X7Y940D01*
X1135Y940D02*
X1142Y940D01*
X0Y939D02*
X7Y939D01*
X1135Y939D02*
X1142Y939D01*
X0Y938D02*
X7Y938D01*
X1135Y938D02*
X1142Y938D01*
X0Y937D02*
X7Y937D01*
X1135Y937D02*
X1142Y937D01*
X0Y936D02*
X7Y936D01*
X1135Y936D02*
X1142Y936D01*
X0Y935D02*
X7Y935D01*
X1135Y935D02*
X1142Y935D01*
X0Y934D02*
X7Y934D01*
X1135Y934D02*
X1142Y934D01*
X0Y933D02*
X7Y933D01*
X1135Y933D02*
X1142Y933D01*
X0Y932D02*
X7Y932D01*
X1135Y932D02*
X1142Y932D01*
X0Y931D02*
X7Y931D01*
X1135Y931D02*
X1142Y931D01*
X0Y930D02*
X7Y930D01*
X1135Y930D02*
X1142Y930D01*
X0Y929D02*
X7Y929D01*
X1135Y929D02*
X1142Y929D01*
X0Y928D02*
X7Y928D01*
X1135Y928D02*
X1142Y928D01*
X0Y927D02*
X7Y927D01*
X1135Y927D02*
X1142Y927D01*
X0Y926D02*
X7Y926D01*
X1135Y926D02*
X1142Y926D01*
X0Y925D02*
X7Y925D01*
X1135Y925D02*
X1142Y925D01*
X0Y924D02*
X7Y924D01*
X1135Y924D02*
X1142Y924D01*
X0Y923D02*
X7Y923D01*
X1135Y923D02*
X1142Y923D01*
X0Y922D02*
X7Y922D01*
X1135Y922D02*
X1142Y922D01*
X0Y921D02*
X7Y921D01*
X1135Y921D02*
X1142Y921D01*
X0Y920D02*
X7Y920D01*
X1135Y920D02*
X1142Y920D01*
X0Y919D02*
X7Y919D01*
X1135Y919D02*
X1142Y919D01*
X0Y918D02*
X7Y918D01*
X1135Y918D02*
X1142Y918D01*
X0Y917D02*
X7Y917D01*
X1135Y917D02*
X1142Y917D01*
X0Y916D02*
X7Y916D01*
X1135Y916D02*
X1142Y916D01*
X0Y915D02*
X7Y915D01*
X1135Y915D02*
X1142Y915D01*
X0Y914D02*
X7Y914D01*
X1135Y914D02*
X1142Y914D01*
X0Y913D02*
X7Y913D01*
X1135Y913D02*
X1142Y913D01*
X0Y912D02*
X7Y912D01*
X1135Y912D02*
X1142Y912D01*
X0Y911D02*
X7Y911D01*
X1135Y911D02*
X1142Y911D01*
X0Y910D02*
X7Y910D01*
X1135Y910D02*
X1142Y910D01*
X0Y909D02*
X7Y909D01*
X1135Y909D02*
X1142Y909D01*
X0Y908D02*
X7Y908D01*
X1135Y908D02*
X1142Y908D01*
X0Y907D02*
X7Y907D01*
X1135Y907D02*
X1142Y907D01*
X0Y906D02*
X7Y906D01*
X1135Y906D02*
X1142Y906D01*
X0Y905D02*
X7Y905D01*
X1135Y905D02*
X1142Y905D01*
X0Y904D02*
X7Y904D01*
X1135Y904D02*
X1142Y904D01*
X0Y903D02*
X7Y903D01*
X1135Y903D02*
X1142Y903D01*
X0Y902D02*
X7Y902D01*
X1135Y902D02*
X1142Y902D01*
X0Y901D02*
X7Y901D01*
X1135Y901D02*
X1142Y901D01*
X0Y900D02*
X7Y900D01*
X1135Y900D02*
X1142Y900D01*
X0Y899D02*
X7Y899D01*
X1135Y899D02*
X1142Y899D01*
X0Y898D02*
X7Y898D01*
X1135Y898D02*
X1142Y898D01*
X0Y897D02*
X7Y897D01*
X1135Y897D02*
X1142Y897D01*
X0Y896D02*
X7Y896D01*
X1135Y896D02*
X1142Y896D01*
X0Y895D02*
X7Y895D01*
X1135Y895D02*
X1142Y895D01*
X0Y894D02*
X7Y894D01*
X1135Y894D02*
X1142Y894D01*
X0Y893D02*
X7Y893D01*
X1135Y893D02*
X1142Y893D01*
X0Y892D02*
X7Y892D01*
X1135Y892D02*
X1142Y892D01*
X0Y891D02*
X7Y891D01*
X1135Y891D02*
X1142Y891D01*
X0Y890D02*
X7Y890D01*
X1135Y890D02*
X1142Y890D01*
X0Y889D02*
X7Y889D01*
X1135Y889D02*
X1142Y889D01*
X0Y888D02*
X7Y888D01*
X1135Y888D02*
X1142Y888D01*
X0Y887D02*
X7Y887D01*
X1135Y887D02*
X1142Y887D01*
X0Y886D02*
X7Y886D01*
X1135Y886D02*
X1142Y886D01*
X0Y885D02*
X7Y885D01*
X1135Y885D02*
X1142Y885D01*
X0Y884D02*
X7Y884D01*
X1135Y884D02*
X1142Y884D01*
X0Y883D02*
X7Y883D01*
X1135Y883D02*
X1142Y883D01*
X0Y882D02*
X7Y882D01*
X1135Y882D02*
X1142Y882D01*
X0Y881D02*
X7Y881D01*
X1135Y881D02*
X1142Y881D01*
X0Y880D02*
X7Y880D01*
X1135Y880D02*
X1142Y880D01*
X0Y879D02*
X7Y879D01*
X1135Y879D02*
X1142Y879D01*
X0Y878D02*
X7Y878D01*
X1135Y878D02*
X1142Y878D01*
X0Y877D02*
X7Y877D01*
X1135Y877D02*
X1142Y877D01*
X0Y876D02*
X7Y876D01*
X1135Y876D02*
X1142Y876D01*
X0Y875D02*
X7Y875D01*
X1135Y875D02*
X1142Y875D01*
X0Y874D02*
X7Y874D01*
X1135Y874D02*
X1142Y874D01*
X0Y873D02*
X7Y873D01*
X1135Y873D02*
X1142Y873D01*
X0Y872D02*
X7Y872D01*
X1135Y872D02*
X1142Y872D01*
X0Y871D02*
X7Y871D01*
X1135Y871D02*
X1142Y871D01*
X0Y870D02*
X7Y870D01*
X1135Y870D02*
X1142Y870D01*
X0Y869D02*
X7Y869D01*
X1135Y869D02*
X1142Y869D01*
X0Y868D02*
X7Y868D01*
X1135Y868D02*
X1142Y868D01*
X0Y867D02*
X7Y867D01*
X1135Y867D02*
X1142Y867D01*
X0Y866D02*
X7Y866D01*
X1135Y866D02*
X1142Y866D01*
X0Y865D02*
X7Y865D01*
X1135Y865D02*
X1142Y865D01*
X0Y864D02*
X7Y864D01*
X1135Y864D02*
X1142Y864D01*
X0Y863D02*
X7Y863D01*
X1135Y863D02*
X1142Y863D01*
X0Y862D02*
X7Y862D01*
X1135Y862D02*
X1142Y862D01*
X0Y861D02*
X7Y861D01*
X1135Y861D02*
X1142Y861D01*
X0Y860D02*
X7Y860D01*
X1135Y860D02*
X1142Y860D01*
X0Y859D02*
X7Y859D01*
X1135Y859D02*
X1142Y859D01*
X0Y858D02*
X7Y858D01*
X1135Y858D02*
X1142Y858D01*
X0Y857D02*
X7Y857D01*
X1135Y857D02*
X1142Y857D01*
X0Y856D02*
X7Y856D01*
X1135Y856D02*
X1142Y856D01*
X0Y855D02*
X7Y855D01*
X1135Y855D02*
X1142Y855D01*
X0Y854D02*
X7Y854D01*
X1135Y854D02*
X1142Y854D01*
X0Y853D02*
X7Y853D01*
X1135Y853D02*
X1142Y853D01*
X0Y852D02*
X7Y852D01*
X1135Y852D02*
X1142Y852D01*
X0Y851D02*
X7Y851D01*
X1135Y851D02*
X1142Y851D01*
X0Y850D02*
X7Y850D01*
X1135Y850D02*
X1142Y850D01*
X0Y849D02*
X7Y849D01*
X1135Y849D02*
X1142Y849D01*
X0Y848D02*
X7Y848D01*
X1135Y848D02*
X1142Y848D01*
X0Y847D02*
X7Y847D01*
X1135Y847D02*
X1142Y847D01*
X0Y846D02*
X7Y846D01*
X1135Y846D02*
X1142Y846D01*
X0Y845D02*
X7Y845D01*
X1135Y845D02*
X1142Y845D01*
X0Y844D02*
X7Y844D01*
X1135Y844D02*
X1142Y844D01*
X0Y843D02*
X7Y843D01*
X1135Y843D02*
X1142Y843D01*
X0Y842D02*
X7Y842D01*
X1135Y842D02*
X1142Y842D01*
X0Y841D02*
X7Y841D01*
X1135Y841D02*
X1142Y841D01*
X0Y840D02*
X7Y840D01*
X1135Y840D02*
X1142Y840D01*
X0Y839D02*
X7Y839D01*
X1135Y839D02*
X1142Y839D01*
X0Y838D02*
X7Y838D01*
X1135Y838D02*
X1142Y838D01*
X0Y837D02*
X7Y837D01*
X1135Y837D02*
X1142Y837D01*
X0Y836D02*
X7Y836D01*
X1135Y836D02*
X1142Y836D01*
X0Y835D02*
X7Y835D01*
X1135Y835D02*
X1142Y835D01*
X0Y834D02*
X7Y834D01*
X1135Y834D02*
X1142Y834D01*
X0Y833D02*
X7Y833D01*
X1135Y833D02*
X1142Y833D01*
X0Y832D02*
X7Y832D01*
X1135Y832D02*
X1142Y832D01*
X0Y831D02*
X7Y831D01*
X1135Y831D02*
X1142Y831D01*
X0Y830D02*
X7Y830D01*
X1135Y830D02*
X1142Y830D01*
X0Y829D02*
X7Y829D01*
X1135Y829D02*
X1142Y829D01*
X0Y828D02*
X7Y828D01*
X1135Y828D02*
X1142Y828D01*
X0Y827D02*
X7Y827D01*
X1135Y827D02*
X1142Y827D01*
X0Y826D02*
X7Y826D01*
X1135Y826D02*
X1142Y826D01*
X0Y825D02*
X7Y825D01*
X1135Y825D02*
X1142Y825D01*
X0Y824D02*
X7Y824D01*
X1135Y824D02*
X1142Y824D01*
X0Y823D02*
X7Y823D01*
X1135Y823D02*
X1142Y823D01*
X0Y822D02*
X7Y822D01*
X1135Y822D02*
X1142Y822D01*
X0Y821D02*
X7Y821D01*
X1135Y821D02*
X1142Y821D01*
X0Y820D02*
X7Y820D01*
X1135Y820D02*
X1142Y820D01*
X0Y819D02*
X7Y819D01*
X1135Y819D02*
X1142Y819D01*
X0Y818D02*
X7Y818D01*
X1135Y818D02*
X1142Y818D01*
X0Y817D02*
X7Y817D01*
X1135Y817D02*
X1142Y817D01*
X0Y816D02*
X7Y816D01*
X1135Y816D02*
X1142Y816D01*
X0Y815D02*
X7Y815D01*
X1135Y815D02*
X1142Y815D01*
X0Y814D02*
X7Y814D01*
X1135Y814D02*
X1142Y814D01*
X0Y813D02*
X7Y813D01*
X1135Y813D02*
X1142Y813D01*
X0Y812D02*
X7Y812D01*
X1135Y812D02*
X1142Y812D01*
X0Y811D02*
X7Y811D01*
X1135Y811D02*
X1142Y811D01*
X0Y810D02*
X7Y810D01*
X1135Y810D02*
X1142Y810D01*
X0Y809D02*
X7Y809D01*
X1135Y809D02*
X1142Y809D01*
X0Y808D02*
X7Y808D01*
X1135Y808D02*
X1142Y808D01*
X0Y807D02*
X7Y807D01*
X1135Y807D02*
X1142Y807D01*
X0Y806D02*
X7Y806D01*
X1135Y806D02*
X1142Y806D01*
X0Y805D02*
X7Y805D01*
X1135Y805D02*
X1142Y805D01*
X0Y804D02*
X7Y804D01*
X1135Y804D02*
X1142Y804D01*
X0Y803D02*
X7Y803D01*
X1135Y803D02*
X1142Y803D01*
X0Y802D02*
X7Y802D01*
X1135Y802D02*
X1142Y802D01*
X0Y801D02*
X7Y801D01*
X1135Y801D02*
X1142Y801D01*
X0Y800D02*
X7Y800D01*
X1135Y800D02*
X1142Y800D01*
X0Y799D02*
X7Y799D01*
X1135Y799D02*
X1142Y799D01*
X0Y798D02*
X7Y798D01*
X1135Y798D02*
X1142Y798D01*
X0Y797D02*
X7Y797D01*
X1135Y797D02*
X1142Y797D01*
X0Y796D02*
X7Y796D01*
X1135Y796D02*
X1142Y796D01*
X0Y795D02*
X7Y795D01*
X1135Y795D02*
X1142Y795D01*
X0Y794D02*
X7Y794D01*
X1135Y794D02*
X1142Y794D01*
X0Y793D02*
X7Y793D01*
X1135Y793D02*
X1142Y793D01*
X0Y792D02*
X7Y792D01*
X1135Y792D02*
X1142Y792D01*
X0Y791D02*
X7Y791D01*
X1135Y791D02*
X1142Y791D01*
X0Y790D02*
X7Y790D01*
X1135Y790D02*
X1142Y790D01*
X0Y789D02*
X7Y789D01*
X1135Y789D02*
X1142Y789D01*
X0Y788D02*
X7Y788D01*
X1135Y788D02*
X1142Y788D01*
X0Y787D02*
X7Y787D01*
X1135Y787D02*
X1142Y787D01*
X0Y786D02*
X7Y786D01*
X1135Y786D02*
X1142Y786D01*
X0Y785D02*
X7Y785D01*
X1135Y785D02*
X1142Y785D01*
X0Y784D02*
X7Y784D01*
X1135Y784D02*
X1142Y784D01*
X0Y783D02*
X7Y783D01*
X1135Y783D02*
X1142Y783D01*
X0Y782D02*
X7Y782D01*
X1135Y782D02*
X1142Y782D01*
X0Y781D02*
X7Y781D01*
X1135Y781D02*
X1142Y781D01*
X0Y780D02*
X7Y780D01*
X1135Y780D02*
X1142Y780D01*
X0Y779D02*
X7Y779D01*
X1135Y779D02*
X1142Y779D01*
X0Y778D02*
X7Y778D01*
X1135Y778D02*
X1142Y778D01*
X0Y777D02*
X7Y777D01*
X1135Y777D02*
X1142Y777D01*
X0Y776D02*
X7Y776D01*
X1135Y776D02*
X1142Y776D01*
X0Y775D02*
X7Y775D01*
X1135Y775D02*
X1142Y775D01*
X0Y774D02*
X7Y774D01*
X1135Y774D02*
X1142Y774D01*
X0Y773D02*
X7Y773D01*
X1135Y773D02*
X1142Y773D01*
X0Y772D02*
X7Y772D01*
X1135Y772D02*
X1142Y772D01*
X0Y771D02*
X7Y771D01*
X1135Y771D02*
X1142Y771D01*
X0Y770D02*
X7Y770D01*
X1135Y770D02*
X1142Y770D01*
X0Y769D02*
X7Y769D01*
X1135Y769D02*
X1142Y769D01*
X0Y768D02*
X7Y768D01*
X1135Y768D02*
X1142Y768D01*
X0Y767D02*
X7Y767D01*
X1135Y767D02*
X1142Y767D01*
X0Y766D02*
X7Y766D01*
X1135Y766D02*
X1142Y766D01*
X0Y765D02*
X7Y765D01*
X1135Y765D02*
X1142Y765D01*
X0Y764D02*
X7Y764D01*
X1135Y764D02*
X1142Y764D01*
X0Y763D02*
X7Y763D01*
X1135Y763D02*
X1142Y763D01*
X0Y762D02*
X7Y762D01*
X1135Y762D02*
X1142Y762D01*
X0Y761D02*
X7Y761D01*
X1135Y761D02*
X1142Y761D01*
X0Y760D02*
X7Y760D01*
X1135Y760D02*
X1142Y760D01*
X0Y759D02*
X7Y759D01*
X0Y758D02*
X7Y758D01*
X0Y757D02*
X7Y757D01*
X1135Y757D02*
X1142Y757D01*
X0Y756D02*
X7Y756D01*
X1135Y756D02*
X1142Y756D01*
X0Y755D02*
X7Y755D01*
X1135Y755D02*
X1142Y755D01*
X0Y754D02*
X7Y754D01*
X1135Y754D02*
X1142Y754D01*
X0Y753D02*
X7Y753D01*
X1135Y753D02*
X1142Y753D01*
X0Y752D02*
X7Y752D01*
X1135Y752D02*
X1142Y752D01*
X0Y751D02*
X7Y751D01*
X1135Y751D02*
X1142Y751D01*
X0Y750D02*
X7Y750D01*
X1135Y750D02*
X1142Y750D01*
X0Y749D02*
X7Y749D01*
X1135Y749D02*
X1142Y749D01*
X0Y748D02*
X7Y748D01*
X1135Y748D02*
X1142Y748D01*
X0Y747D02*
X7Y747D01*
X1135Y747D02*
X1142Y747D01*
X0Y746D02*
X7Y746D01*
X1135Y746D02*
X1142Y746D01*
X0Y745D02*
X7Y745D01*
X1135Y745D02*
X1142Y745D01*
X0Y744D02*
X7Y744D01*
X1135Y744D02*
X1142Y744D01*
X0Y743D02*
X7Y743D01*
X1135Y743D02*
X1142Y743D01*
X0Y742D02*
X7Y742D01*
X1135Y742D02*
X1142Y742D01*
X0Y741D02*
X7Y741D01*
X1135Y741D02*
X1142Y741D01*
X0Y740D02*
X7Y740D01*
X1135Y740D02*
X1142Y740D01*
X0Y739D02*
X7Y739D01*
X1135Y739D02*
X1142Y739D01*
X0Y738D02*
X7Y738D01*
X1135Y738D02*
X1142Y738D01*
X0Y737D02*
X7Y737D01*
X1135Y737D02*
X1142Y737D01*
X0Y736D02*
X7Y736D01*
X0Y735D02*
X7Y735D01*
X0Y734D02*
X7Y734D01*
X0Y733D02*
X7Y733D01*
X0Y732D02*
X7Y732D01*
X0Y731D02*
X7Y731D01*
X0Y730D02*
X7Y730D01*
X1135Y730D02*
X1142Y730D01*
X0Y729D02*
X7Y729D01*
X1135Y729D02*
X1142Y729D01*
X0Y728D02*
X7Y728D01*
X1135Y728D02*
X1142Y728D01*
X0Y727D02*
X7Y727D01*
X1135Y727D02*
X1142Y727D01*
X0Y726D02*
X7Y726D01*
X1135Y726D02*
X1142Y726D01*
X0Y725D02*
X7Y725D01*
X1135Y725D02*
X1142Y725D01*
X0Y724D02*
X7Y724D01*
X1135Y724D02*
X1142Y724D01*
X0Y723D02*
X7Y723D01*
X1135Y723D02*
X1142Y723D01*
X0Y722D02*
X7Y722D01*
X1135Y722D02*
X1142Y722D01*
X0Y721D02*
X7Y721D01*
X1135Y721D02*
X1142Y721D01*
X0Y720D02*
X7Y720D01*
X1135Y720D02*
X1142Y720D01*
X0Y719D02*
X7Y719D01*
X1135Y719D02*
X1142Y719D01*
X0Y718D02*
X7Y718D01*
X1135Y718D02*
X1142Y718D01*
X0Y717D02*
X7Y717D01*
X1135Y717D02*
X1142Y717D01*
X0Y716D02*
X7Y716D01*
X1135Y716D02*
X1142Y716D01*
X0Y715D02*
X7Y715D01*
X1135Y715D02*
X1142Y715D01*
X0Y714D02*
X7Y714D01*
X1135Y714D02*
X1142Y714D01*
X0Y713D02*
X7Y713D01*
X1135Y713D02*
X1142Y713D01*
X0Y712D02*
X7Y712D01*
X1135Y712D02*
X1142Y712D01*
X0Y711D02*
X7Y711D01*
X1135Y711D02*
X1142Y711D01*
X0Y710D02*
X7Y710D01*
X1135Y710D02*
X1142Y710D01*
X0Y709D02*
X7Y709D01*
X1135Y709D02*
X1142Y709D01*
X0Y708D02*
X7Y708D01*
X1135Y708D02*
X1142Y708D01*
X0Y707D02*
X7Y707D01*
X1135Y707D02*
X1142Y707D01*
X0Y706D02*
X7Y706D01*
X1135Y706D02*
X1142Y706D01*
X0Y705D02*
X7Y705D01*
X1135Y705D02*
X1142Y705D01*
X0Y704D02*
X7Y704D01*
X1135Y704D02*
X1142Y704D01*
X0Y703D02*
X7Y703D01*
X1135Y703D02*
X1142Y703D01*
X0Y702D02*
X7Y702D01*
X1135Y702D02*
X1142Y702D01*
X0Y701D02*
X7Y701D01*
X1135Y701D02*
X1142Y701D01*
X0Y700D02*
X7Y700D01*
X1135Y700D02*
X1142Y700D01*
X0Y699D02*
X7Y699D01*
X1135Y699D02*
X1142Y699D01*
X0Y698D02*
X7Y698D01*
X1135Y698D02*
X1142Y698D01*
X0Y697D02*
X7Y697D01*
X1135Y697D02*
X1142Y697D01*
X0Y696D02*
X7Y696D01*
X1135Y696D02*
X1142Y696D01*
X0Y695D02*
X7Y695D01*
X1135Y695D02*
X1142Y695D01*
X0Y694D02*
X7Y694D01*
X1135Y694D02*
X1142Y694D01*
X0Y693D02*
X7Y693D01*
X1135Y693D02*
X1142Y693D01*
X0Y692D02*
X7Y692D01*
X1135Y692D02*
X1142Y692D01*
X0Y691D02*
X7Y691D01*
X1135Y691D02*
X1142Y691D01*
X0Y690D02*
X7Y690D01*
X1135Y690D02*
X1142Y690D01*
X0Y689D02*
X7Y689D01*
X1135Y689D02*
X1142Y689D01*
X0Y688D02*
X7Y688D01*
X1135Y688D02*
X1142Y688D01*
X0Y687D02*
X7Y687D01*
X1135Y687D02*
X1142Y687D01*
X0Y686D02*
X7Y686D01*
X1135Y686D02*
X1142Y686D01*
X0Y685D02*
X7Y685D01*
X1135Y685D02*
X1142Y685D01*
X0Y684D02*
X7Y684D01*
X1135Y684D02*
X1142Y684D01*
X0Y683D02*
X7Y683D01*
X1135Y683D02*
X1142Y683D01*
X0Y682D02*
X7Y682D01*
X1135Y682D02*
X1142Y682D01*
X0Y681D02*
X7Y681D01*
X1135Y681D02*
X1142Y681D01*
X0Y680D02*
X7Y680D01*
X1135Y680D02*
X1142Y680D01*
X0Y679D02*
X7Y679D01*
X1135Y679D02*
X1142Y679D01*
X0Y678D02*
X7Y678D01*
X1135Y678D02*
X1142Y678D01*
X0Y677D02*
X7Y677D01*
X1135Y677D02*
X1142Y677D01*
X0Y676D02*
X7Y676D01*
X1135Y676D02*
X1142Y676D01*
X0Y675D02*
X7Y675D01*
X1135Y675D02*
X1142Y675D01*
X0Y674D02*
X7Y674D01*
X1135Y674D02*
X1142Y674D01*
X0Y673D02*
X7Y673D01*
X1135Y673D02*
X1142Y673D01*
X0Y672D02*
X7Y672D01*
X1135Y672D02*
X1142Y672D01*
X0Y671D02*
X7Y671D01*
X1135Y671D02*
X1142Y671D01*
X0Y670D02*
X7Y670D01*
X1135Y670D02*
X1142Y670D01*
X0Y669D02*
X7Y669D01*
X1135Y669D02*
X1142Y669D01*
X0Y668D02*
X7Y668D01*
X1135Y668D02*
X1142Y668D01*
X0Y667D02*
X7Y667D01*
X1135Y667D02*
X1142Y667D01*
X0Y666D02*
X7Y666D01*
X1135Y666D02*
X1142Y666D01*
X0Y665D02*
X7Y665D01*
X230Y665D02*
X232Y665D01*
X251Y665D02*
X271Y665D01*
X281Y665D02*
X301Y665D01*
X312Y665D02*
X330Y665D01*
X341Y665D02*
X346Y665D01*
X358Y665D02*
X361Y665D01*
X372Y665D02*
X374Y665D01*
X388Y665D02*
X391Y665D01*
X1135Y665D02*
X1142Y665D01*
X0Y664D02*
X7Y664D01*
X229Y664D02*
X232Y664D01*
X251Y664D02*
X271Y664D01*
X281Y664D02*
X301Y664D01*
X311Y664D02*
X331Y664D01*
X341Y664D02*
X347Y664D01*
X358Y664D02*
X361Y664D01*
X371Y664D02*
X375Y664D01*
X388Y664D02*
X391Y664D01*
X1135Y664D02*
X1142Y664D01*
X0Y663D02*
X7Y663D01*
X229Y663D02*
X233Y663D01*
X251Y663D02*
X271Y663D01*
X281Y663D02*
X301Y663D01*
X311Y663D02*
X331Y663D01*
X341Y663D02*
X347Y663D01*
X358Y663D02*
X361Y663D01*
X371Y663D02*
X375Y663D01*
X388Y663D02*
X391Y663D01*
X1135Y663D02*
X1142Y663D01*
X0Y662D02*
X7Y662D01*
X229Y662D02*
X233Y662D01*
X251Y662D02*
X271Y662D01*
X281Y662D02*
X301Y662D01*
X312Y662D02*
X330Y662D01*
X341Y662D02*
X348Y662D01*
X358Y662D02*
X361Y662D01*
X371Y662D02*
X375Y662D01*
X388Y662D02*
X391Y662D01*
X1135Y662D02*
X1142Y662D01*
X0Y661D02*
X7Y661D01*
X228Y661D02*
X233Y661D01*
X251Y661D02*
X254Y661D01*
X259Y661D02*
X262Y661D01*
X268Y661D02*
X271Y661D01*
X281Y661D02*
X284Y661D01*
X289Y661D02*
X293Y661D01*
X298Y661D02*
X301Y661D01*
X319Y661D02*
X323Y661D01*
X341Y661D02*
X348Y661D01*
X358Y661D02*
X361Y661D01*
X371Y661D02*
X375Y661D01*
X388Y661D02*
X391Y661D01*
X1135Y661D02*
X1142Y661D01*
X0Y660D02*
X7Y660D01*
X228Y660D02*
X234Y660D01*
X251Y660D02*
X254Y660D01*
X259Y660D02*
X262Y660D01*
X268Y660D02*
X271Y660D01*
X281Y660D02*
X284Y660D01*
X289Y660D02*
X293Y660D01*
X298Y660D02*
X301Y660D01*
X319Y660D02*
X323Y660D01*
X341Y660D02*
X348Y660D01*
X358Y660D02*
X361Y660D01*
X371Y660D02*
X375Y660D01*
X387Y660D02*
X391Y660D01*
X1135Y660D02*
X1142Y660D01*
X0Y659D02*
X7Y659D01*
X228Y659D02*
X234Y659D01*
X251Y659D02*
X254Y659D01*
X259Y659D02*
X262Y659D01*
X268Y659D02*
X270Y659D01*
X282Y659D02*
X284Y659D01*
X289Y659D02*
X293Y659D01*
X298Y659D02*
X300Y659D01*
X319Y659D02*
X323Y659D01*
X341Y659D02*
X349Y659D01*
X358Y659D02*
X361Y659D01*
X372Y659D02*
X376Y659D01*
X386Y659D02*
X391Y659D01*
X1135Y659D02*
X1142Y659D01*
X0Y658D02*
X7Y658D01*
X227Y658D02*
X234Y658D01*
X259Y658D02*
X262Y658D01*
X289Y658D02*
X293Y658D01*
X319Y658D02*
X323Y658D01*
X341Y658D02*
X349Y658D01*
X358Y658D02*
X361Y658D01*
X373Y658D02*
X377Y658D01*
X386Y658D02*
X390Y658D01*
X1135Y658D02*
X1142Y658D01*
X0Y657D02*
X7Y657D01*
X227Y657D02*
X234Y657D01*
X259Y657D02*
X262Y657D01*
X289Y657D02*
X293Y657D01*
X319Y657D02*
X323Y657D01*
X341Y657D02*
X350Y657D01*
X358Y657D02*
X361Y657D01*
X373Y657D02*
X378Y657D01*
X385Y657D02*
X389Y657D01*
X1135Y657D02*
X1142Y657D01*
X0Y656D02*
X7Y656D01*
X227Y656D02*
X235Y656D01*
X259Y656D02*
X262Y656D01*
X289Y656D02*
X293Y656D01*
X319Y656D02*
X323Y656D01*
X341Y656D02*
X345Y656D01*
X347Y656D02*
X350Y656D01*
X358Y656D02*
X361Y656D01*
X374Y656D02*
X378Y656D01*
X384Y656D02*
X388Y656D01*
X0Y655D02*
X7Y655D01*
X227Y655D02*
X230Y655D01*
X232Y655D02*
X235Y655D01*
X259Y655D02*
X262Y655D01*
X289Y655D02*
X293Y655D01*
X319Y655D02*
X323Y655D01*
X341Y655D02*
X345Y655D01*
X347Y655D02*
X351Y655D01*
X358Y655D02*
X361Y655D01*
X375Y655D02*
X379Y655D01*
X383Y655D02*
X388Y655D01*
X0Y654D02*
X7Y654D01*
X226Y654D02*
X230Y654D01*
X232Y654D02*
X235Y654D01*
X259Y654D02*
X262Y654D01*
X289Y654D02*
X293Y654D01*
X319Y654D02*
X323Y654D01*
X341Y654D02*
X345Y654D01*
X347Y654D02*
X351Y654D01*
X358Y654D02*
X361Y654D01*
X376Y654D02*
X380Y654D01*
X383Y654D02*
X387Y654D01*
X0Y653D02*
X7Y653D01*
X226Y653D02*
X229Y653D01*
X232Y653D02*
X236Y653D01*
X259Y653D02*
X262Y653D01*
X289Y653D02*
X293Y653D01*
X319Y653D02*
X323Y653D01*
X341Y653D02*
X345Y653D01*
X348Y653D02*
X351Y653D01*
X358Y653D02*
X361Y653D01*
X376Y653D02*
X386Y653D01*
X0Y652D02*
X7Y652D01*
X226Y652D02*
X229Y652D01*
X232Y652D02*
X236Y652D01*
X259Y652D02*
X262Y652D01*
X289Y652D02*
X293Y652D01*
X319Y652D02*
X323Y652D01*
X341Y652D02*
X345Y652D01*
X348Y652D02*
X352Y652D01*
X358Y652D02*
X361Y652D01*
X377Y652D02*
X385Y652D01*
X712Y652D02*
X731Y652D01*
X744Y652D02*
X759Y652D01*
X772Y652D02*
X788Y652D01*
X0Y651D02*
X7Y651D01*
X225Y651D02*
X229Y651D01*
X233Y651D02*
X236Y651D01*
X259Y651D02*
X262Y651D01*
X289Y651D02*
X293Y651D01*
X319Y651D02*
X323Y651D01*
X341Y651D02*
X345Y651D01*
X349Y651D02*
X352Y651D01*
X358Y651D02*
X361Y651D01*
X378Y651D02*
X385Y651D01*
X712Y651D02*
X731Y651D01*
X743Y651D02*
X760Y651D01*
X772Y651D02*
X790Y651D01*
X0Y650D02*
X7Y650D01*
X225Y650D02*
X228Y650D01*
X233Y650D02*
X236Y650D01*
X259Y650D02*
X262Y650D01*
X289Y650D02*
X293Y650D01*
X319Y650D02*
X323Y650D01*
X341Y650D02*
X345Y650D01*
X349Y650D02*
X353Y650D01*
X358Y650D02*
X361Y650D01*
X379Y650D02*
X384Y650D01*
X712Y650D02*
X731Y650D01*
X742Y650D02*
X761Y650D01*
X772Y650D02*
X790Y650D01*
X1135Y650D02*
X1142Y650D01*
X0Y649D02*
X7Y649D01*
X225Y649D02*
X228Y649D01*
X233Y649D02*
X237Y649D01*
X259Y649D02*
X262Y649D01*
X289Y649D02*
X293Y649D01*
X319Y649D02*
X323Y649D01*
X341Y649D02*
X345Y649D01*
X350Y649D02*
X353Y649D01*
X358Y649D02*
X361Y649D01*
X380Y649D02*
X383Y649D01*
X712Y649D02*
X731Y649D01*
X742Y649D02*
X761Y649D01*
X772Y649D02*
X791Y649D01*
X1135Y649D02*
X1142Y649D01*
X0Y648D02*
X7Y648D01*
X224Y648D02*
X228Y648D01*
X234Y648D02*
X237Y648D01*
X259Y648D02*
X262Y648D01*
X289Y648D02*
X293Y648D01*
X319Y648D02*
X323Y648D01*
X341Y648D02*
X345Y648D01*
X350Y648D02*
X354Y648D01*
X358Y648D02*
X361Y648D01*
X380Y648D02*
X383Y648D01*
X712Y648D02*
X715Y648D01*
X742Y648D02*
X745Y648D01*
X758Y648D02*
X761Y648D01*
X772Y648D02*
X775Y648D01*
X788Y648D02*
X791Y648D01*
X1135Y648D02*
X1142Y648D01*
X0Y647D02*
X7Y647D01*
X224Y647D02*
X228Y647D01*
X234Y647D02*
X237Y647D01*
X259Y647D02*
X262Y647D01*
X289Y647D02*
X293Y647D01*
X319Y647D02*
X323Y647D01*
X341Y647D02*
X345Y647D01*
X350Y647D02*
X354Y647D01*
X358Y647D02*
X361Y647D01*
X380Y647D02*
X383Y647D01*
X712Y647D02*
X715Y647D01*
X742Y647D02*
X746Y647D01*
X758Y647D02*
X762Y647D01*
X772Y647D02*
X775Y647D01*
X788Y647D02*
X792Y647D01*
X1135Y647D02*
X1142Y647D01*
X0Y646D02*
X7Y646D01*
X224Y646D02*
X227Y646D01*
X234Y646D02*
X238Y646D01*
X259Y646D02*
X262Y646D01*
X289Y646D02*
X293Y646D01*
X319Y646D02*
X323Y646D01*
X341Y646D02*
X345Y646D01*
X351Y646D02*
X355Y646D01*
X358Y646D02*
X361Y646D01*
X380Y646D02*
X383Y646D01*
X712Y646D02*
X715Y646D01*
X742Y646D02*
X747Y646D01*
X759Y646D02*
X761Y646D01*
X772Y646D02*
X775Y646D01*
X788Y646D02*
X792Y646D01*
X1135Y646D02*
X1142Y646D01*
X0Y645D02*
X7Y645D01*
X224Y645D02*
X227Y645D01*
X234Y645D02*
X238Y645D01*
X259Y645D02*
X262Y645D01*
X289Y645D02*
X293Y645D01*
X319Y645D02*
X323Y645D01*
X341Y645D02*
X345Y645D01*
X351Y645D02*
X355Y645D01*
X358Y645D02*
X361Y645D01*
X380Y645D02*
X383Y645D01*
X712Y645D02*
X715Y645D01*
X743Y645D02*
X747Y645D01*
X772Y645D02*
X775Y645D01*
X788Y645D02*
X792Y645D01*
X1135Y645D02*
X1142Y645D01*
X0Y644D02*
X7Y644D01*
X223Y644D02*
X238Y644D01*
X259Y644D02*
X262Y644D01*
X289Y644D02*
X293Y644D01*
X319Y644D02*
X323Y644D01*
X341Y644D02*
X345Y644D01*
X352Y644D02*
X355Y644D01*
X358Y644D02*
X361Y644D01*
X380Y644D02*
X383Y644D01*
X712Y644D02*
X715Y644D01*
X744Y644D02*
X748Y644D01*
X772Y644D02*
X775Y644D01*
X788Y644D02*
X792Y644D01*
X1135Y644D02*
X1142Y644D01*
X0Y643D02*
X7Y643D01*
X223Y643D02*
X239Y643D01*
X259Y643D02*
X262Y643D01*
X289Y643D02*
X293Y643D01*
X319Y643D02*
X323Y643D01*
X341Y643D02*
X345Y643D01*
X352Y643D02*
X356Y643D01*
X358Y643D02*
X361Y643D01*
X380Y643D02*
X383Y643D01*
X712Y643D02*
X715Y643D01*
X744Y643D02*
X749Y643D01*
X772Y643D02*
X775Y643D01*
X788Y643D02*
X792Y643D01*
X1135Y643D02*
X1142Y643D01*
X0Y642D02*
X7Y642D01*
X223Y642D02*
X239Y642D01*
X259Y642D02*
X262Y642D01*
X289Y642D02*
X293Y642D01*
X319Y642D02*
X323Y642D01*
X341Y642D02*
X345Y642D01*
X353Y642D02*
X356Y642D01*
X358Y642D02*
X361Y642D01*
X380Y642D02*
X383Y642D01*
X712Y642D02*
X715Y642D01*
X745Y642D02*
X750Y642D01*
X772Y642D02*
X775Y642D01*
X788Y642D02*
X792Y642D01*
X1135Y642D02*
X1142Y642D01*
X0Y641D02*
X7Y641D01*
X222Y641D02*
X239Y641D01*
X259Y641D02*
X262Y641D01*
X289Y641D02*
X293Y641D01*
X319Y641D02*
X323Y641D01*
X341Y641D02*
X345Y641D01*
X353Y641D02*
X361Y641D01*
X380Y641D02*
X383Y641D01*
X712Y641D02*
X715Y641D01*
X746Y641D02*
X750Y641D01*
X772Y641D02*
X775Y641D01*
X788Y641D02*
X792Y641D01*
X1135Y641D02*
X1142Y641D01*
X0Y640D02*
X7Y640D01*
X222Y640D02*
X226Y640D01*
X236Y640D02*
X239Y640D01*
X259Y640D02*
X262Y640D01*
X289Y640D02*
X293Y640D01*
X319Y640D02*
X323Y640D01*
X341Y640D02*
X345Y640D01*
X354Y640D02*
X361Y640D01*
X380Y640D02*
X383Y640D01*
X712Y640D02*
X715Y640D01*
X747Y640D02*
X751Y640D01*
X772Y640D02*
X775Y640D01*
X788Y640D02*
X792Y640D01*
X1135Y640D02*
X1142Y640D01*
X0Y639D02*
X7Y639D01*
X222Y639D02*
X225Y639D01*
X236Y639D02*
X240Y639D01*
X259Y639D02*
X262Y639D01*
X289Y639D02*
X293Y639D01*
X319Y639D02*
X323Y639D01*
X341Y639D02*
X345Y639D01*
X354Y639D02*
X361Y639D01*
X380Y639D02*
X383Y639D01*
X712Y639D02*
X715Y639D01*
X748Y639D02*
X752Y639D01*
X772Y639D02*
X775Y639D01*
X788Y639D02*
X792Y639D01*
X1135Y639D02*
X1142Y639D01*
X0Y638D02*
X7Y638D01*
X222Y638D02*
X225Y638D01*
X237Y638D02*
X240Y638D01*
X259Y638D02*
X262Y638D01*
X289Y638D02*
X293Y638D01*
X319Y638D02*
X323Y638D01*
X341Y638D02*
X345Y638D01*
X354Y638D02*
X361Y638D01*
X380Y638D02*
X383Y638D01*
X712Y638D02*
X723Y638D01*
X748Y638D02*
X753Y638D01*
X772Y638D02*
X775Y638D01*
X788Y638D02*
X792Y638D01*
X1135Y638D02*
X1142Y638D01*
X0Y637D02*
X7Y637D01*
X221Y637D02*
X225Y637D01*
X237Y637D02*
X240Y637D01*
X259Y637D02*
X262Y637D01*
X289Y637D02*
X293Y637D01*
X312Y637D02*
X330Y637D01*
X341Y637D02*
X345Y637D01*
X355Y637D02*
X361Y637D01*
X380Y637D02*
X383Y637D01*
X712Y637D02*
X723Y637D01*
X749Y637D02*
X754Y637D01*
X772Y637D02*
X775Y637D01*
X787Y637D02*
X791Y637D01*
X1135Y637D02*
X1142Y637D01*
X0Y636D02*
X7Y636D01*
X221Y636D02*
X224Y636D01*
X237Y636D02*
X241Y636D01*
X259Y636D02*
X262Y636D01*
X289Y636D02*
X293Y636D01*
X311Y636D02*
X331Y636D01*
X341Y636D02*
X345Y636D01*
X355Y636D02*
X361Y636D01*
X380Y636D02*
X383Y636D01*
X712Y636D02*
X723Y636D01*
X750Y636D02*
X754Y636D01*
X772Y636D02*
X791Y636D01*
X1135Y636D02*
X1142Y636D01*
X0Y635D02*
X7Y635D01*
X221Y635D02*
X224Y635D01*
X238Y635D02*
X241Y635D01*
X259Y635D02*
X262Y635D01*
X289Y635D02*
X292Y635D01*
X311Y635D02*
X331Y635D01*
X341Y635D02*
X344Y635D01*
X356Y635D02*
X361Y635D01*
X380Y635D02*
X383Y635D01*
X712Y635D02*
X722Y635D01*
X751Y635D02*
X755Y635D01*
X772Y635D02*
X790Y635D01*
X1135Y635D02*
X1142Y635D01*
X0Y634D02*
X7Y634D01*
X221Y634D02*
X223Y634D01*
X238Y634D02*
X240Y634D01*
X260Y634D02*
X262Y634D01*
X290Y634D02*
X292Y634D01*
X312Y634D02*
X330Y634D01*
X342Y634D02*
X344Y634D01*
X356Y634D02*
X361Y634D01*
X380Y634D02*
X382Y634D01*
X712Y634D02*
X715Y634D01*
X751Y634D02*
X756Y634D01*
X772Y634D02*
X789Y634D01*
X1135Y634D02*
X1142Y634D01*
X0Y633D02*
X7Y633D01*
X712Y633D02*
X715Y633D01*
X752Y633D02*
X757Y633D01*
X772Y633D02*
X787Y633D01*
X1135Y633D02*
X1142Y633D01*
X0Y632D02*
X7Y632D01*
X712Y632D02*
X715Y632D01*
X753Y632D02*
X757Y632D01*
X772Y632D02*
X775Y632D01*
X1135Y632D02*
X1142Y632D01*
X0Y631D02*
X7Y631D01*
X712Y631D02*
X715Y631D01*
X754Y631D02*
X758Y631D01*
X772Y631D02*
X775Y631D01*
X1135Y631D02*
X1142Y631D01*
X0Y630D02*
X7Y630D01*
X712Y630D02*
X715Y630D01*
X755Y630D02*
X759Y630D01*
X772Y630D02*
X775Y630D01*
X1135Y630D02*
X1142Y630D01*
X0Y629D02*
X7Y629D01*
X712Y629D02*
X715Y629D01*
X755Y629D02*
X760Y629D01*
X772Y629D02*
X775Y629D01*
X0Y628D02*
X7Y628D01*
X712Y628D02*
X715Y628D01*
X756Y628D02*
X760Y628D01*
X772Y628D02*
X775Y628D01*
X0Y627D02*
X7Y627D01*
X712Y627D02*
X715Y627D01*
X742Y627D02*
X745Y627D01*
X757Y627D02*
X761Y627D01*
X772Y627D02*
X775Y627D01*
X1135Y627D02*
X1143Y627D01*
X0Y626D02*
X7Y626D01*
X712Y626D02*
X715Y626D01*
X742Y626D02*
X745Y626D01*
X758Y626D02*
X761Y626D01*
X772Y626D02*
X775Y626D01*
X1135Y626D02*
X1143Y626D01*
X0Y625D02*
X7Y625D01*
X712Y625D02*
X715Y625D01*
X742Y625D02*
X746Y625D01*
X758Y625D02*
X762Y625D01*
X772Y625D02*
X775Y625D01*
X1135Y625D02*
X1143Y625D01*
X0Y624D02*
X7Y624D01*
X712Y624D02*
X731Y624D01*
X742Y624D02*
X761Y624D01*
X772Y624D02*
X775Y624D01*
X1135Y624D02*
X1143Y624D01*
X0Y623D02*
X7Y623D01*
X712Y623D02*
X731Y623D01*
X743Y623D02*
X761Y623D01*
X772Y623D02*
X775Y623D01*
X1135Y623D02*
X1143Y623D01*
X0Y622D02*
X7Y622D01*
X677Y622D02*
X677Y622D01*
X712Y622D02*
X731Y622D01*
X744Y622D02*
X760Y622D01*
X772Y622D02*
X775Y622D01*
X1135Y622D02*
X1143Y622D01*
X0Y621D02*
X7Y621D01*
X675Y621D02*
X679Y621D01*
X712Y621D02*
X731Y621D01*
X745Y621D02*
X759Y621D01*
X773Y621D02*
X774Y621D01*
X1135Y621D02*
X1143Y621D01*
X0Y620D02*
X7Y620D01*
X674Y620D02*
X680Y620D01*
X1135Y620D02*
X1143Y620D01*
X0Y619D02*
X7Y619D01*
X673Y619D02*
X681Y619D01*
X1135Y619D02*
X1143Y619D01*
X0Y618D02*
X7Y618D01*
X672Y618D02*
X681Y618D01*
X987Y618D02*
X989Y618D01*
X1004Y618D02*
X1005Y618D01*
X1017Y618D02*
X1034Y618D01*
X1047Y618D02*
X1064Y618D01*
X1135Y618D02*
X1143Y618D01*
X0Y617D02*
X7Y617D01*
X671Y617D02*
X681Y617D01*
X986Y617D02*
X989Y617D01*
X1003Y617D02*
X1006Y617D01*
X1017Y617D02*
X1035Y617D01*
X1047Y617D02*
X1065Y617D01*
X1135Y617D02*
X1143Y617D01*
X0Y616D02*
X7Y616D01*
X670Y616D02*
X680Y616D01*
X986Y616D02*
X990Y616D01*
X1003Y616D02*
X1006Y616D01*
X1017Y616D02*
X1036Y616D01*
X1047Y616D02*
X1066Y616D01*
X1135Y616D02*
X1143Y616D01*
X0Y615D02*
X7Y615D01*
X669Y615D02*
X679Y615D01*
X986Y615D02*
X990Y615D01*
X1003Y615D02*
X1006Y615D01*
X1017Y615D02*
X1036Y615D01*
X1047Y615D02*
X1066Y615D01*
X1135Y615D02*
X1143Y615D01*
X0Y614D02*
X7Y614D01*
X668Y614D02*
X678Y614D01*
X986Y614D02*
X990Y614D01*
X1003Y614D02*
X1006Y614D01*
X1033Y614D02*
X1036Y614D01*
X1063Y614D02*
X1066Y614D01*
X1135Y614D02*
X1143Y614D01*
X0Y613D02*
X7Y613D01*
X667Y613D02*
X677Y613D01*
X986Y613D02*
X990Y613D01*
X1003Y613D02*
X1006Y613D01*
X1033Y613D02*
X1036Y613D01*
X1063Y613D02*
X1066Y613D01*
X1135Y613D02*
X1143Y613D01*
X0Y612D02*
X7Y612D01*
X666Y612D02*
X676Y612D01*
X986Y612D02*
X990Y612D01*
X1003Y612D02*
X1006Y612D01*
X1033Y612D02*
X1036Y612D01*
X1063Y612D02*
X1066Y612D01*
X1135Y612D02*
X1143Y612D01*
X0Y611D02*
X7Y611D01*
X665Y611D02*
X675Y611D01*
X986Y611D02*
X990Y611D01*
X1003Y611D02*
X1006Y611D01*
X1033Y611D02*
X1036Y611D01*
X1063Y611D02*
X1066Y611D01*
X1135Y611D02*
X1143Y611D01*
X0Y610D02*
X7Y610D01*
X986Y610D02*
X990Y610D01*
X1003Y610D02*
X1006Y610D01*
X1033Y610D02*
X1036Y610D01*
X1063Y610D02*
X1066Y610D01*
X1135Y610D02*
X1143Y610D01*
X0Y609D02*
X7Y609D01*
X986Y609D02*
X990Y609D01*
X1003Y609D02*
X1006Y609D01*
X1033Y609D02*
X1036Y609D01*
X1063Y609D02*
X1066Y609D01*
X1135Y609D02*
X1143Y609D01*
X0Y608D02*
X7Y608D01*
X987Y608D02*
X990Y608D01*
X1002Y608D02*
X1006Y608D01*
X1033Y608D02*
X1036Y608D01*
X1063Y608D02*
X1066Y608D01*
X1135Y608D02*
X1143Y608D01*
X0Y607D02*
X7Y607D01*
X987Y607D02*
X991Y607D01*
X1002Y607D02*
X1005Y607D01*
X1033Y607D02*
X1036Y607D01*
X1063Y607D02*
X1066Y607D01*
X1135Y607D02*
X1143Y607D01*
X0Y606D02*
X7Y606D01*
X660Y606D02*
X660Y606D01*
X988Y606D02*
X991Y606D01*
X1001Y606D02*
X1005Y606D01*
X1033Y606D02*
X1036Y606D01*
X1063Y606D02*
X1066Y606D01*
X1135Y606D02*
X1143Y606D01*
X0Y605D02*
X7Y605D01*
X659Y605D02*
X660Y605D01*
X988Y605D02*
X991Y605D01*
X1001Y605D02*
X1004Y605D01*
X1032Y605D02*
X1036Y605D01*
X1062Y605D02*
X1066Y605D01*
X1135Y605D02*
X1143Y605D01*
X0Y604D02*
X7Y604D01*
X658Y604D02*
X660Y604D01*
X988Y604D02*
X992Y604D01*
X1001Y604D02*
X1004Y604D01*
X1021Y604D02*
X1036Y604D01*
X1051Y604D02*
X1066Y604D01*
X1135Y604D02*
X1143Y604D01*
X0Y603D02*
X7Y603D01*
X657Y603D02*
X660Y603D01*
X989Y603D02*
X992Y603D01*
X1000Y603D02*
X1004Y603D01*
X1021Y603D02*
X1035Y603D01*
X1051Y603D02*
X1065Y603D01*
X1135Y603D02*
X1143Y603D01*
X0Y602D02*
X7Y602D01*
X656Y602D02*
X660Y602D01*
X989Y602D02*
X993Y602D01*
X1000Y602D02*
X1003Y602D01*
X1021Y602D02*
X1035Y602D01*
X1051Y602D02*
X1065Y602D01*
X1135Y602D02*
X1143Y602D01*
X0Y601D02*
X7Y601D01*
X655Y601D02*
X660Y601D01*
X989Y601D02*
X993Y601D01*
X999Y601D02*
X1003Y601D01*
X1021Y601D02*
X1035Y601D01*
X1051Y601D02*
X1066Y601D01*
X1135Y601D02*
X1143Y601D01*
X0Y600D02*
X7Y600D01*
X654Y600D02*
X660Y600D01*
X990Y600D02*
X993Y600D01*
X999Y600D02*
X1003Y600D01*
X1032Y600D02*
X1036Y600D01*
X1062Y600D02*
X1066Y600D01*
X1135Y600D02*
X1143Y600D01*
X0Y599D02*
X7Y599D01*
X653Y599D02*
X660Y599D01*
X990Y599D02*
X994Y599D01*
X999Y599D02*
X1002Y599D01*
X1033Y599D02*
X1036Y599D01*
X1063Y599D02*
X1066Y599D01*
X1135Y599D02*
X1143Y599D01*
X0Y598D02*
X7Y598D01*
X652Y598D02*
X660Y598D01*
X991Y598D02*
X994Y598D01*
X998Y598D02*
X1002Y598D01*
X1033Y598D02*
X1036Y598D01*
X1063Y598D02*
X1066Y598D01*
X1135Y598D02*
X1143Y598D01*
X0Y597D02*
X7Y597D01*
X651Y597D02*
X660Y597D01*
X991Y597D02*
X995Y597D01*
X998Y597D02*
X1001Y597D01*
X1033Y597D02*
X1036Y597D01*
X1063Y597D02*
X1066Y597D01*
X1135Y597D02*
X1143Y597D01*
X0Y596D02*
X7Y596D01*
X650Y596D02*
X660Y596D01*
X991Y596D02*
X995Y596D01*
X997Y596D02*
X1001Y596D01*
X1033Y596D02*
X1036Y596D01*
X1063Y596D02*
X1066Y596D01*
X1135Y596D02*
X1143Y596D01*
X0Y595D02*
X7Y595D01*
X649Y595D02*
X659Y595D01*
X992Y595D02*
X995Y595D01*
X997Y595D02*
X1001Y595D01*
X1033Y595D02*
X1036Y595D01*
X1063Y595D02*
X1066Y595D01*
X1135Y595D02*
X1143Y595D01*
X0Y594D02*
X7Y594D01*
X649Y594D02*
X658Y594D01*
X992Y594D02*
X1000Y594D01*
X1033Y594D02*
X1036Y594D01*
X1063Y594D02*
X1066Y594D01*
X1135Y594D02*
X1143Y594D01*
X0Y593D02*
X7Y593D01*
X649Y593D02*
X657Y593D01*
X993Y593D02*
X1000Y593D01*
X1033Y593D02*
X1036Y593D01*
X1063Y593D02*
X1066Y593D01*
X1135Y593D02*
X1143Y593D01*
X0Y592D02*
X7Y592D01*
X649Y592D02*
X656Y592D01*
X993Y592D02*
X999Y592D01*
X1033Y592D02*
X1036Y592D01*
X1063Y592D02*
X1066Y592D01*
X1135Y592D02*
X1143Y592D01*
X0Y591D02*
X7Y591D01*
X649Y591D02*
X655Y591D01*
X993Y591D02*
X999Y591D01*
X1033Y591D02*
X1036Y591D01*
X1063Y591D02*
X1066Y591D01*
X1135Y591D02*
X1143Y591D01*
X0Y590D02*
X7Y590D01*
X650Y590D02*
X654Y590D01*
X994Y590D02*
X999Y590D01*
X1017Y590D02*
X1036Y590D01*
X1048Y590D02*
X1066Y590D01*
X1135Y590D02*
X1143Y590D01*
X0Y589D02*
X7Y589D01*
X652Y589D02*
X652Y589D01*
X994Y589D02*
X998Y589D01*
X1017Y589D02*
X1036Y589D01*
X1047Y589D02*
X1066Y589D01*
X1135Y589D02*
X1143Y589D01*
X0Y588D02*
X7Y588D01*
X995Y588D02*
X998Y588D01*
X1017Y588D02*
X1035Y588D01*
X1047Y588D02*
X1065Y588D01*
X1135Y588D02*
X1143Y588D01*
X0Y587D02*
X7Y587D01*
X995Y587D02*
X997Y587D01*
X1017Y587D02*
X1034Y587D01*
X1047Y587D02*
X1064Y587D01*
X1135Y587D02*
X1143Y587D01*
X0Y586D02*
X7Y586D01*
X1135Y586D02*
X1143Y586D01*
X0Y585D02*
X7Y585D01*
X1135Y585D02*
X1143Y585D01*
X0Y584D02*
X7Y584D01*
X1135Y584D02*
X1143Y584D01*
X0Y583D02*
X7Y583D01*
X1135Y583D02*
X1143Y583D01*
X0Y582D02*
X7Y582D01*
X1135Y582D02*
X1143Y582D01*
X0Y581D02*
X7Y581D01*
X1135Y581D02*
X1143Y581D01*
X0Y580D02*
X7Y580D01*
X1135Y580D02*
X1143Y580D01*
X0Y579D02*
X7Y579D01*
X1135Y579D02*
X1143Y579D01*
X0Y578D02*
X7Y578D01*
X1135Y578D02*
X1143Y578D01*
X0Y577D02*
X7Y577D01*
X1135Y577D02*
X1143Y577D01*
X0Y576D02*
X7Y576D01*
X1135Y576D02*
X1143Y576D01*
X0Y575D02*
X7Y575D01*
X1135Y575D02*
X1143Y575D01*
X0Y574D02*
X7Y574D01*
X1135Y574D02*
X1143Y574D01*
X0Y573D02*
X7Y573D01*
X1135Y573D02*
X1143Y573D01*
X0Y572D02*
X7Y572D01*
X1135Y572D02*
X1143Y572D01*
X0Y571D02*
X7Y571D01*
X1135Y571D02*
X1143Y571D01*
X0Y570D02*
X7Y570D01*
X1135Y570D02*
X1143Y570D01*
X0Y569D02*
X7Y569D01*
X1135Y569D02*
X1143Y569D01*
X0Y568D02*
X7Y568D01*
X1135Y568D02*
X1143Y568D01*
X0Y567D02*
X7Y567D01*
X1135Y567D02*
X1143Y567D01*
X0Y566D02*
X7Y566D01*
X1135Y566D02*
X1143Y566D01*
X0Y565D02*
X7Y565D01*
X1135Y565D02*
X1143Y565D01*
X0Y564D02*
X7Y564D01*
X1135Y564D02*
X1143Y564D01*
X0Y563D02*
X7Y563D01*
X1135Y563D02*
X1143Y563D01*
X0Y562D02*
X7Y562D01*
X1135Y562D02*
X1143Y562D01*
X0Y561D02*
X7Y561D01*
X1135Y561D02*
X1143Y561D01*
X0Y560D02*
X7Y560D01*
X1135Y560D02*
X1143Y560D01*
X0Y559D02*
X7Y559D01*
X1135Y559D02*
X1143Y559D01*
X0Y558D02*
X7Y558D01*
X1135Y558D02*
X1143Y558D01*
X0Y557D02*
X7Y557D01*
X1135Y557D02*
X1143Y557D01*
X0Y556D02*
X7Y556D01*
X1135Y556D02*
X1143Y556D01*
X0Y555D02*
X7Y555D01*
X1135Y555D02*
X1143Y555D01*
X0Y554D02*
X7Y554D01*
X1135Y554D02*
X1143Y554D01*
X0Y553D02*
X7Y553D01*
X1135Y553D02*
X1143Y553D01*
X0Y552D02*
X7Y552D01*
X1135Y552D02*
X1143Y552D01*
X0Y551D02*
X7Y551D01*
X1135Y551D02*
X1143Y551D01*
X0Y550D02*
X7Y550D01*
X1135Y550D02*
X1143Y550D01*
X0Y549D02*
X7Y549D01*
X1135Y549D02*
X1143Y549D01*
X0Y548D02*
X7Y548D01*
X1135Y548D02*
X1143Y548D01*
X0Y547D02*
X7Y547D01*
X1135Y547D02*
X1143Y547D01*
X0Y546D02*
X7Y546D01*
X651Y546D02*
X654Y546D01*
X1135Y546D02*
X1143Y546D01*
X0Y545D02*
X7Y545D01*
X650Y545D02*
X655Y545D01*
X1135Y545D02*
X1143Y545D01*
X0Y544D02*
X7Y544D01*
X649Y544D02*
X656Y544D01*
X1135Y544D02*
X1143Y544D01*
X0Y543D02*
X7Y543D01*
X649Y543D02*
X657Y543D01*
X1135Y543D02*
X1143Y543D01*
X0Y542D02*
X7Y542D01*
X649Y542D02*
X658Y542D01*
X1135Y542D02*
X1143Y542D01*
X0Y541D02*
X7Y541D01*
X649Y541D02*
X659Y541D01*
X1135Y541D02*
X1143Y541D01*
X0Y540D02*
X7Y540D01*
X650Y540D02*
X660Y540D01*
X1135Y540D02*
X1143Y540D01*
X0Y539D02*
X7Y539D01*
X651Y539D02*
X660Y539D01*
X1135Y539D02*
X1143Y539D01*
X0Y538D02*
X7Y538D01*
X652Y538D02*
X660Y538D01*
X1135Y538D02*
X1143Y538D01*
X0Y537D02*
X7Y537D01*
X653Y537D02*
X660Y537D01*
X1135Y537D02*
X1143Y537D01*
X0Y536D02*
X7Y536D01*
X654Y536D02*
X660Y536D01*
X1135Y536D02*
X1143Y536D01*
X0Y535D02*
X7Y535D01*
X655Y535D02*
X660Y535D01*
X1135Y535D02*
X1143Y535D01*
X0Y534D02*
X7Y534D01*
X656Y534D02*
X660Y534D01*
X1135Y534D02*
X1143Y534D01*
X0Y533D02*
X7Y533D01*
X657Y533D02*
X660Y533D01*
X1135Y533D02*
X1143Y533D01*
X0Y532D02*
X7Y532D01*
X658Y532D02*
X660Y532D01*
X1135Y532D02*
X1143Y532D01*
X0Y531D02*
X7Y531D01*
X659Y531D02*
X660Y531D01*
X1135Y531D02*
X1143Y531D01*
X0Y530D02*
X7Y530D01*
X660Y530D02*
X660Y530D01*
X1135Y530D02*
X1143Y530D01*
X0Y529D02*
X7Y529D01*
X1135Y529D02*
X1143Y529D01*
X0Y528D02*
X7Y528D01*
X1135Y528D02*
X1143Y528D01*
X0Y527D02*
X7Y527D01*
X1135Y527D02*
X1143Y527D01*
X0Y526D02*
X7Y526D01*
X1135Y526D02*
X1143Y526D01*
X0Y525D02*
X7Y525D01*
X665Y525D02*
X675Y525D01*
X1135Y525D02*
X1143Y525D01*
X0Y524D02*
X7Y524D01*
X666Y524D02*
X676Y524D01*
X1135Y524D02*
X1143Y524D01*
X0Y523D02*
X7Y523D01*
X667Y523D02*
X677Y523D01*
X1135Y523D02*
X1143Y523D01*
X0Y522D02*
X7Y522D01*
X668Y522D02*
X678Y522D01*
X1135Y522D02*
X1143Y522D01*
X0Y521D02*
X7Y521D01*
X669Y521D02*
X679Y521D01*
X1135Y521D02*
X1143Y521D01*
X0Y520D02*
X7Y520D01*
X670Y520D02*
X680Y520D01*
X1135Y520D02*
X1143Y520D01*
X0Y519D02*
X7Y519D01*
X671Y519D02*
X680Y519D01*
X1135Y519D02*
X1143Y519D01*
X0Y518D02*
X7Y518D01*
X672Y518D02*
X681Y518D01*
X1135Y518D02*
X1143Y518D01*
X0Y517D02*
X7Y517D01*
X673Y517D02*
X681Y517D01*
X1135Y517D02*
X1143Y517D01*
X0Y516D02*
X7Y516D01*
X674Y516D02*
X680Y516D01*
X1135Y516D02*
X1143Y516D01*
X0Y515D02*
X7Y515D01*
X675Y515D02*
X680Y515D01*
X1135Y515D02*
X1143Y515D01*
X0Y514D02*
X7Y514D01*
X676Y514D02*
X679Y514D01*
X1135Y514D02*
X1143Y514D01*
X0Y513D02*
X7Y513D01*
X1135Y513D02*
X1143Y513D01*
X0Y512D02*
X7Y512D01*
X1135Y512D02*
X1143Y512D01*
X0Y511D02*
X7Y511D01*
X1135Y511D02*
X1143Y511D01*
X0Y510D02*
X7Y510D01*
X1135Y510D02*
X1143Y510D01*
X0Y509D02*
X7Y509D01*
X1135Y509D02*
X1143Y509D01*
X0Y508D02*
X7Y508D01*
X1135Y508D02*
X1143Y508D01*
X0Y507D02*
X7Y507D01*
X1135Y507D02*
X1143Y507D01*
X0Y506D02*
X7Y506D01*
X1135Y506D02*
X1143Y506D01*
X0Y505D02*
X7Y505D01*
X1135Y505D02*
X1143Y505D01*
X0Y504D02*
X7Y504D01*
X1135Y504D02*
X1143Y504D01*
X0Y503D02*
X7Y503D01*
X1135Y503D02*
X1143Y503D01*
X0Y502D02*
X7Y502D01*
X1135Y502D02*
X1143Y502D01*
X0Y501D02*
X7Y501D01*
X1135Y501D02*
X1143Y501D01*
X0Y500D02*
X7Y500D01*
X1135Y500D02*
X1143Y500D01*
X0Y499D02*
X7Y499D01*
X1135Y499D02*
X1143Y499D01*
X0Y498D02*
X7Y498D01*
X1135Y498D02*
X1143Y498D01*
X0Y497D02*
X7Y497D01*
X1135Y497D02*
X1143Y497D01*
X0Y496D02*
X7Y496D01*
X1135Y496D02*
X1143Y496D01*
X0Y495D02*
X7Y495D01*
X1135Y495D02*
X1143Y495D01*
X0Y494D02*
X7Y494D01*
X1135Y494D02*
X1143Y494D01*
X0Y493D02*
X7Y493D01*
X1135Y493D02*
X1143Y493D01*
X0Y492D02*
X7Y492D01*
X1135Y492D02*
X1143Y492D01*
X0Y491D02*
X7Y491D01*
X1135Y491D02*
X1143Y491D01*
X0Y490D02*
X7Y490D01*
X1135Y490D02*
X1143Y490D01*
X0Y489D02*
X7Y489D01*
X1135Y489D02*
X1143Y489D01*
X0Y488D02*
X7Y488D01*
X1135Y488D02*
X1143Y488D01*
X0Y487D02*
X7Y487D01*
X1135Y487D02*
X1143Y487D01*
X0Y486D02*
X7Y486D01*
X1135Y486D02*
X1143Y486D01*
X0Y485D02*
X7Y485D01*
X1135Y485D02*
X1143Y485D01*
X0Y484D02*
X7Y484D01*
X1135Y484D02*
X1143Y484D01*
X0Y483D02*
X7Y483D01*
X1135Y483D02*
X1143Y483D01*
X0Y482D02*
X7Y482D01*
X1135Y482D02*
X1143Y482D01*
X0Y481D02*
X7Y481D01*
X1135Y481D02*
X1143Y481D01*
X0Y480D02*
X7Y480D01*
X1135Y480D02*
X1143Y480D01*
X0Y479D02*
X7Y479D01*
X1135Y479D02*
X1143Y479D01*
X0Y478D02*
X7Y478D01*
X1135Y478D02*
X1143Y478D01*
X0Y477D02*
X7Y477D01*
X1135Y477D02*
X1143Y477D01*
X0Y476D02*
X7Y476D01*
X1135Y476D02*
X1143Y476D01*
X0Y475D02*
X7Y475D01*
X1135Y475D02*
X1143Y475D01*
X0Y474D02*
X7Y474D01*
X1135Y474D02*
X1143Y474D01*
X0Y473D02*
X7Y473D01*
X1135Y473D02*
X1143Y473D01*
X0Y472D02*
X7Y472D01*
X1135Y472D02*
X1143Y472D01*
X0Y471D02*
X7Y471D01*
X1135Y471D02*
X1143Y471D01*
X0Y470D02*
X7Y470D01*
X1135Y470D02*
X1143Y470D01*
X0Y469D02*
X7Y469D01*
X1135Y469D02*
X1143Y469D01*
X0Y468D02*
X7Y468D01*
X1135Y468D02*
X1143Y468D01*
X0Y467D02*
X7Y467D01*
X1135Y467D02*
X1143Y467D01*
X0Y466D02*
X7Y466D01*
X1135Y466D02*
X1143Y466D01*
X0Y465D02*
X7Y465D01*
X1135Y465D02*
X1143Y465D01*
X0Y464D02*
X7Y464D01*
X1135Y464D02*
X1143Y464D01*
X0Y463D02*
X7Y463D01*
X1135Y463D02*
X1143Y463D01*
X0Y462D02*
X7Y462D01*
X1135Y462D02*
X1143Y462D01*
X0Y461D02*
X7Y461D01*
X1135Y461D02*
X1143Y461D01*
X0Y460D02*
X7Y460D01*
X1135Y460D02*
X1143Y460D01*
X0Y459D02*
X7Y459D01*
X1135Y459D02*
X1143Y459D01*
X0Y458D02*
X7Y458D01*
X1135Y458D02*
X1143Y458D01*
X0Y457D02*
X7Y457D01*
X1135Y457D02*
X1143Y457D01*
X0Y456D02*
X7Y456D01*
X1135Y456D02*
X1143Y456D01*
X0Y455D02*
X7Y455D01*
X1135Y455D02*
X1143Y455D01*
X0Y454D02*
X7Y454D01*
X1135Y454D02*
X1143Y454D01*
X0Y453D02*
X7Y453D01*
X1135Y453D02*
X1143Y453D01*
X0Y452D02*
X7Y452D01*
X1135Y452D02*
X1143Y452D01*
X0Y451D02*
X7Y451D01*
X1135Y451D02*
X1143Y451D01*
X0Y450D02*
X7Y450D01*
X1135Y450D02*
X1143Y450D01*
X0Y449D02*
X7Y449D01*
X1135Y449D02*
X1143Y449D01*
X0Y448D02*
X7Y448D01*
X1135Y448D02*
X1143Y448D01*
X0Y447D02*
X7Y447D01*
X1135Y447D02*
X1143Y447D01*
X0Y446D02*
X7Y446D01*
X1135Y446D02*
X1143Y446D01*
X0Y445D02*
X7Y445D01*
X1135Y445D02*
X1143Y445D01*
X0Y444D02*
X7Y444D01*
X1135Y444D02*
X1143Y444D01*
X0Y443D02*
X7Y443D01*
X1135Y443D02*
X1143Y443D01*
X0Y442D02*
X7Y442D01*
X1135Y442D02*
X1143Y442D01*
X0Y441D02*
X7Y441D01*
X1135Y441D02*
X1143Y441D01*
X0Y440D02*
X7Y440D01*
X1135Y440D02*
X1143Y440D01*
X0Y439D02*
X7Y439D01*
X1135Y439D02*
X1143Y439D01*
X0Y438D02*
X7Y438D01*
X1135Y438D02*
X1143Y438D01*
X0Y437D02*
X7Y437D01*
X1135Y437D02*
X1143Y437D01*
X0Y436D02*
X7Y436D01*
X1135Y436D02*
X1143Y436D01*
X0Y435D02*
X7Y435D01*
X1135Y435D02*
X1143Y435D01*
X0Y434D02*
X7Y434D01*
X1135Y434D02*
X1143Y434D01*
X0Y433D02*
X7Y433D01*
X1135Y433D02*
X1143Y433D01*
X0Y432D02*
X7Y432D01*
X1135Y432D02*
X1143Y432D01*
X0Y431D02*
X7Y431D01*
X1135Y431D02*
X1143Y431D01*
X0Y430D02*
X7Y430D01*
X1135Y430D02*
X1143Y430D01*
X0Y429D02*
X7Y429D01*
X1135Y429D02*
X1143Y429D01*
X0Y428D02*
X7Y428D01*
X1135Y428D02*
X1143Y428D01*
X0Y427D02*
X7Y427D01*
X1135Y427D02*
X1143Y427D01*
X0Y426D02*
X7Y426D01*
X1135Y426D02*
X1143Y426D01*
X0Y425D02*
X7Y425D01*
X1135Y425D02*
X1143Y425D01*
X0Y424D02*
X7Y424D01*
X1135Y424D02*
X1143Y424D01*
X0Y423D02*
X7Y423D01*
X1135Y423D02*
X1143Y423D01*
X0Y422D02*
X7Y422D01*
X1135Y422D02*
X1143Y422D01*
X0Y421D02*
X7Y421D01*
X1135Y421D02*
X1143Y421D01*
X0Y420D02*
X7Y420D01*
X1135Y420D02*
X1143Y420D01*
X0Y419D02*
X7Y419D01*
X1135Y419D02*
X1143Y419D01*
X0Y418D02*
X7Y418D01*
X1135Y418D02*
X1143Y418D01*
X0Y417D02*
X7Y417D01*
X1135Y417D02*
X1143Y417D01*
X0Y416D02*
X7Y416D01*
X1135Y416D02*
X1143Y416D01*
X0Y415D02*
X7Y415D01*
X1135Y415D02*
X1143Y415D01*
X0Y414D02*
X7Y414D01*
X1135Y414D02*
X1143Y414D01*
X0Y413D02*
X7Y413D01*
X1135Y413D02*
X1143Y413D01*
X0Y412D02*
X7Y412D01*
X1135Y412D02*
X1143Y412D01*
X0Y411D02*
X7Y411D01*
X1135Y411D02*
X1143Y411D01*
X0Y410D02*
X7Y410D01*
X1135Y410D02*
X1143Y410D01*
X0Y409D02*
X7Y409D01*
X1135Y409D02*
X1143Y409D01*
X0Y408D02*
X7Y408D01*
X1135Y408D02*
X1143Y408D01*
X0Y407D02*
X7Y407D01*
X1135Y407D02*
X1143Y407D01*
X0Y406D02*
X7Y406D01*
X1135Y406D02*
X1143Y406D01*
X0Y405D02*
X7Y405D01*
X1135Y405D02*
X1143Y405D01*
X0Y404D02*
X7Y404D01*
X1135Y404D02*
X1143Y404D01*
X0Y403D02*
X7Y403D01*
X1135Y403D02*
X1143Y403D01*
X0Y402D02*
X7Y402D01*
X1135Y402D02*
X1143Y402D01*
X0Y401D02*
X7Y401D01*
X1135Y401D02*
X1143Y401D01*
X0Y400D02*
X7Y400D01*
X1135Y400D02*
X1143Y400D01*
X0Y399D02*
X7Y399D01*
X1135Y399D02*
X1143Y399D01*
X0Y398D02*
X7Y398D01*
X1135Y398D02*
X1143Y398D01*
X0Y397D02*
X7Y397D01*
X1135Y397D02*
X1143Y397D01*
X0Y396D02*
X7Y396D01*
X1135Y396D02*
X1143Y396D01*
X0Y395D02*
X7Y395D01*
X1135Y395D02*
X1143Y395D01*
X0Y394D02*
X7Y394D01*
X1135Y394D02*
X1143Y394D01*
X0Y393D02*
X7Y393D01*
X1135Y393D02*
X1143Y393D01*
X0Y392D02*
X7Y392D01*
X1135Y392D02*
X1143Y392D01*
X0Y391D02*
X7Y391D01*
X1135Y391D02*
X1143Y391D01*
X0Y390D02*
X7Y390D01*
X1135Y390D02*
X1143Y390D01*
X0Y389D02*
X7Y389D01*
X1135Y389D02*
X1143Y389D01*
X0Y388D02*
X7Y388D01*
X1135Y388D02*
X1143Y388D01*
X0Y387D02*
X7Y387D01*
X1135Y387D02*
X1143Y387D01*
X0Y386D02*
X7Y386D01*
X1135Y386D02*
X1143Y386D01*
X0Y385D02*
X7Y385D01*
X1135Y385D02*
X1143Y385D01*
X0Y384D02*
X7Y384D01*
X1135Y384D02*
X1143Y384D01*
X0Y383D02*
X7Y383D01*
X1135Y383D02*
X1143Y383D01*
X0Y382D02*
X7Y382D01*
X1135Y382D02*
X1143Y382D01*
X0Y381D02*
X7Y381D01*
X1135Y381D02*
X1143Y381D01*
X0Y380D02*
X7Y380D01*
X1135Y380D02*
X1143Y380D01*
X0Y379D02*
X7Y379D01*
X1135Y379D02*
X1143Y379D01*
X0Y378D02*
X7Y378D01*
X1135Y378D02*
X1143Y378D01*
X0Y377D02*
X7Y377D01*
X1135Y377D02*
X1143Y377D01*
X0Y376D02*
X7Y376D01*
X1135Y376D02*
X1143Y376D01*
X0Y375D02*
X7Y375D01*
X1135Y375D02*
X1143Y375D01*
X0Y374D02*
X7Y374D01*
X1135Y374D02*
X1143Y374D01*
X0Y373D02*
X7Y373D01*
X1135Y373D02*
X1143Y373D01*
X0Y372D02*
X7Y372D01*
X1135Y372D02*
X1143Y372D01*
X0Y371D02*
X7Y371D01*
X1135Y371D02*
X1143Y371D01*
X0Y370D02*
X7Y370D01*
X1135Y370D02*
X1143Y370D01*
X0Y369D02*
X7Y369D01*
X1135Y369D02*
X1143Y369D01*
X0Y368D02*
X7Y368D01*
X1135Y368D02*
X1143Y368D01*
X0Y367D02*
X7Y367D01*
X1135Y367D02*
X1143Y367D01*
X0Y366D02*
X7Y366D01*
X1135Y366D02*
X1143Y366D01*
X0Y365D02*
X7Y365D01*
X1135Y365D02*
X1143Y365D01*
X0Y364D02*
X7Y364D01*
X1135Y364D02*
X1143Y364D01*
X0Y363D02*
X7Y363D01*
X1135Y363D02*
X1143Y363D01*
X0Y362D02*
X7Y362D01*
X1135Y362D02*
X1143Y362D01*
X0Y361D02*
X7Y361D01*
X1135Y361D02*
X1143Y361D01*
X0Y360D02*
X7Y360D01*
X1135Y360D02*
X1143Y360D01*
X0Y359D02*
X7Y359D01*
X1135Y359D02*
X1143Y359D01*
X0Y358D02*
X7Y358D01*
X1135Y358D02*
X1143Y358D01*
X0Y357D02*
X7Y357D01*
X1135Y357D02*
X1143Y357D01*
X0Y356D02*
X7Y356D01*
X1135Y356D02*
X1143Y356D01*
X0Y355D02*
X7Y355D01*
X1135Y355D02*
X1143Y355D01*
X0Y354D02*
X7Y354D01*
X1135Y354D02*
X1143Y354D01*
X0Y353D02*
X7Y353D01*
X1135Y353D02*
X1143Y353D01*
X0Y352D02*
X7Y352D01*
X1135Y352D02*
X1143Y352D01*
X0Y351D02*
X7Y351D01*
X1135Y351D02*
X1143Y351D01*
X0Y350D02*
X7Y350D01*
X1135Y350D02*
X1143Y350D01*
X0Y349D02*
X7Y349D01*
X1135Y349D02*
X1143Y349D01*
X0Y348D02*
X7Y348D01*
X1135Y348D02*
X1143Y348D01*
X0Y347D02*
X7Y347D01*
X1135Y347D02*
X1143Y347D01*
X0Y346D02*
X7Y346D01*
X1135Y346D02*
X1143Y346D01*
X0Y345D02*
X7Y345D01*
X1135Y345D02*
X1143Y345D01*
X0Y344D02*
X7Y344D01*
X1135Y344D02*
X1143Y344D01*
X0Y343D02*
X7Y343D01*
X1135Y343D02*
X1143Y343D01*
X0Y342D02*
X7Y342D01*
X1135Y342D02*
X1143Y342D01*
X0Y341D02*
X7Y341D01*
X1135Y341D02*
X1143Y341D01*
X0Y340D02*
X7Y340D01*
X1135Y340D02*
X1143Y340D01*
X0Y339D02*
X7Y339D01*
X1135Y339D02*
X1143Y339D01*
X0Y338D02*
X7Y338D01*
X1135Y338D02*
X1143Y338D01*
X0Y337D02*
X7Y337D01*
X1135Y337D02*
X1143Y337D01*
X0Y336D02*
X7Y336D01*
X1135Y336D02*
X1143Y336D01*
X0Y335D02*
X7Y335D01*
X1135Y335D02*
X1143Y335D01*
X0Y334D02*
X7Y334D01*
X1135Y334D02*
X1143Y334D01*
X0Y333D02*
X7Y333D01*
X1135Y333D02*
X1143Y333D01*
X0Y332D02*
X7Y332D01*
X1135Y332D02*
X1143Y332D01*
X0Y331D02*
X7Y331D01*
X1135Y331D02*
X1143Y331D01*
X0Y330D02*
X7Y330D01*
X1135Y330D02*
X1143Y330D01*
X0Y329D02*
X7Y329D01*
X1135Y329D02*
X1143Y329D01*
X0Y328D02*
X7Y328D01*
X1135Y328D02*
X1143Y328D01*
X0Y327D02*
X7Y327D01*
X1135Y327D02*
X1143Y327D01*
X0Y326D02*
X7Y326D01*
X1135Y326D02*
X1143Y326D01*
X0Y325D02*
X7Y325D01*
X1135Y325D02*
X1143Y325D01*
X0Y324D02*
X7Y324D01*
X1135Y324D02*
X1143Y324D01*
X0Y323D02*
X7Y323D01*
X1135Y323D02*
X1143Y323D01*
X0Y322D02*
X7Y322D01*
X1135Y322D02*
X1143Y322D01*
X0Y321D02*
X7Y321D01*
X1135Y321D02*
X1143Y321D01*
X0Y320D02*
X7Y320D01*
X676Y320D02*
X678Y320D01*
X1135Y320D02*
X1143Y320D01*
X0Y319D02*
X7Y319D01*
X675Y319D02*
X680Y319D01*
X1135Y319D02*
X1143Y319D01*
X0Y318D02*
X7Y318D01*
X674Y318D02*
X680Y318D01*
X1135Y318D02*
X1143Y318D01*
X0Y317D02*
X7Y317D01*
X673Y317D02*
X681Y317D01*
X1135Y317D02*
X1143Y317D01*
X0Y316D02*
X7Y316D01*
X672Y316D02*
X681Y316D01*
X1135Y316D02*
X1143Y316D01*
X0Y315D02*
X7Y315D01*
X671Y315D02*
X680Y315D01*
X1135Y315D02*
X1143Y315D01*
X0Y314D02*
X7Y314D01*
X670Y314D02*
X680Y314D01*
X1135Y314D02*
X1143Y314D01*
X0Y313D02*
X7Y313D01*
X669Y313D02*
X679Y313D01*
X1135Y313D02*
X1143Y313D01*
X0Y312D02*
X7Y312D01*
X668Y312D02*
X678Y312D01*
X1135Y312D02*
X1143Y312D01*
X0Y311D02*
X7Y311D01*
X667Y311D02*
X677Y311D01*
X1135Y311D02*
X1143Y311D01*
X0Y310D02*
X7Y310D01*
X666Y310D02*
X676Y310D01*
X1135Y310D02*
X1143Y310D01*
X0Y309D02*
X7Y309D01*
X665Y309D02*
X675Y309D01*
X1135Y309D02*
X1143Y309D01*
X0Y308D02*
X7Y308D01*
X1135Y308D02*
X1143Y308D01*
X0Y307D02*
X7Y307D01*
X1135Y307D02*
X1143Y307D01*
X0Y306D02*
X7Y306D01*
X1135Y306D02*
X1143Y306D01*
X0Y305D02*
X7Y305D01*
X1135Y305D02*
X1143Y305D01*
X0Y304D02*
X7Y304D01*
X660Y304D02*
X660Y304D01*
X1135Y304D02*
X1143Y304D01*
X0Y303D02*
X7Y303D01*
X659Y303D02*
X660Y303D01*
X1135Y303D02*
X1143Y303D01*
X0Y302D02*
X7Y302D01*
X658Y302D02*
X660Y302D01*
X1135Y302D02*
X1143Y302D01*
X0Y301D02*
X7Y301D01*
X657Y301D02*
X660Y301D01*
X1135Y301D02*
X1143Y301D01*
X0Y300D02*
X7Y300D01*
X656Y300D02*
X660Y300D01*
X1135Y300D02*
X1143Y300D01*
X0Y299D02*
X7Y299D01*
X655Y299D02*
X660Y299D01*
X1135Y299D02*
X1143Y299D01*
X0Y298D02*
X7Y298D01*
X654Y298D02*
X660Y298D01*
X1135Y298D02*
X1143Y298D01*
X0Y297D02*
X7Y297D01*
X653Y297D02*
X660Y297D01*
X1135Y297D02*
X1143Y297D01*
X0Y296D02*
X7Y296D01*
X652Y296D02*
X660Y296D01*
X1135Y296D02*
X1143Y296D01*
X0Y295D02*
X7Y295D01*
X651Y295D02*
X660Y295D01*
X1135Y295D02*
X1143Y295D01*
X0Y294D02*
X7Y294D01*
X650Y294D02*
X660Y294D01*
X1135Y294D02*
X1143Y294D01*
X0Y293D02*
X7Y293D01*
X649Y293D02*
X659Y293D01*
X1135Y293D02*
X1143Y293D01*
X0Y292D02*
X7Y292D01*
X649Y292D02*
X658Y292D01*
X1135Y292D02*
X1143Y292D01*
X0Y291D02*
X7Y291D01*
X649Y291D02*
X657Y291D01*
X1135Y291D02*
X1143Y291D01*
X0Y290D02*
X7Y290D01*
X649Y290D02*
X656Y290D01*
X1135Y290D02*
X1143Y290D01*
X0Y289D02*
X7Y289D01*
X649Y289D02*
X655Y289D01*
X1135Y289D02*
X1143Y289D01*
X0Y288D02*
X7Y288D01*
X650Y288D02*
X654Y288D01*
X1135Y288D02*
X1143Y288D01*
X0Y287D02*
X7Y287D01*
X1135Y287D02*
X1143Y287D01*
X0Y286D02*
X7Y286D01*
X1135Y286D02*
X1143Y286D01*
X0Y285D02*
X7Y285D01*
X1135Y285D02*
X1143Y285D01*
X0Y284D02*
X7Y284D01*
X1135Y284D02*
X1143Y284D01*
X0Y283D02*
X7Y283D01*
X1135Y283D02*
X1143Y283D01*
X0Y282D02*
X7Y282D01*
X1135Y282D02*
X1143Y282D01*
X0Y281D02*
X7Y281D01*
X1135Y281D02*
X1143Y281D01*
X0Y280D02*
X7Y280D01*
X1135Y280D02*
X1143Y280D01*
X0Y279D02*
X7Y279D01*
X1135Y279D02*
X1143Y279D01*
X0Y278D02*
X7Y278D01*
X1135Y278D02*
X1143Y278D01*
X0Y277D02*
X7Y277D01*
X1135Y277D02*
X1143Y277D01*
X0Y276D02*
X7Y276D01*
X1135Y276D02*
X1143Y276D01*
X0Y275D02*
X7Y275D01*
X1135Y275D02*
X1143Y275D01*
X0Y274D02*
X7Y274D01*
X1135Y274D02*
X1143Y274D01*
X0Y273D02*
X7Y273D01*
X1135Y273D02*
X1143Y273D01*
X0Y272D02*
X7Y272D01*
X1135Y272D02*
X1143Y272D01*
X0Y271D02*
X7Y271D01*
X1135Y271D02*
X1143Y271D01*
X0Y270D02*
X7Y270D01*
X1135Y270D02*
X1143Y270D01*
X0Y269D02*
X7Y269D01*
X0Y268D02*
X7Y268D01*
X0Y267D02*
X7Y267D01*
X1135Y267D02*
X1142Y267D01*
X0Y266D02*
X7Y266D01*
X1135Y266D02*
X1142Y266D01*
X0Y265D02*
X7Y265D01*
X1135Y265D02*
X1142Y265D01*
X0Y264D02*
X7Y264D01*
X1135Y264D02*
X1142Y264D01*
X0Y263D02*
X7Y263D01*
X1135Y263D02*
X1142Y263D01*
X0Y262D02*
X7Y262D01*
X1135Y262D02*
X1142Y262D01*
X0Y261D02*
X7Y261D01*
X1135Y261D02*
X1142Y261D01*
X0Y260D02*
X7Y260D01*
X1135Y260D02*
X1142Y260D01*
X0Y259D02*
X7Y259D01*
X1135Y259D02*
X1142Y259D01*
X0Y258D02*
X7Y258D01*
X1135Y258D02*
X1142Y258D01*
X0Y257D02*
X7Y257D01*
X1135Y257D02*
X1142Y257D01*
X0Y256D02*
X7Y256D01*
X1135Y256D02*
X1142Y256D01*
X0Y255D02*
X7Y255D01*
X1135Y255D02*
X1142Y255D01*
X0Y254D02*
X7Y254D01*
X1135Y254D02*
X1142Y254D01*
X0Y253D02*
X7Y253D01*
X1135Y253D02*
X1142Y253D01*
X0Y252D02*
X7Y252D01*
X1135Y252D02*
X1142Y252D01*
X0Y251D02*
X7Y251D01*
X1135Y251D02*
X1142Y251D01*
X0Y250D02*
X7Y250D01*
X1135Y250D02*
X1142Y250D01*
X0Y249D02*
X7Y249D01*
X649Y249D02*
X649Y249D01*
X1135Y249D02*
X1142Y249D01*
X0Y248D02*
X7Y248D01*
X649Y248D02*
X650Y248D01*
X1135Y248D02*
X1142Y248D01*
X0Y247D02*
X7Y247D01*
X649Y247D02*
X651Y247D01*
X1135Y247D02*
X1142Y247D01*
X0Y246D02*
X7Y246D01*
X649Y246D02*
X652Y246D01*
X0Y245D02*
X7Y245D01*
X649Y245D02*
X653Y245D01*
X0Y244D02*
X7Y244D01*
X649Y244D02*
X654Y244D01*
X0Y243D02*
X7Y243D01*
X649Y243D02*
X655Y243D01*
X0Y242D02*
X7Y242D01*
X649Y242D02*
X656Y242D01*
X0Y241D02*
X7Y241D01*
X649Y241D02*
X657Y241D01*
X0Y240D02*
X7Y240D01*
X649Y240D02*
X658Y240D01*
X1135Y240D02*
X1142Y240D01*
X0Y239D02*
X7Y239D01*
X649Y239D02*
X659Y239D01*
X1026Y239D02*
X1026Y239D01*
X1055Y239D02*
X1073Y239D01*
X1087Y239D02*
X1095Y239D01*
X1135Y239D02*
X1142Y239D01*
X0Y238D02*
X7Y238D01*
X649Y238D02*
X660Y238D01*
X1025Y238D02*
X1028Y238D01*
X1055Y238D02*
X1074Y238D01*
X1085Y238D02*
X1097Y238D01*
X1135Y238D02*
X1142Y238D01*
X0Y237D02*
X7Y237D01*
X649Y237D02*
X660Y237D01*
X1025Y237D02*
X1028Y237D01*
X1055Y237D02*
X1075Y237D01*
X1085Y237D02*
X1098Y237D01*
X1135Y237D02*
X1142Y237D01*
X0Y236D02*
X7Y236D01*
X649Y236D02*
X660Y236D01*
X1025Y236D02*
X1028Y236D01*
X1055Y236D02*
X1074Y236D01*
X1085Y236D02*
X1099Y236D01*
X1135Y236D02*
X1142Y236D01*
X0Y235D02*
X7Y235D01*
X649Y235D02*
X660Y235D01*
X1025Y235D02*
X1028Y235D01*
X1055Y235D02*
X1073Y235D01*
X1087Y235D02*
X1100Y235D01*
X1135Y235D02*
X1142Y235D01*
X0Y234D02*
X7Y234D01*
X649Y234D02*
X660Y234D01*
X1025Y234D02*
X1028Y234D01*
X1055Y234D02*
X1058Y234D01*
X1089Y234D02*
X1092Y234D01*
X1096Y234D02*
X1100Y234D01*
X1135Y234D02*
X1142Y234D01*
X0Y233D02*
X7Y233D01*
X649Y233D02*
X660Y233D01*
X1025Y233D02*
X1028Y233D01*
X1055Y233D02*
X1058Y233D01*
X1089Y233D02*
X1092Y233D01*
X1097Y233D02*
X1101Y233D01*
X1135Y233D02*
X1142Y233D01*
X0Y232D02*
X7Y232D01*
X649Y232D02*
X660Y232D01*
X1025Y232D02*
X1028Y232D01*
X1055Y232D02*
X1058Y232D01*
X1089Y232D02*
X1092Y232D01*
X1098Y232D02*
X1101Y232D01*
X1135Y232D02*
X1142Y232D01*
X0Y231D02*
X7Y231D01*
X649Y231D02*
X660Y231D01*
X1025Y231D02*
X1028Y231D01*
X1055Y231D02*
X1058Y231D01*
X1089Y231D02*
X1092Y231D01*
X1098Y231D02*
X1102Y231D01*
X1135Y231D02*
X1142Y231D01*
X0Y230D02*
X7Y230D01*
X649Y230D02*
X660Y230D01*
X1025Y230D02*
X1028Y230D01*
X1055Y230D02*
X1058Y230D01*
X1089Y230D02*
X1092Y230D01*
X1099Y230D02*
X1102Y230D01*
X1135Y230D02*
X1142Y230D01*
X0Y229D02*
X7Y229D01*
X649Y229D02*
X660Y229D01*
X1025Y229D02*
X1028Y229D01*
X1055Y229D02*
X1058Y229D01*
X1089Y229D02*
X1092Y229D01*
X1099Y229D02*
X1103Y229D01*
X1135Y229D02*
X1142Y229D01*
X0Y228D02*
X7Y228D01*
X649Y228D02*
X660Y228D01*
X1025Y228D02*
X1028Y228D01*
X1055Y228D02*
X1058Y228D01*
X1089Y228D02*
X1092Y228D01*
X1100Y228D02*
X1103Y228D01*
X1135Y228D02*
X1142Y228D01*
X0Y227D02*
X7Y227D01*
X649Y227D02*
X660Y227D01*
X1025Y227D02*
X1028Y227D01*
X1055Y227D02*
X1058Y227D01*
X1089Y227D02*
X1092Y227D01*
X1100Y227D02*
X1104Y227D01*
X1135Y227D02*
X1142Y227D01*
X0Y226D02*
X7Y226D01*
X649Y226D02*
X660Y226D01*
X1025Y226D02*
X1028Y226D01*
X1055Y226D02*
X1058Y226D01*
X1089Y226D02*
X1092Y226D01*
X1101Y226D02*
X1104Y226D01*
X1135Y226D02*
X1142Y226D01*
X0Y225D02*
X7Y225D01*
X649Y225D02*
X660Y225D01*
X1025Y225D02*
X1028Y225D01*
X1055Y225D02*
X1059Y225D01*
X1089Y225D02*
X1092Y225D01*
X1101Y225D02*
X1104Y225D01*
X1135Y225D02*
X1142Y225D01*
X0Y224D02*
X7Y224D01*
X649Y224D02*
X660Y224D01*
X1025Y224D02*
X1028Y224D01*
X1055Y224D02*
X1066Y224D01*
X1089Y224D02*
X1092Y224D01*
X1101Y224D02*
X1105Y224D01*
X1135Y224D02*
X1142Y224D01*
X0Y223D02*
X7Y223D01*
X649Y223D02*
X675Y223D01*
X1025Y223D02*
X1028Y223D01*
X1055Y223D02*
X1066Y223D01*
X1089Y223D02*
X1092Y223D01*
X1101Y223D02*
X1105Y223D01*
X1135Y223D02*
X1142Y223D01*
X0Y222D02*
X7Y222D01*
X649Y222D02*
X676Y222D01*
X1025Y222D02*
X1028Y222D01*
X1055Y222D02*
X1066Y222D01*
X1089Y222D02*
X1092Y222D01*
X1101Y222D02*
X1105Y222D01*
X1135Y222D02*
X1142Y222D01*
X0Y221D02*
X7Y221D01*
X649Y221D02*
X677Y221D01*
X1025Y221D02*
X1028Y221D01*
X1055Y221D02*
X1065Y221D01*
X1089Y221D02*
X1092Y221D01*
X1101Y221D02*
X1104Y221D01*
X1135Y221D02*
X1142Y221D01*
X0Y220D02*
X7Y220D01*
X649Y220D02*
X678Y220D01*
X1025Y220D02*
X1028Y220D01*
X1055Y220D02*
X1058Y220D01*
X1089Y220D02*
X1092Y220D01*
X1101Y220D02*
X1104Y220D01*
X1135Y220D02*
X1142Y220D01*
X0Y219D02*
X7Y219D01*
X649Y219D02*
X679Y219D01*
X1025Y219D02*
X1028Y219D01*
X1055Y219D02*
X1058Y219D01*
X1089Y219D02*
X1092Y219D01*
X1100Y219D02*
X1104Y219D01*
X1135Y219D02*
X1142Y219D01*
X0Y218D02*
X7Y218D01*
X649Y218D02*
X680Y218D01*
X1025Y218D02*
X1028Y218D01*
X1055Y218D02*
X1058Y218D01*
X1089Y218D02*
X1092Y218D01*
X1100Y218D02*
X1103Y218D01*
X1135Y218D02*
X1142Y218D01*
X0Y217D02*
X7Y217D01*
X649Y217D02*
X681Y217D01*
X1025Y217D02*
X1028Y217D01*
X1055Y217D02*
X1058Y217D01*
X1089Y217D02*
X1092Y217D01*
X1099Y217D02*
X1103Y217D01*
X1135Y217D02*
X1142Y217D01*
X0Y216D02*
X7Y216D01*
X649Y216D02*
X682Y216D01*
X1025Y216D02*
X1028Y216D01*
X1055Y216D02*
X1058Y216D01*
X1089Y216D02*
X1092Y216D01*
X1099Y216D02*
X1102Y216D01*
X1135Y216D02*
X1142Y216D01*
X0Y215D02*
X7Y215D01*
X649Y215D02*
X683Y215D01*
X1025Y215D02*
X1028Y215D01*
X1055Y215D02*
X1058Y215D01*
X1089Y215D02*
X1092Y215D01*
X1098Y215D02*
X1102Y215D01*
X1135Y215D02*
X1142Y215D01*
X0Y214D02*
X7Y214D01*
X649Y214D02*
X684Y214D01*
X1025Y214D02*
X1028Y214D01*
X1055Y214D02*
X1058Y214D01*
X1089Y214D02*
X1092Y214D01*
X1098Y214D02*
X1101Y214D01*
X1135Y214D02*
X1142Y214D01*
X0Y213D02*
X7Y213D01*
X649Y213D02*
X685Y213D01*
X1025Y213D02*
X1028Y213D01*
X1055Y213D02*
X1058Y213D01*
X1089Y213D02*
X1092Y213D01*
X1097Y213D02*
X1101Y213D01*
X1135Y213D02*
X1142Y213D01*
X0Y212D02*
X7Y212D01*
X649Y212D02*
X686Y212D01*
X1025Y212D02*
X1028Y212D01*
X1055Y212D02*
X1058Y212D01*
X1089Y212D02*
X1092Y212D01*
X1097Y212D02*
X1100Y212D01*
X1135Y212D02*
X1142Y212D01*
X0Y211D02*
X7Y211D01*
X1025Y211D02*
X1028Y211D01*
X1055Y211D02*
X1058Y211D01*
X1089Y211D02*
X1093Y211D01*
X1095Y211D02*
X1100Y211D01*
X1135Y211D02*
X1142Y211D01*
X0Y210D02*
X7Y210D01*
X1025Y210D02*
X1044Y210D01*
X1055Y210D02*
X1074Y210D01*
X1085Y210D02*
X1099Y210D01*
X1135Y210D02*
X1142Y210D01*
X0Y209D02*
X7Y209D01*
X1025Y209D02*
X1044Y209D01*
X1055Y209D02*
X1075Y209D01*
X1085Y209D02*
X1099Y209D01*
X1135Y209D02*
X1142Y209D01*
X0Y208D02*
X7Y208D01*
X1025Y208D02*
X1044Y208D01*
X1055Y208D02*
X1074Y208D01*
X1085Y208D02*
X1098Y208D01*
X1135Y208D02*
X1142Y208D01*
X0Y207D02*
X7Y207D01*
X1025Y207D02*
X1044Y207D01*
X1055Y207D02*
X1074Y207D01*
X1086Y207D02*
X1096Y207D01*
X1135Y207D02*
X1142Y207D01*
X0Y206D02*
X7Y206D01*
X1135Y206D02*
X1142Y206D01*
X0Y205D02*
X7Y205D01*
X1135Y205D02*
X1142Y205D01*
X0Y204D02*
X7Y204D01*
X1021Y204D02*
X1024Y204D01*
X1081Y204D02*
X1083Y204D01*
X1135Y204D02*
X1142Y204D01*
X0Y203D02*
X7Y203D01*
X1021Y203D02*
X1024Y203D01*
X1081Y203D02*
X1084Y203D01*
X1135Y203D02*
X1142Y203D01*
X0Y202D02*
X7Y202D01*
X1021Y202D02*
X1024Y202D01*
X1080Y202D02*
X1084Y202D01*
X1135Y202D02*
X1142Y202D01*
X0Y201D02*
X7Y201D01*
X1020Y201D02*
X1025Y201D01*
X1080Y201D02*
X1084Y201D01*
X1135Y201D02*
X1142Y201D01*
X0Y200D02*
X7Y200D01*
X1020Y200D02*
X1025Y200D01*
X1080Y200D02*
X1084Y200D01*
X1135Y200D02*
X1142Y200D01*
X0Y199D02*
X7Y199D01*
X1020Y199D02*
X1025Y199D01*
X1080Y199D02*
X1084Y199D01*
X1135Y199D02*
X1142Y199D01*
X0Y198D02*
X7Y198D01*
X1020Y198D02*
X1025Y198D01*
X1080Y198D02*
X1084Y198D01*
X1135Y198D02*
X1142Y198D01*
X0Y197D02*
X7Y197D01*
X1020Y197D02*
X1025Y197D01*
X1080Y197D02*
X1084Y197D01*
X1135Y197D02*
X1142Y197D01*
X0Y196D02*
X7Y196D01*
X1020Y196D02*
X1025Y196D01*
X1080Y196D02*
X1084Y196D01*
X1135Y196D02*
X1142Y196D01*
X0Y195D02*
X7Y195D01*
X1020Y195D02*
X1025Y195D01*
X1080Y195D02*
X1084Y195D01*
X1135Y195D02*
X1142Y195D01*
X0Y194D02*
X7Y194D01*
X1020Y194D02*
X1025Y194D01*
X1080Y194D02*
X1084Y194D01*
X1135Y194D02*
X1142Y194D01*
X0Y193D02*
X7Y193D01*
X1020Y193D02*
X1025Y193D01*
X1080Y193D02*
X1084Y193D01*
X1135Y193D02*
X1142Y193D01*
X0Y192D02*
X7Y192D01*
X1020Y192D02*
X1025Y192D01*
X1080Y192D02*
X1084Y192D01*
X1135Y192D02*
X1142Y192D01*
X0Y191D02*
X7Y191D01*
X1020Y191D02*
X1025Y191D01*
X1080Y191D02*
X1084Y191D01*
X1135Y191D02*
X1142Y191D01*
X0Y190D02*
X7Y190D01*
X1020Y190D02*
X1025Y190D01*
X1080Y190D02*
X1084Y190D01*
X1135Y190D02*
X1142Y190D01*
X0Y189D02*
X7Y189D01*
X1020Y189D02*
X1025Y189D01*
X1080Y189D02*
X1084Y189D01*
X1135Y189D02*
X1142Y189D01*
X0Y188D02*
X7Y188D01*
X1020Y188D02*
X1025Y188D01*
X1080Y188D02*
X1084Y188D01*
X1135Y188D02*
X1142Y188D01*
X0Y187D02*
X7Y187D01*
X1020Y187D02*
X1025Y187D01*
X1080Y187D02*
X1084Y187D01*
X1135Y187D02*
X1142Y187D01*
X0Y186D02*
X7Y186D01*
X1020Y186D02*
X1025Y186D01*
X1080Y186D02*
X1084Y186D01*
X1135Y186D02*
X1142Y186D01*
X0Y185D02*
X7Y185D01*
X1020Y185D02*
X1025Y185D01*
X1080Y185D02*
X1084Y185D01*
X1135Y185D02*
X1142Y185D01*
X0Y184D02*
X7Y184D01*
X1020Y184D02*
X1025Y184D01*
X1080Y184D02*
X1084Y184D01*
X1135Y184D02*
X1142Y184D01*
X0Y183D02*
X7Y183D01*
X65Y183D02*
X644Y183D01*
X1020Y183D02*
X1025Y183D01*
X1080Y183D02*
X1084Y183D01*
X1135Y183D02*
X1142Y183D01*
X0Y182D02*
X7Y182D01*
X65Y182D02*
X643Y182D01*
X1020Y182D02*
X1025Y182D01*
X1080Y182D02*
X1084Y182D01*
X1135Y182D02*
X1142Y182D01*
X0Y181D02*
X7Y181D01*
X65Y181D02*
X71Y181D01*
X1020Y181D02*
X1025Y181D01*
X1080Y181D02*
X1084Y181D01*
X1135Y181D02*
X1142Y181D01*
X0Y180D02*
X7Y180D01*
X65Y180D02*
X70Y180D01*
X842Y180D02*
X855Y180D01*
X902Y180D02*
X915Y180D01*
X1020Y180D02*
X1025Y180D01*
X1080Y180D02*
X1084Y180D01*
X1135Y180D02*
X1142Y180D01*
X0Y179D02*
X7Y179D01*
X65Y179D02*
X70Y179D01*
X842Y179D02*
X858Y179D01*
X872Y179D02*
X875Y179D01*
X889Y179D02*
X891Y179D01*
X902Y179D02*
X919Y179D01*
X1020Y179D02*
X1024Y179D01*
X1081Y179D02*
X1084Y179D01*
X1135Y179D02*
X1142Y179D01*
X0Y178D02*
X7Y178D01*
X65Y178D02*
X70Y178D01*
X842Y178D02*
X860Y178D01*
X872Y178D02*
X875Y178D01*
X888Y178D02*
X892Y178D01*
X902Y178D02*
X920Y178D01*
X1020Y178D02*
X1024Y178D01*
X1081Y178D02*
X1084Y178D01*
X1135Y178D02*
X1142Y178D01*
X0Y177D02*
X7Y177D01*
X65Y177D02*
X70Y177D01*
X842Y177D02*
X860Y177D01*
X872Y177D02*
X875Y177D01*
X888Y177D02*
X892Y177D01*
X902Y177D02*
X921Y177D01*
X1020Y177D02*
X1023Y177D01*
X1082Y177D02*
X1084Y177D01*
X1135Y177D02*
X1142Y177D01*
X0Y176D02*
X7Y176D01*
X65Y176D02*
X70Y176D01*
X842Y176D02*
X861Y176D01*
X872Y176D02*
X875Y176D01*
X888Y176D02*
X892Y176D01*
X902Y176D02*
X921Y176D01*
X1020Y176D02*
X1023Y176D01*
X1082Y176D02*
X1084Y176D01*
X1135Y176D02*
X1142Y176D01*
X0Y175D02*
X7Y175D01*
X65Y175D02*
X70Y175D01*
X842Y175D02*
X845Y175D01*
X858Y175D02*
X861Y175D01*
X872Y175D02*
X875Y175D01*
X888Y175D02*
X892Y175D01*
X902Y175D02*
X905Y175D01*
X918Y175D02*
X922Y175D01*
X1020Y175D02*
X1023Y175D01*
X1082Y175D02*
X1084Y175D01*
X1135Y175D02*
X1142Y175D01*
X0Y174D02*
X7Y174D01*
X65Y174D02*
X70Y174D01*
X842Y174D02*
X845Y174D01*
X858Y174D02*
X861Y174D01*
X872Y174D02*
X875Y174D01*
X888Y174D02*
X892Y174D01*
X902Y174D02*
X905Y174D01*
X918Y174D02*
X922Y174D01*
X1020Y174D02*
X1022Y174D01*
X1083Y174D02*
X1084Y174D01*
X1135Y174D02*
X1142Y174D01*
X0Y173D02*
X7Y173D01*
X65Y173D02*
X70Y173D01*
X842Y173D02*
X845Y173D01*
X858Y173D02*
X861Y173D01*
X872Y173D02*
X875Y173D01*
X888Y173D02*
X892Y173D01*
X902Y173D02*
X905Y173D01*
X918Y173D02*
X922Y173D01*
X1020Y173D02*
X1022Y173D01*
X1083Y173D02*
X1084Y173D01*
X1135Y173D02*
X1142Y173D01*
X0Y172D02*
X7Y172D01*
X65Y172D02*
X70Y172D01*
X842Y172D02*
X845Y172D01*
X858Y172D02*
X861Y172D01*
X872Y172D02*
X875Y172D01*
X888Y172D02*
X892Y172D01*
X902Y172D02*
X905Y172D01*
X918Y172D02*
X922Y172D01*
X1020Y172D02*
X1022Y172D01*
X1083Y172D02*
X1084Y172D01*
X1135Y172D02*
X1142Y172D01*
X0Y171D02*
X7Y171D01*
X65Y171D02*
X70Y171D01*
X842Y171D02*
X845Y171D01*
X858Y171D02*
X861Y171D01*
X872Y171D02*
X875Y171D01*
X888Y171D02*
X892Y171D01*
X902Y171D02*
X905Y171D01*
X918Y171D02*
X922Y171D01*
X1020Y171D02*
X1022Y171D01*
X1083Y171D02*
X1084Y171D01*
X1135Y171D02*
X1142Y171D01*
X0Y170D02*
X7Y170D01*
X65Y170D02*
X70Y170D01*
X89Y170D02*
X104Y170D01*
X115Y170D02*
X117Y170D01*
X132Y170D02*
X134Y170D01*
X145Y170D02*
X157Y170D01*
X183Y170D02*
X194Y170D01*
X237Y170D02*
X252Y170D01*
X265Y170D02*
X285Y170D01*
X295Y170D02*
X315Y170D01*
X326Y170D02*
X342Y170D01*
X356Y170D02*
X372Y170D01*
X386Y170D02*
X405Y170D01*
X416Y170D02*
X432Y170D01*
X842Y170D02*
X845Y170D01*
X858Y170D02*
X861Y170D01*
X872Y170D02*
X875Y170D01*
X888Y170D02*
X892Y170D01*
X902Y170D02*
X905Y170D01*
X918Y170D02*
X921Y170D01*
X1020Y170D02*
X1021Y170D01*
X1084Y170D02*
X1084Y170D01*
X1135Y170D02*
X1142Y170D01*
X0Y169D02*
X7Y169D01*
X65Y169D02*
X70Y169D01*
X89Y169D02*
X104Y169D01*
X115Y169D02*
X118Y169D01*
X131Y169D02*
X134Y169D01*
X145Y169D02*
X158Y169D01*
X181Y169D02*
X195Y169D01*
X236Y169D02*
X253Y169D01*
X265Y169D02*
X285Y169D01*
X295Y169D02*
X315Y169D01*
X326Y169D02*
X343Y169D01*
X356Y169D02*
X373Y169D01*
X386Y169D02*
X405Y169D01*
X416Y169D02*
X433Y169D01*
X842Y169D02*
X845Y169D01*
X858Y169D02*
X861Y169D01*
X872Y169D02*
X875Y169D01*
X881Y169D02*
X882Y169D01*
X888Y169D02*
X892Y169D01*
X902Y169D02*
X921Y169D01*
X1020Y169D02*
X1021Y169D01*
X1084Y169D02*
X1084Y169D01*
X1135Y169D02*
X1142Y169D01*
X0Y168D02*
X7Y168D01*
X65Y168D02*
X70Y168D01*
X89Y168D02*
X104Y168D01*
X115Y168D02*
X118Y168D01*
X131Y168D02*
X135Y168D01*
X145Y168D02*
X159Y168D01*
X181Y168D02*
X195Y168D01*
X236Y168D02*
X254Y168D01*
X265Y168D02*
X285Y168D01*
X295Y168D02*
X315Y168D01*
X326Y168D02*
X344Y168D01*
X356Y168D02*
X374Y168D01*
X386Y168D02*
X405Y168D01*
X416Y168D02*
X434Y168D01*
X842Y168D02*
X845Y168D01*
X858Y168D02*
X861Y168D01*
X872Y168D02*
X875Y168D01*
X880Y168D02*
X883Y168D01*
X888Y168D02*
X892Y168D01*
X902Y168D02*
X920Y168D01*
X1020Y168D02*
X1021Y168D01*
X1084Y168D02*
X1084Y168D01*
X1135Y168D02*
X1142Y168D01*
X0Y167D02*
X7Y167D01*
X65Y167D02*
X70Y167D01*
X89Y167D02*
X104Y167D01*
X115Y167D02*
X118Y167D01*
X131Y167D02*
X135Y167D01*
X146Y167D02*
X159Y167D01*
X180Y167D02*
X194Y167D01*
X235Y167D02*
X255Y167D01*
X265Y167D02*
X285Y167D01*
X295Y167D02*
X314Y167D01*
X326Y167D02*
X345Y167D01*
X356Y167D02*
X375Y167D01*
X386Y167D02*
X405Y167D01*
X416Y167D02*
X435Y167D01*
X842Y167D02*
X845Y167D01*
X858Y167D02*
X861Y167D01*
X872Y167D02*
X875Y167D01*
X880Y167D02*
X883Y167D01*
X888Y167D02*
X892Y167D01*
X902Y167D02*
X920Y167D01*
X1020Y167D02*
X1021Y167D01*
X1084Y167D02*
X1084Y167D01*
X1135Y167D02*
X1142Y167D01*
X0Y166D02*
X7Y166D01*
X65Y166D02*
X70Y166D01*
X89Y166D02*
X92Y166D01*
X115Y166D02*
X118Y166D01*
X131Y166D02*
X135Y166D01*
X149Y166D02*
X152Y166D01*
X156Y166D02*
X160Y166D01*
X180Y166D02*
X184Y166D01*
X235Y166D02*
X239Y166D01*
X251Y166D02*
X255Y166D01*
X265Y166D02*
X269Y166D01*
X274Y166D02*
X277Y166D01*
X282Y166D02*
X285Y166D01*
X295Y166D02*
X299Y166D01*
X326Y166D02*
X329Y166D01*
X341Y166D02*
X345Y166D01*
X356Y166D02*
X359Y166D01*
X371Y166D02*
X375Y166D01*
X386Y166D02*
X389Y166D01*
X416Y166D02*
X419Y166D01*
X432Y166D02*
X435Y166D01*
X842Y166D02*
X845Y166D01*
X858Y166D02*
X861Y166D01*
X872Y166D02*
X875Y166D01*
X880Y166D02*
X883Y166D01*
X888Y166D02*
X892Y166D01*
X902Y166D02*
X918Y166D01*
X1020Y166D02*
X1021Y166D01*
X1084Y166D02*
X1084Y166D01*
X1135Y166D02*
X1142Y166D01*
X0Y165D02*
X7Y165D01*
X65Y165D02*
X70Y165D01*
X89Y165D02*
X92Y165D01*
X115Y165D02*
X118Y165D01*
X131Y165D02*
X135Y165D01*
X149Y165D02*
X152Y165D01*
X157Y165D02*
X160Y165D01*
X179Y165D02*
X183Y165D01*
X235Y165D02*
X239Y165D01*
X252Y165D02*
X255Y165D01*
X265Y165D02*
X268Y165D01*
X274Y165D02*
X277Y165D01*
X282Y165D02*
X285Y165D01*
X295Y165D02*
X299Y165D01*
X326Y165D02*
X329Y165D01*
X342Y165D02*
X345Y165D01*
X356Y165D02*
X359Y165D01*
X372Y165D02*
X375Y165D01*
X386Y165D02*
X389Y165D01*
X416Y165D02*
X419Y165D01*
X432Y165D02*
X435Y165D01*
X842Y165D02*
X845Y165D01*
X858Y165D02*
X861Y165D01*
X872Y165D02*
X875Y165D01*
X880Y165D02*
X883Y165D01*
X888Y165D02*
X892Y165D01*
X902Y165D02*
X905Y165D01*
X909Y165D02*
X913Y165D01*
X1020Y165D02*
X1021Y165D01*
X1084Y165D02*
X1084Y165D01*
X1135Y165D02*
X1142Y165D01*
X0Y164D02*
X7Y164D01*
X65Y164D02*
X70Y164D01*
X89Y164D02*
X92Y164D01*
X115Y164D02*
X118Y164D01*
X131Y164D02*
X135Y164D01*
X149Y164D02*
X152Y164D01*
X157Y164D02*
X161Y164D01*
X179Y164D02*
X182Y164D01*
X236Y164D02*
X240Y164D01*
X252Y164D02*
X255Y164D01*
X266Y164D02*
X268Y164D01*
X274Y164D02*
X277Y164D01*
X282Y164D02*
X285Y164D01*
X295Y164D02*
X299Y164D01*
X326Y164D02*
X329Y164D01*
X342Y164D02*
X345Y164D01*
X356Y164D02*
X359Y164D01*
X372Y164D02*
X375Y164D01*
X386Y164D02*
X389Y164D01*
X416Y164D02*
X419Y164D01*
X432Y164D02*
X436Y164D01*
X842Y164D02*
X861Y164D01*
X872Y164D02*
X875Y164D01*
X880Y164D02*
X883Y164D01*
X888Y164D02*
X892Y164D01*
X902Y164D02*
X905Y164D01*
X910Y164D02*
X914Y164D01*
X1020Y164D02*
X1021Y164D01*
X1083Y164D02*
X1084Y164D01*
X1135Y164D02*
X1142Y164D01*
X0Y163D02*
X7Y163D01*
X65Y163D02*
X70Y163D01*
X89Y163D02*
X92Y163D01*
X115Y163D02*
X118Y163D01*
X131Y163D02*
X135Y163D01*
X149Y163D02*
X152Y163D01*
X158Y163D02*
X161Y163D01*
X178Y163D02*
X182Y163D01*
X236Y163D02*
X241Y163D01*
X274Y163D02*
X277Y163D01*
X295Y163D02*
X299Y163D01*
X326Y163D02*
X329Y163D01*
X342Y163D02*
X345Y163D01*
X356Y163D02*
X359Y163D01*
X372Y163D02*
X375Y163D01*
X386Y163D02*
X389Y163D01*
X416Y163D02*
X419Y163D01*
X432Y163D02*
X436Y163D01*
X842Y163D02*
X860Y163D01*
X872Y163D02*
X875Y163D01*
X880Y163D02*
X883Y163D01*
X888Y163D02*
X892Y163D01*
X902Y163D02*
X905Y163D01*
X910Y163D02*
X914Y163D01*
X1020Y163D02*
X1022Y163D01*
X1083Y163D02*
X1084Y163D01*
X1135Y163D02*
X1142Y163D01*
X0Y162D02*
X7Y162D01*
X65Y162D02*
X70Y162D01*
X89Y162D02*
X92Y162D01*
X115Y162D02*
X118Y162D01*
X131Y162D02*
X135Y162D01*
X149Y162D02*
X152Y162D01*
X158Y162D02*
X162Y162D01*
X178Y162D02*
X181Y162D01*
X237Y162D02*
X241Y162D01*
X274Y162D02*
X277Y162D01*
X295Y162D02*
X299Y162D01*
X326Y162D02*
X329Y162D01*
X342Y162D02*
X345Y162D01*
X356Y162D02*
X359Y162D01*
X372Y162D02*
X375Y162D01*
X386Y162D02*
X389Y162D01*
X416Y162D02*
X419Y162D01*
X432Y162D02*
X436Y162D01*
X842Y162D02*
X860Y162D01*
X872Y162D02*
X875Y162D01*
X880Y162D02*
X883Y162D01*
X888Y162D02*
X892Y162D01*
X902Y162D02*
X905Y162D01*
X911Y162D02*
X915Y162D01*
X1020Y162D02*
X1022Y162D01*
X1083Y162D02*
X1084Y162D01*
X1135Y162D02*
X1142Y162D01*
X0Y161D02*
X7Y161D01*
X65Y161D02*
X70Y161D01*
X89Y161D02*
X92Y161D01*
X115Y161D02*
X118Y161D01*
X131Y161D02*
X134Y161D01*
X149Y161D02*
X152Y161D01*
X159Y161D02*
X162Y161D01*
X177Y161D02*
X181Y161D01*
X238Y161D02*
X242Y161D01*
X274Y161D02*
X277Y161D01*
X295Y161D02*
X299Y161D01*
X326Y161D02*
X329Y161D01*
X342Y161D02*
X345Y161D01*
X356Y161D02*
X359Y161D01*
X372Y161D02*
X375Y161D01*
X386Y161D02*
X389Y161D01*
X416Y161D02*
X419Y161D01*
X432Y161D02*
X435Y161D01*
X842Y161D02*
X858Y161D01*
X872Y161D02*
X875Y161D01*
X880Y161D02*
X883Y161D01*
X888Y161D02*
X892Y161D01*
X902Y161D02*
X905Y161D01*
X911Y161D02*
X915Y161D01*
X1020Y161D02*
X1022Y161D01*
X1083Y161D02*
X1084Y161D01*
X1135Y161D02*
X1142Y161D01*
X0Y160D02*
X7Y160D01*
X65Y160D02*
X70Y160D01*
X89Y160D02*
X92Y160D01*
X115Y160D02*
X119Y160D01*
X131Y160D02*
X134Y160D01*
X149Y160D02*
X152Y160D01*
X159Y160D02*
X163Y160D01*
X177Y160D02*
X180Y160D01*
X239Y160D02*
X243Y160D01*
X274Y160D02*
X277Y160D01*
X295Y160D02*
X299Y160D01*
X326Y160D02*
X329Y160D01*
X342Y160D02*
X345Y160D01*
X356Y160D02*
X359Y160D01*
X372Y160D02*
X375Y160D01*
X386Y160D02*
X389Y160D01*
X416Y160D02*
X435Y160D01*
X842Y160D02*
X856Y160D01*
X872Y160D02*
X875Y160D01*
X880Y160D02*
X883Y160D01*
X888Y160D02*
X892Y160D01*
X902Y160D02*
X905Y160D01*
X912Y160D02*
X916Y160D01*
X1020Y160D02*
X1022Y160D01*
X1083Y160D02*
X1084Y160D01*
X1135Y160D02*
X1142Y160D01*
X0Y159D02*
X7Y159D01*
X65Y159D02*
X70Y159D01*
X89Y159D02*
X92Y159D01*
X116Y159D02*
X119Y159D01*
X130Y159D02*
X134Y159D01*
X149Y159D02*
X152Y159D01*
X160Y159D02*
X163Y159D01*
X176Y159D02*
X180Y159D01*
X239Y159D02*
X244Y159D01*
X274Y159D02*
X277Y159D01*
X295Y159D02*
X299Y159D01*
X326Y159D02*
X329Y159D01*
X342Y159D02*
X345Y159D01*
X356Y159D02*
X359Y159D01*
X372Y159D02*
X375Y159D01*
X386Y159D02*
X389Y159D01*
X416Y159D02*
X434Y159D01*
X842Y159D02*
X845Y159D01*
X872Y159D02*
X875Y159D01*
X880Y159D02*
X883Y159D01*
X888Y159D02*
X892Y159D01*
X902Y159D02*
X905Y159D01*
X913Y159D02*
X917Y159D01*
X1020Y159D02*
X1023Y159D01*
X1082Y159D02*
X1084Y159D01*
X1135Y159D02*
X1142Y159D01*
X0Y158D02*
X7Y158D01*
X65Y158D02*
X70Y158D01*
X89Y158D02*
X92Y158D01*
X116Y158D02*
X120Y158D01*
X130Y158D02*
X133Y158D01*
X149Y158D02*
X152Y158D01*
X160Y158D02*
X164Y158D01*
X176Y158D02*
X179Y158D01*
X240Y158D02*
X245Y158D01*
X274Y158D02*
X277Y158D01*
X295Y158D02*
X299Y158D01*
X326Y158D02*
X329Y158D01*
X342Y158D02*
X345Y158D01*
X356Y158D02*
X359Y158D01*
X372Y158D02*
X375Y158D01*
X386Y158D02*
X389Y158D01*
X416Y158D02*
X434Y158D01*
X842Y158D02*
X845Y158D01*
X872Y158D02*
X875Y158D01*
X880Y158D02*
X883Y158D01*
X888Y158D02*
X892Y158D01*
X902Y158D02*
X905Y158D01*
X913Y158D02*
X917Y158D01*
X1020Y158D02*
X1023Y158D01*
X1082Y158D02*
X1084Y158D01*
X1135Y158D02*
X1142Y158D01*
X0Y157D02*
X7Y157D01*
X65Y157D02*
X70Y157D01*
X89Y157D02*
X92Y157D01*
X116Y157D02*
X120Y157D01*
X129Y157D02*
X133Y157D01*
X149Y157D02*
X152Y157D01*
X161Y157D02*
X164Y157D01*
X175Y157D02*
X179Y157D01*
X241Y157D02*
X245Y157D01*
X274Y157D02*
X277Y157D01*
X295Y157D02*
X299Y157D01*
X326Y157D02*
X329Y157D01*
X342Y157D02*
X345Y157D01*
X356Y157D02*
X359Y157D01*
X372Y157D02*
X375Y157D01*
X386Y157D02*
X389Y157D01*
X416Y157D02*
X432Y157D01*
X842Y157D02*
X845Y157D01*
X872Y157D02*
X875Y157D01*
X880Y157D02*
X883Y157D01*
X888Y157D02*
X892Y157D01*
X902Y157D02*
X905Y157D01*
X914Y157D02*
X918Y157D01*
X1020Y157D02*
X1023Y157D01*
X1082Y157D02*
X1084Y157D01*
X1135Y157D02*
X1142Y157D01*
X0Y156D02*
X7Y156D01*
X65Y156D02*
X70Y156D01*
X89Y156D02*
X102Y156D01*
X117Y156D02*
X120Y156D01*
X129Y156D02*
X133Y156D01*
X149Y156D02*
X152Y156D01*
X161Y156D02*
X164Y156D01*
X175Y156D02*
X178Y156D01*
X242Y156D02*
X246Y156D01*
X274Y156D02*
X277Y156D01*
X295Y156D02*
X306Y156D01*
X326Y156D02*
X329Y156D01*
X342Y156D02*
X345Y156D01*
X356Y156D02*
X359Y156D01*
X372Y156D02*
X375Y156D01*
X386Y156D02*
X396Y156D01*
X416Y156D02*
X430Y156D01*
X842Y156D02*
X845Y156D01*
X872Y156D02*
X875Y156D01*
X880Y156D02*
X883Y156D01*
X888Y156D02*
X892Y156D01*
X902Y156D02*
X905Y156D01*
X914Y156D02*
X918Y156D01*
X1020Y156D02*
X1024Y156D01*
X1081Y156D02*
X1084Y156D01*
X1135Y156D02*
X1142Y156D01*
X0Y155D02*
X7Y155D01*
X65Y155D02*
X70Y155D01*
X89Y155D02*
X103Y155D01*
X117Y155D02*
X121Y155D01*
X129Y155D02*
X132Y155D01*
X149Y155D02*
X152Y155D01*
X161Y155D02*
X165Y155D01*
X175Y155D02*
X178Y155D01*
X242Y155D02*
X247Y155D01*
X274Y155D02*
X277Y155D01*
X295Y155D02*
X307Y155D01*
X326Y155D02*
X329Y155D01*
X340Y155D02*
X345Y155D01*
X356Y155D02*
X359Y155D01*
X371Y155D02*
X375Y155D01*
X386Y155D02*
X397Y155D01*
X416Y155D02*
X419Y155D01*
X423Y155D02*
X427Y155D01*
X842Y155D02*
X845Y155D01*
X872Y155D02*
X875Y155D01*
X880Y155D02*
X883Y155D01*
X888Y155D02*
X892Y155D01*
X902Y155D02*
X905Y155D01*
X915Y155D02*
X919Y155D01*
X1020Y155D02*
X1024Y155D01*
X1081Y155D02*
X1084Y155D01*
X1135Y155D02*
X1142Y155D01*
X0Y154D02*
X7Y154D01*
X65Y154D02*
X70Y154D01*
X89Y154D02*
X104Y154D01*
X118Y154D02*
X121Y154D01*
X128Y154D02*
X132Y154D01*
X149Y154D02*
X152Y154D01*
X161Y154D02*
X165Y154D01*
X175Y154D02*
X178Y154D01*
X243Y154D02*
X248Y154D01*
X274Y154D02*
X277Y154D01*
X295Y154D02*
X307Y154D01*
X326Y154D02*
X344Y154D01*
X356Y154D02*
X374Y154D01*
X386Y154D02*
X397Y154D01*
X416Y154D02*
X419Y154D01*
X424Y154D02*
X428Y154D01*
X842Y154D02*
X845Y154D01*
X872Y154D02*
X875Y154D01*
X880Y154D02*
X883Y154D01*
X888Y154D02*
X892Y154D01*
X902Y154D02*
X905Y154D01*
X916Y154D02*
X919Y154D01*
X1020Y154D02*
X1025Y154D01*
X1080Y154D02*
X1084Y154D01*
X1135Y154D02*
X1142Y154D01*
X0Y153D02*
X7Y153D01*
X65Y153D02*
X70Y153D01*
X89Y153D02*
X104Y153D01*
X118Y153D02*
X122Y153D01*
X128Y153D02*
X131Y153D01*
X149Y153D02*
X152Y153D01*
X161Y153D02*
X164Y153D01*
X175Y153D02*
X178Y153D01*
X244Y153D02*
X248Y153D01*
X274Y153D02*
X277Y153D01*
X295Y153D02*
X306Y153D01*
X326Y153D02*
X344Y153D01*
X356Y153D02*
X374Y153D01*
X386Y153D02*
X396Y153D01*
X416Y153D02*
X419Y153D01*
X425Y153D02*
X429Y153D01*
X842Y153D02*
X845Y153D01*
X872Y153D02*
X875Y153D01*
X880Y153D02*
X884Y153D01*
X888Y153D02*
X892Y153D01*
X902Y153D02*
X905Y153D01*
X916Y153D02*
X920Y153D01*
X1020Y153D02*
X1025Y153D01*
X1080Y153D02*
X1084Y153D01*
X1135Y153D02*
X1142Y153D01*
X0Y152D02*
X7Y152D01*
X65Y152D02*
X70Y152D01*
X101Y152D02*
X104Y152D01*
X118Y152D02*
X122Y152D01*
X127Y152D02*
X131Y152D01*
X149Y152D02*
X152Y152D01*
X161Y152D02*
X164Y152D01*
X175Y152D02*
X179Y152D01*
X245Y152D02*
X249Y152D01*
X274Y152D02*
X277Y152D01*
X295Y152D02*
X299Y152D01*
X326Y152D02*
X343Y152D01*
X356Y152D02*
X373Y152D01*
X386Y152D02*
X389Y152D01*
X416Y152D02*
X419Y152D01*
X425Y152D02*
X429Y152D01*
X842Y152D02*
X845Y152D01*
X872Y152D02*
X876Y152D01*
X879Y152D02*
X884Y152D01*
X887Y152D02*
X891Y152D01*
X902Y152D02*
X905Y152D01*
X917Y152D02*
X921Y152D01*
X1020Y152D02*
X1025Y152D01*
X1080Y152D02*
X1084Y152D01*
X1135Y152D02*
X1142Y152D01*
X0Y151D02*
X7Y151D01*
X65Y151D02*
X70Y151D01*
X101Y151D02*
X104Y151D01*
X119Y151D02*
X122Y151D01*
X127Y151D02*
X131Y151D01*
X149Y151D02*
X152Y151D01*
X160Y151D02*
X164Y151D01*
X176Y151D02*
X179Y151D01*
X246Y151D02*
X250Y151D01*
X274Y151D02*
X277Y151D01*
X295Y151D02*
X299Y151D01*
X326Y151D02*
X341Y151D01*
X356Y151D02*
X371Y151D01*
X386Y151D02*
X389Y151D01*
X416Y151D02*
X419Y151D01*
X426Y151D02*
X430Y151D01*
X842Y151D02*
X845Y151D01*
X873Y151D02*
X891Y151D01*
X902Y151D02*
X905Y151D01*
X917Y151D02*
X921Y151D01*
X1020Y151D02*
X1025Y151D01*
X1080Y151D02*
X1084Y151D01*
X1135Y151D02*
X1142Y151D01*
X0Y150D02*
X7Y150D01*
X65Y150D02*
X70Y150D01*
X101Y150D02*
X104Y150D01*
X119Y150D02*
X123Y150D01*
X127Y150D02*
X130Y150D01*
X149Y150D02*
X152Y150D01*
X160Y150D02*
X163Y150D01*
X176Y150D02*
X180Y150D01*
X246Y150D02*
X251Y150D01*
X274Y150D02*
X277Y150D01*
X295Y150D02*
X299Y150D01*
X326Y150D02*
X329Y150D01*
X356Y150D02*
X359Y150D01*
X386Y150D02*
X389Y150D01*
X416Y150D02*
X419Y150D01*
X426Y150D02*
X430Y150D01*
X645Y150D02*
X645Y150D01*
X842Y150D02*
X845Y150D01*
X873Y150D02*
X890Y150D01*
X902Y150D02*
X905Y150D01*
X918Y150D02*
X922Y150D01*
X1020Y150D02*
X1025Y150D01*
X1080Y150D02*
X1084Y150D01*
X1135Y150D02*
X1142Y150D01*
X0Y149D02*
X7Y149D01*
X65Y149D02*
X70Y149D01*
X101Y149D02*
X104Y149D01*
X120Y149D02*
X123Y149D01*
X126Y149D02*
X130Y149D01*
X149Y149D02*
X152Y149D01*
X159Y149D02*
X163Y149D01*
X177Y149D02*
X180Y149D01*
X247Y149D02*
X252Y149D01*
X274Y149D02*
X277Y149D01*
X295Y149D02*
X299Y149D01*
X326Y149D02*
X329Y149D01*
X356Y149D02*
X359Y149D01*
X386Y149D02*
X389Y149D01*
X416Y149D02*
X419Y149D01*
X427Y149D02*
X431Y149D01*
X645Y149D02*
X646Y149D01*
X842Y149D02*
X845Y149D01*
X874Y149D02*
X889Y149D01*
X902Y149D02*
X905Y149D01*
X918Y149D02*
X922Y149D01*
X1020Y149D02*
X1025Y149D01*
X1080Y149D02*
X1088Y149D01*
X1135Y149D02*
X1142Y149D01*
X0Y148D02*
X7Y148D01*
X65Y148D02*
X70Y148D01*
X101Y148D02*
X104Y148D01*
X120Y148D02*
X123Y148D01*
X126Y148D02*
X129Y148D01*
X149Y148D02*
X152Y148D01*
X159Y148D02*
X162Y148D01*
X177Y148D02*
X181Y148D01*
X248Y148D02*
X252Y148D01*
X274Y148D02*
X277Y148D01*
X295Y148D02*
X299Y148D01*
X326Y148D02*
X329Y148D01*
X356Y148D02*
X359Y148D01*
X386Y148D02*
X389Y148D01*
X416Y148D02*
X419Y148D01*
X428Y148D02*
X431Y148D01*
X645Y148D02*
X647Y148D01*
X843Y148D02*
X844Y148D01*
X875Y148D02*
X880Y148D01*
X883Y148D02*
X889Y148D01*
X903Y148D02*
X904Y148D01*
X919Y148D02*
X921Y148D01*
X1020Y148D02*
X1025Y148D01*
X1080Y148D02*
X1092Y148D01*
X1135Y148D02*
X1142Y148D01*
X0Y147D02*
X7Y147D01*
X65Y147D02*
X70Y147D01*
X101Y147D02*
X104Y147D01*
X120Y147D02*
X129Y147D01*
X149Y147D02*
X152Y147D01*
X158Y147D02*
X162Y147D01*
X178Y147D02*
X181Y147D01*
X249Y147D02*
X253Y147D01*
X274Y147D02*
X277Y147D01*
X295Y147D02*
X299Y147D01*
X326Y147D02*
X329Y147D01*
X356Y147D02*
X359Y147D01*
X386Y147D02*
X389Y147D01*
X416Y147D02*
X419Y147D01*
X428Y147D02*
X432Y147D01*
X645Y147D02*
X649Y147D01*
X719Y147D02*
X799Y147D01*
X826Y147D02*
X917Y147D01*
X1020Y147D02*
X1025Y147D01*
X1080Y147D02*
X1094Y147D01*
X1135Y147D02*
X1142Y147D01*
X0Y146D02*
X7Y146D01*
X65Y146D02*
X70Y146D01*
X101Y146D02*
X104Y146D01*
X121Y146D02*
X129Y146D01*
X149Y146D02*
X152Y146D01*
X158Y146D02*
X162Y146D01*
X178Y146D02*
X182Y146D01*
X249Y146D02*
X254Y146D01*
X274Y146D02*
X277Y146D01*
X295Y146D02*
X299Y146D01*
X326Y146D02*
X329Y146D01*
X356Y146D02*
X359Y146D01*
X386Y146D02*
X389Y146D01*
X416Y146D02*
X419Y146D01*
X429Y146D02*
X433Y146D01*
X645Y146D02*
X650Y146D01*
X718Y146D02*
X801Y146D01*
X825Y146D02*
X917Y146D01*
X1020Y146D02*
X1025Y146D01*
X1081Y146D02*
X1097Y146D01*
X1135Y146D02*
X1142Y146D01*
X0Y145D02*
X7Y145D01*
X65Y145D02*
X70Y145D01*
X101Y145D02*
X104Y145D01*
X121Y145D02*
X128Y145D01*
X149Y145D02*
X152Y145D01*
X157Y145D02*
X161Y145D01*
X179Y145D02*
X182Y145D01*
X236Y145D02*
X238Y145D01*
X250Y145D02*
X254Y145D01*
X274Y145D02*
X277Y145D01*
X295Y145D02*
X299Y145D01*
X326Y145D02*
X329Y145D01*
X356Y145D02*
X359Y145D01*
X386Y145D02*
X389Y145D01*
X416Y145D02*
X419Y145D01*
X429Y145D02*
X433Y145D01*
X645Y145D02*
X650Y145D01*
X718Y145D02*
X803Y145D01*
X823Y145D02*
X917Y145D01*
X1020Y145D02*
X1025Y145D01*
X1082Y145D02*
X1098Y145D01*
X1135Y145D02*
X1142Y145D01*
X0Y144D02*
X7Y144D01*
X65Y144D02*
X70Y144D01*
X86Y144D02*
X87Y144D01*
X101Y144D02*
X104Y144D01*
X121Y144D02*
X128Y144D01*
X149Y144D02*
X152Y144D01*
X157Y144D02*
X161Y144D01*
X179Y144D02*
X183Y144D01*
X235Y144D02*
X238Y144D01*
X251Y144D02*
X255Y144D01*
X274Y144D02*
X277Y144D01*
X295Y144D02*
X299Y144D01*
X326Y144D02*
X329Y144D01*
X356Y144D02*
X359Y144D01*
X386Y144D02*
X389Y144D01*
X416Y144D02*
X419Y144D01*
X430Y144D02*
X434Y144D01*
X645Y144D02*
X650Y144D01*
X718Y144D02*
X805Y144D01*
X821Y144D02*
X917Y144D01*
X1020Y144D02*
X1025Y144D01*
X1089Y144D02*
X1100Y144D01*
X1135Y144D02*
X1142Y144D01*
X0Y143D02*
X7Y143D01*
X65Y143D02*
X70Y143D01*
X85Y143D02*
X89Y143D01*
X101Y143D02*
X104Y143D01*
X122Y143D02*
X127Y143D01*
X149Y143D02*
X152Y143D01*
X156Y143D02*
X160Y143D01*
X180Y143D02*
X184Y143D01*
X235Y143D02*
X239Y143D01*
X252Y143D02*
X255Y143D01*
X274Y143D02*
X277Y143D01*
X295Y143D02*
X299Y143D01*
X326Y143D02*
X329Y143D01*
X356Y143D02*
X359Y143D01*
X386Y143D02*
X389Y143D01*
X416Y143D02*
X419Y143D01*
X430Y143D02*
X434Y143D01*
X645Y143D02*
X650Y143D01*
X718Y143D02*
X808Y143D01*
X818Y143D02*
X917Y143D01*
X1020Y143D02*
X1025Y143D01*
X1092Y143D02*
X1101Y143D01*
X1135Y143D02*
X1142Y143D01*
X0Y142D02*
X7Y142D01*
X65Y142D02*
X70Y142D01*
X85Y142D02*
X104Y142D01*
X122Y142D02*
X127Y142D01*
X146Y142D02*
X160Y142D01*
X180Y142D02*
X194Y142D01*
X236Y142D02*
X255Y142D01*
X274Y142D02*
X277Y142D01*
X295Y142D02*
X314Y142D01*
X326Y142D02*
X329Y142D01*
X356Y142D02*
X359Y142D01*
X386Y142D02*
X405Y142D01*
X416Y142D02*
X419Y142D01*
X431Y142D02*
X435Y142D01*
X645Y142D02*
X650Y142D01*
X718Y142D02*
X917Y142D01*
X1020Y142D02*
X1025Y142D01*
X1095Y142D02*
X1103Y142D01*
X1135Y142D02*
X1142Y142D01*
X0Y141D02*
X7Y141D01*
X65Y141D02*
X70Y141D01*
X85Y141D02*
X104Y141D01*
X123Y141D02*
X127Y141D01*
X145Y141D02*
X159Y141D01*
X181Y141D02*
X195Y141D01*
X236Y141D02*
X254Y141D01*
X274Y141D02*
X277Y141D01*
X295Y141D02*
X315Y141D01*
X326Y141D02*
X329Y141D01*
X356Y141D02*
X359Y141D01*
X386Y141D02*
X405Y141D01*
X416Y141D02*
X419Y141D01*
X432Y141D02*
X435Y141D01*
X645Y141D02*
X650Y141D01*
X718Y141D02*
X917Y141D01*
X1020Y141D02*
X1025Y141D01*
X1097Y141D02*
X1104Y141D01*
X1135Y141D02*
X1142Y141D01*
X0Y140D02*
X7Y140D01*
X65Y140D02*
X70Y140D01*
X86Y140D02*
X104Y140D01*
X123Y140D02*
X126Y140D01*
X145Y140D02*
X158Y140D01*
X182Y140D02*
X195Y140D01*
X237Y140D02*
X254Y140D01*
X274Y140D02*
X277Y140D01*
X295Y140D02*
X315Y140D01*
X326Y140D02*
X329Y140D01*
X356Y140D02*
X359Y140D01*
X386Y140D02*
X405Y140D01*
X416Y140D02*
X419Y140D01*
X432Y140D02*
X435Y140D01*
X645Y140D02*
X650Y140D01*
X718Y140D02*
X917Y140D01*
X1020Y140D02*
X1025Y140D01*
X1098Y140D02*
X1105Y140D01*
X1135Y140D02*
X1142Y140D01*
X0Y139D02*
X7Y139D01*
X65Y139D02*
X70Y139D01*
X89Y139D02*
X102Y139D01*
X124Y139D02*
X126Y139D01*
X146Y139D02*
X157Y139D01*
X183Y139D02*
X194Y139D01*
X238Y139D02*
X253Y139D01*
X274Y139D02*
X276Y139D01*
X295Y139D02*
X315Y139D01*
X326Y139D02*
X328Y139D01*
X356Y139D02*
X358Y139D01*
X386Y139D02*
X405Y139D01*
X416Y139D02*
X418Y139D01*
X433Y139D02*
X435Y139D01*
X645Y139D02*
X650Y139D01*
X718Y139D02*
X917Y139D01*
X1020Y139D02*
X1025Y139D01*
X1100Y139D02*
X1106Y139D01*
X1135Y139D02*
X1142Y139D01*
X0Y138D02*
X7Y138D01*
X65Y138D02*
X70Y138D01*
X645Y138D02*
X650Y138D01*
X718Y138D02*
X917Y138D01*
X1020Y138D02*
X1025Y138D01*
X1101Y138D02*
X1107Y138D01*
X1135Y138D02*
X1142Y138D01*
X0Y137D02*
X7Y137D01*
X65Y137D02*
X70Y137D01*
X645Y137D02*
X650Y137D01*
X1020Y137D02*
X1025Y137D01*
X1102Y137D02*
X1107Y137D01*
X1135Y137D02*
X1142Y137D01*
X0Y136D02*
X7Y136D01*
X65Y136D02*
X70Y136D01*
X645Y136D02*
X650Y136D01*
X1020Y136D02*
X1025Y136D01*
X1103Y136D02*
X1108Y136D01*
X1135Y136D02*
X1142Y136D01*
X0Y135D02*
X7Y135D01*
X65Y135D02*
X70Y135D01*
X645Y135D02*
X650Y135D01*
X1020Y135D02*
X1025Y135D01*
X1104Y135D02*
X1109Y135D01*
X1135Y135D02*
X1142Y135D01*
X0Y134D02*
X7Y134D01*
X65Y134D02*
X70Y134D01*
X645Y134D02*
X650Y134D01*
X1020Y134D02*
X1025Y134D01*
X1105Y134D02*
X1109Y134D01*
X1135Y134D02*
X1142Y134D01*
X0Y133D02*
X7Y133D01*
X65Y133D02*
X70Y133D01*
X645Y133D02*
X650Y133D01*
X1020Y133D02*
X1025Y133D01*
X1106Y133D02*
X1110Y133D01*
X1135Y133D02*
X1142Y133D01*
X0Y132D02*
X7Y132D01*
X65Y132D02*
X70Y132D01*
X645Y132D02*
X650Y132D01*
X1021Y132D02*
X1024Y132D01*
X1106Y132D02*
X1111Y132D01*
X1135Y132D02*
X1142Y132D01*
X0Y131D02*
X7Y131D01*
X65Y131D02*
X70Y131D01*
X645Y131D02*
X650Y131D01*
X1021Y131D02*
X1024Y131D01*
X1107Y131D02*
X1111Y131D01*
X1135Y131D02*
X1142Y131D01*
X0Y130D02*
X7Y130D01*
X65Y130D02*
X70Y130D01*
X645Y130D02*
X650Y130D01*
X1022Y130D02*
X1023Y130D01*
X1107Y130D02*
X1112Y130D01*
X1135Y130D02*
X1142Y130D01*
X0Y129D02*
X7Y129D01*
X65Y129D02*
X70Y129D01*
X645Y129D02*
X650Y129D01*
X1108Y129D02*
X1112Y129D01*
X1135Y129D02*
X1142Y129D01*
X0Y128D02*
X7Y128D01*
X65Y128D02*
X70Y128D01*
X645Y128D02*
X650Y128D01*
X1108Y128D02*
X1112Y128D01*
X1135Y128D02*
X1142Y128D01*
X0Y127D02*
X7Y127D01*
X65Y127D02*
X70Y127D01*
X645Y127D02*
X650Y127D01*
X1109Y127D02*
X1113Y127D01*
X1135Y127D02*
X1142Y127D01*
X0Y126D02*
X7Y126D01*
X65Y126D02*
X70Y126D01*
X645Y126D02*
X650Y126D01*
X1109Y126D02*
X1113Y126D01*
X1135Y126D02*
X1142Y126D01*
X0Y125D02*
X7Y125D01*
X65Y125D02*
X70Y125D01*
X645Y125D02*
X650Y125D01*
X1109Y125D02*
X1113Y125D01*
X1135Y125D02*
X1142Y125D01*
X0Y124D02*
X7Y124D01*
X65Y124D02*
X70Y124D01*
X645Y124D02*
X650Y124D01*
X1110Y124D02*
X1114Y124D01*
X1135Y124D02*
X1142Y124D01*
X0Y123D02*
X7Y123D01*
X65Y123D02*
X70Y123D01*
X645Y123D02*
X650Y123D01*
X1110Y123D02*
X1114Y123D01*
X1135Y123D02*
X1142Y123D01*
X0Y122D02*
X7Y122D01*
X65Y122D02*
X70Y122D01*
X645Y122D02*
X650Y122D01*
X1110Y122D02*
X1114Y122D01*
X1135Y122D02*
X1142Y122D01*
X0Y121D02*
X7Y121D01*
X65Y121D02*
X70Y121D01*
X645Y121D02*
X650Y121D01*
X1110Y121D02*
X1114Y121D01*
X1135Y121D02*
X1142Y121D01*
X0Y120D02*
X7Y120D01*
X65Y120D02*
X70Y120D01*
X645Y120D02*
X650Y120D01*
X1110Y120D02*
X1114Y120D01*
X1135Y120D02*
X1142Y120D01*
X0Y119D02*
X7Y119D01*
X65Y119D02*
X70Y119D01*
X645Y119D02*
X650Y119D01*
X1110Y119D02*
X1114Y119D01*
X1135Y119D02*
X1142Y119D01*
X0Y118D02*
X7Y118D01*
X65Y118D02*
X70Y118D01*
X645Y118D02*
X650Y118D01*
X1110Y118D02*
X1114Y118D01*
X1135Y118D02*
X1142Y118D01*
X0Y117D02*
X7Y117D01*
X65Y117D02*
X70Y117D01*
X645Y117D02*
X650Y117D01*
X1110Y117D02*
X1114Y117D01*
X1135Y117D02*
X1142Y117D01*
X0Y116D02*
X7Y116D01*
X65Y116D02*
X70Y116D01*
X645Y116D02*
X650Y116D01*
X1110Y116D02*
X1114Y116D01*
X1135Y116D02*
X1142Y116D01*
X0Y115D02*
X7Y115D01*
X65Y115D02*
X70Y115D01*
X645Y115D02*
X650Y115D01*
X1110Y115D02*
X1114Y115D01*
X1135Y115D02*
X1142Y115D01*
X0Y114D02*
X7Y114D01*
X65Y114D02*
X70Y114D01*
X645Y114D02*
X650Y114D01*
X1110Y114D02*
X1114Y114D01*
X1135Y114D02*
X1142Y114D01*
X0Y113D02*
X7Y113D01*
X65Y113D02*
X70Y113D01*
X645Y113D02*
X650Y113D01*
X1110Y113D02*
X1114Y113D01*
X1135Y113D02*
X1142Y113D01*
X0Y112D02*
X7Y112D01*
X65Y112D02*
X70Y112D01*
X645Y112D02*
X650Y112D01*
X1110Y112D02*
X1114Y112D01*
X1135Y112D02*
X1142Y112D01*
X0Y111D02*
X7Y111D01*
X65Y111D02*
X70Y111D01*
X645Y111D02*
X650Y111D01*
X1110Y111D02*
X1114Y111D01*
X1135Y111D02*
X1142Y111D01*
X0Y110D02*
X7Y110D01*
X65Y110D02*
X70Y110D01*
X645Y110D02*
X650Y110D01*
X1110Y110D02*
X1114Y110D01*
X1135Y110D02*
X1142Y110D01*
X0Y109D02*
X7Y109D01*
X65Y109D02*
X70Y109D01*
X645Y109D02*
X650Y109D01*
X1109Y109D02*
X1113Y109D01*
X1135Y109D02*
X1142Y109D01*
X0Y108D02*
X7Y108D01*
X65Y108D02*
X70Y108D01*
X645Y108D02*
X650Y108D01*
X1109Y108D02*
X1113Y108D01*
X1135Y108D02*
X1142Y108D01*
X0Y107D02*
X7Y107D01*
X65Y107D02*
X70Y107D01*
X645Y107D02*
X650Y107D01*
X1109Y107D02*
X1113Y107D01*
X1135Y107D02*
X1142Y107D01*
X0Y106D02*
X7Y106D01*
X65Y106D02*
X70Y106D01*
X645Y106D02*
X650Y106D01*
X1108Y106D02*
X1112Y106D01*
X1135Y106D02*
X1142Y106D01*
X0Y105D02*
X7Y105D01*
X65Y105D02*
X70Y105D01*
X645Y105D02*
X650Y105D01*
X1108Y105D02*
X1112Y105D01*
X1135Y105D02*
X1142Y105D01*
X0Y104D02*
X7Y104D01*
X65Y104D02*
X70Y104D01*
X645Y104D02*
X650Y104D01*
X1021Y104D02*
X1024Y104D01*
X1107Y104D02*
X1112Y104D01*
X1135Y104D02*
X1142Y104D01*
X0Y103D02*
X7Y103D01*
X65Y103D02*
X70Y103D01*
X645Y103D02*
X650Y103D01*
X1021Y103D02*
X1024Y103D01*
X1107Y103D02*
X1111Y103D01*
X1135Y103D02*
X1142Y103D01*
X0Y102D02*
X7Y102D01*
X65Y102D02*
X70Y102D01*
X645Y102D02*
X650Y102D01*
X1021Y102D02*
X1024Y102D01*
X1106Y102D02*
X1111Y102D01*
X1135Y102D02*
X1142Y102D01*
X0Y101D02*
X7Y101D01*
X65Y101D02*
X70Y101D01*
X645Y101D02*
X650Y101D01*
X1020Y101D02*
X1025Y101D01*
X1105Y101D02*
X1110Y101D01*
X1135Y101D02*
X1142Y101D01*
X0Y100D02*
X7Y100D01*
X65Y100D02*
X70Y100D01*
X645Y100D02*
X650Y100D01*
X1020Y100D02*
X1025Y100D01*
X1105Y100D02*
X1109Y100D01*
X1135Y100D02*
X1142Y100D01*
X0Y99D02*
X7Y99D01*
X65Y99D02*
X70Y99D01*
X645Y99D02*
X650Y99D01*
X1020Y99D02*
X1025Y99D01*
X1104Y99D02*
X1109Y99D01*
X1135Y99D02*
X1142Y99D01*
X0Y98D02*
X7Y98D01*
X65Y98D02*
X70Y98D01*
X645Y98D02*
X650Y98D01*
X1020Y98D02*
X1025Y98D01*
X1103Y98D02*
X1108Y98D01*
X1135Y98D02*
X1142Y98D01*
X0Y97D02*
X7Y97D01*
X65Y97D02*
X70Y97D01*
X645Y97D02*
X650Y97D01*
X1020Y97D02*
X1025Y97D01*
X1102Y97D02*
X1107Y97D01*
X1135Y97D02*
X1142Y97D01*
X0Y96D02*
X7Y96D01*
X65Y96D02*
X70Y96D01*
X645Y96D02*
X650Y96D01*
X1020Y96D02*
X1025Y96D01*
X1101Y96D02*
X1106Y96D01*
X1135Y96D02*
X1142Y96D01*
X0Y95D02*
X7Y95D01*
X65Y95D02*
X70Y95D01*
X645Y95D02*
X650Y95D01*
X1020Y95D02*
X1025Y95D01*
X1099Y95D02*
X1105Y95D01*
X1135Y95D02*
X1142Y95D01*
X0Y94D02*
X7Y94D01*
X65Y94D02*
X70Y94D01*
X645Y94D02*
X650Y94D01*
X1020Y94D02*
X1025Y94D01*
X1098Y94D02*
X1104Y94D01*
X1135Y94D02*
X1142Y94D01*
X0Y93D02*
X7Y93D01*
X65Y93D02*
X70Y93D01*
X645Y93D02*
X650Y93D01*
X1020Y93D02*
X1025Y93D01*
X1096Y93D02*
X1103Y93D01*
X1135Y93D02*
X1142Y93D01*
X0Y92D02*
X7Y92D01*
X65Y92D02*
X70Y92D01*
X645Y92D02*
X650Y92D01*
X1020Y92D02*
X1025Y92D01*
X1094Y92D02*
X1102Y92D01*
X1135Y92D02*
X1142Y92D01*
X0Y91D02*
X7Y91D01*
X65Y91D02*
X70Y91D01*
X645Y91D02*
X650Y91D01*
X1020Y91D02*
X1025Y91D01*
X1092Y91D02*
X1101Y91D01*
X1135Y91D02*
X1142Y91D01*
X0Y90D02*
X7Y90D01*
X65Y90D02*
X70Y90D01*
X645Y90D02*
X650Y90D01*
X1020Y90D02*
X1025Y90D01*
X1087Y90D02*
X1100Y90D01*
X1135Y90D02*
X1142Y90D01*
X0Y89D02*
X7Y89D01*
X65Y89D02*
X70Y89D01*
X645Y89D02*
X650Y89D01*
X1020Y89D02*
X1025Y89D01*
X1081Y89D02*
X1098Y89D01*
X1135Y89D02*
X1142Y89D01*
X0Y88D02*
X7Y88D01*
X65Y88D02*
X70Y88D01*
X645Y88D02*
X650Y88D01*
X1020Y88D02*
X1025Y88D01*
X1081Y88D02*
X1096Y88D01*
X1135Y88D02*
X1142Y88D01*
X0Y87D02*
X7Y87D01*
X65Y87D02*
X70Y87D01*
X645Y87D02*
X650Y87D01*
X1020Y87D02*
X1025Y87D01*
X1080Y87D02*
X1094Y87D01*
X1135Y87D02*
X1142Y87D01*
X0Y86D02*
X7Y86D01*
X65Y86D02*
X70Y86D01*
X645Y86D02*
X650Y86D01*
X1020Y86D02*
X1025Y86D01*
X1080Y86D02*
X1091Y86D01*
X1135Y86D02*
X1142Y86D01*
X0Y85D02*
X7Y85D01*
X65Y85D02*
X70Y85D01*
X645Y85D02*
X650Y85D01*
X1020Y85D02*
X1025Y85D01*
X1080Y85D02*
X1086Y85D01*
X1135Y85D02*
X1142Y85D01*
X0Y84D02*
X7Y84D01*
X65Y84D02*
X70Y84D01*
X645Y84D02*
X650Y84D01*
X1020Y84D02*
X1025Y84D01*
X1080Y84D02*
X1084Y84D01*
X1135Y84D02*
X1142Y84D01*
X0Y83D02*
X7Y83D01*
X65Y83D02*
X70Y83D01*
X645Y83D02*
X650Y83D01*
X1020Y83D02*
X1025Y83D01*
X1080Y83D02*
X1084Y83D01*
X1135Y83D02*
X1142Y83D01*
X0Y82D02*
X7Y82D01*
X65Y82D02*
X70Y82D01*
X645Y82D02*
X650Y82D01*
X1020Y82D02*
X1025Y82D01*
X1080Y82D02*
X1084Y82D01*
X1135Y82D02*
X1142Y82D01*
X0Y81D02*
X7Y81D01*
X65Y81D02*
X70Y81D01*
X645Y81D02*
X650Y81D01*
X1020Y81D02*
X1025Y81D01*
X1080Y81D02*
X1084Y81D01*
X1135Y81D02*
X1142Y81D01*
X0Y80D02*
X7Y80D01*
X65Y80D02*
X70Y80D01*
X645Y80D02*
X650Y80D01*
X1020Y80D02*
X1025Y80D01*
X1080Y80D02*
X1084Y80D01*
X1135Y80D02*
X1142Y80D01*
X0Y79D02*
X7Y79D01*
X65Y79D02*
X70Y79D01*
X645Y79D02*
X650Y79D01*
X1020Y79D02*
X1024Y79D01*
X1081Y79D02*
X1084Y79D01*
X1135Y79D02*
X1142Y79D01*
X0Y78D02*
X7Y78D01*
X65Y78D02*
X70Y78D01*
X645Y78D02*
X650Y78D01*
X719Y78D02*
X720Y78D01*
X1020Y78D02*
X1024Y78D01*
X1081Y78D02*
X1084Y78D01*
X1135Y78D02*
X1142Y78D01*
X0Y77D02*
X7Y77D01*
X65Y77D02*
X70Y77D01*
X645Y77D02*
X650Y77D01*
X718Y77D02*
X721Y77D01*
X1020Y77D02*
X1023Y77D01*
X1082Y77D02*
X1084Y77D01*
X1135Y77D02*
X1142Y77D01*
X0Y76D02*
X7Y76D01*
X65Y76D02*
X70Y76D01*
X645Y76D02*
X650Y76D01*
X717Y76D02*
X722Y76D01*
X1020Y76D02*
X1023Y76D01*
X1082Y76D02*
X1084Y76D01*
X1135Y76D02*
X1142Y76D01*
X0Y75D02*
X7Y75D01*
X65Y75D02*
X70Y75D01*
X645Y75D02*
X650Y75D01*
X717Y75D02*
X723Y75D01*
X1020Y75D02*
X1023Y75D01*
X1082Y75D02*
X1084Y75D01*
X1135Y75D02*
X1142Y75D01*
X0Y74D02*
X7Y74D01*
X65Y74D02*
X70Y74D01*
X645Y74D02*
X650Y74D01*
X718Y74D02*
X723Y74D01*
X1020Y74D02*
X1022Y74D01*
X1083Y74D02*
X1084Y74D01*
X1135Y74D02*
X1142Y74D01*
X0Y73D02*
X7Y73D01*
X65Y73D02*
X70Y73D01*
X645Y73D02*
X650Y73D01*
X719Y73D02*
X723Y73D01*
X1020Y73D02*
X1022Y73D01*
X1083Y73D02*
X1084Y73D01*
X1135Y73D02*
X1142Y73D01*
X0Y72D02*
X7Y72D01*
X65Y72D02*
X70Y72D01*
X645Y72D02*
X650Y72D01*
X720Y72D02*
X723Y72D01*
X1020Y72D02*
X1022Y72D01*
X1083Y72D02*
X1084Y72D01*
X1135Y72D02*
X1142Y72D01*
X0Y71D02*
X7Y71D01*
X65Y71D02*
X70Y71D01*
X645Y71D02*
X650Y71D01*
X721Y71D02*
X723Y71D01*
X1020Y71D02*
X1022Y71D01*
X1083Y71D02*
X1084Y71D01*
X1135Y71D02*
X1142Y71D01*
X0Y70D02*
X7Y70D01*
X65Y70D02*
X70Y70D01*
X645Y70D02*
X650Y70D01*
X722Y70D02*
X723Y70D01*
X1020Y70D02*
X1021Y70D01*
X1084Y70D02*
X1084Y70D01*
X1135Y70D02*
X1142Y70D01*
X0Y69D02*
X7Y69D01*
X65Y69D02*
X70Y69D01*
X645Y69D02*
X650Y69D01*
X723Y69D02*
X723Y69D01*
X1020Y69D02*
X1021Y69D01*
X1084Y69D02*
X1084Y69D01*
X1135Y69D02*
X1142Y69D01*
X0Y68D02*
X7Y68D01*
X65Y68D02*
X70Y68D01*
X645Y68D02*
X650Y68D01*
X1020Y68D02*
X1021Y68D01*
X1084Y68D02*
X1084Y68D01*
X1135Y68D02*
X1142Y68D01*
X0Y67D02*
X7Y67D01*
X65Y67D02*
X70Y67D01*
X645Y67D02*
X650Y67D01*
X1020Y67D02*
X1021Y67D01*
X1084Y67D02*
X1084Y67D01*
X1135Y67D02*
X1142Y67D01*
X0Y66D02*
X7Y66D01*
X65Y66D02*
X70Y66D01*
X645Y66D02*
X650Y66D01*
X1020Y66D02*
X1021Y66D01*
X1084Y66D02*
X1084Y66D01*
X1135Y66D02*
X1142Y66D01*
X0Y65D02*
X7Y65D01*
X65Y65D02*
X70Y65D01*
X645Y65D02*
X650Y65D01*
X1020Y65D02*
X1021Y65D01*
X1084Y65D02*
X1084Y65D01*
X1135Y65D02*
X1142Y65D01*
X0Y64D02*
X7Y64D01*
X65Y64D02*
X70Y64D01*
X645Y64D02*
X650Y64D01*
X1020Y64D02*
X1021Y64D01*
X1083Y64D02*
X1084Y64D01*
X1135Y64D02*
X1142Y64D01*
X0Y63D02*
X7Y63D01*
X65Y63D02*
X70Y63D01*
X645Y63D02*
X650Y63D01*
X1020Y63D02*
X1022Y63D01*
X1083Y63D02*
X1084Y63D01*
X1135Y63D02*
X1142Y63D01*
X0Y62D02*
X7Y62D01*
X65Y62D02*
X70Y62D01*
X645Y62D02*
X650Y62D01*
X1020Y62D02*
X1022Y62D01*
X1083Y62D02*
X1084Y62D01*
X1135Y62D02*
X1142Y62D01*
X0Y61D02*
X7Y61D01*
X65Y61D02*
X70Y61D01*
X645Y61D02*
X650Y61D01*
X1020Y61D02*
X1022Y61D01*
X1083Y61D02*
X1084Y61D01*
X1135Y61D02*
X1142Y61D01*
X0Y60D02*
X7Y60D01*
X65Y60D02*
X70Y60D01*
X645Y60D02*
X650Y60D01*
X1020Y60D02*
X1022Y60D01*
X1083Y60D02*
X1084Y60D01*
X1135Y60D02*
X1142Y60D01*
X0Y59D02*
X7Y59D01*
X65Y59D02*
X70Y59D01*
X645Y59D02*
X650Y59D01*
X1020Y59D02*
X1023Y59D01*
X1082Y59D02*
X1084Y59D01*
X1135Y59D02*
X1142Y59D01*
X0Y58D02*
X7Y58D01*
X65Y58D02*
X70Y58D01*
X645Y58D02*
X650Y58D01*
X1020Y58D02*
X1023Y58D01*
X1082Y58D02*
X1084Y58D01*
X1135Y58D02*
X1142Y58D01*
X0Y57D02*
X7Y57D01*
X65Y57D02*
X70Y57D01*
X645Y57D02*
X650Y57D01*
X1020Y57D02*
X1023Y57D01*
X1082Y57D02*
X1084Y57D01*
X1135Y57D02*
X1142Y57D01*
X0Y56D02*
X7Y56D01*
X65Y56D02*
X70Y56D01*
X645Y56D02*
X650Y56D01*
X1020Y56D02*
X1024Y56D01*
X1081Y56D02*
X1084Y56D01*
X1135Y56D02*
X1142Y56D01*
X0Y55D02*
X7Y55D01*
X65Y55D02*
X70Y55D01*
X645Y55D02*
X650Y55D01*
X1020Y55D02*
X1024Y55D01*
X1081Y55D02*
X1084Y55D01*
X1135Y55D02*
X1142Y55D01*
X0Y54D02*
X7Y54D01*
X65Y54D02*
X70Y54D01*
X645Y54D02*
X650Y54D01*
X1020Y54D02*
X1025Y54D01*
X1080Y54D02*
X1084Y54D01*
X1135Y54D02*
X1142Y54D01*
X0Y53D02*
X7Y53D01*
X65Y53D02*
X70Y53D01*
X645Y53D02*
X650Y53D01*
X1020Y53D02*
X1025Y53D01*
X1080Y53D02*
X1084Y53D01*
X1135Y53D02*
X1142Y53D01*
X0Y52D02*
X7Y52D01*
X65Y52D02*
X70Y52D01*
X645Y52D02*
X650Y52D01*
X1020Y52D02*
X1025Y52D01*
X1080Y52D02*
X1084Y52D01*
X1135Y52D02*
X1142Y52D01*
X0Y51D02*
X7Y51D01*
X65Y51D02*
X70Y51D01*
X153Y51D02*
X153Y51D01*
X645Y51D02*
X650Y51D01*
X1020Y51D02*
X1025Y51D01*
X1080Y51D02*
X1084Y51D01*
X1135Y51D02*
X1142Y51D01*
X0Y50D02*
X7Y50D01*
X65Y50D02*
X70Y50D01*
X152Y50D02*
X155Y50D01*
X645Y50D02*
X650Y50D01*
X1020Y50D02*
X1025Y50D01*
X1080Y50D02*
X1084Y50D01*
X1135Y50D02*
X1142Y50D01*
X0Y49D02*
X7Y49D01*
X65Y49D02*
X70Y49D01*
X152Y49D02*
X155Y49D01*
X645Y49D02*
X650Y49D01*
X1020Y49D02*
X1025Y49D01*
X1080Y49D02*
X1084Y49D01*
X1135Y49D02*
X1142Y49D01*
X0Y48D02*
X7Y48D01*
X65Y48D02*
X70Y48D01*
X152Y48D02*
X155Y48D01*
X645Y48D02*
X650Y48D01*
X744Y48D02*
X750Y48D01*
X1020Y48D02*
X1025Y48D01*
X1080Y48D02*
X1084Y48D01*
X1135Y48D02*
X1142Y48D01*
X0Y47D02*
X7Y47D01*
X65Y47D02*
X70Y47D01*
X152Y47D02*
X155Y47D01*
X645Y47D02*
X650Y47D01*
X745Y47D02*
X751Y47D01*
X1020Y47D02*
X1025Y47D01*
X1080Y47D02*
X1084Y47D01*
X1135Y47D02*
X1142Y47D01*
X0Y46D02*
X7Y46D01*
X65Y46D02*
X70Y46D01*
X152Y46D02*
X155Y46D01*
X645Y46D02*
X650Y46D01*
X746Y46D02*
X752Y46D01*
X1020Y46D02*
X1025Y46D01*
X1080Y46D02*
X1084Y46D01*
X1135Y46D02*
X1142Y46D01*
X0Y45D02*
X7Y45D01*
X65Y45D02*
X70Y45D01*
X152Y45D02*
X155Y45D01*
X645Y45D02*
X650Y45D01*
X747Y45D02*
X753Y45D01*
X1020Y45D02*
X1025Y45D01*
X1080Y45D02*
X1084Y45D01*
X1135Y45D02*
X1142Y45D01*
X0Y44D02*
X7Y44D01*
X65Y44D02*
X70Y44D01*
X152Y44D02*
X155Y44D01*
X645Y44D02*
X650Y44D01*
X748Y44D02*
X754Y44D01*
X1020Y44D02*
X1025Y44D01*
X1080Y44D02*
X1084Y44D01*
X1135Y44D02*
X1142Y44D01*
X0Y43D02*
X7Y43D01*
X65Y43D02*
X70Y43D01*
X152Y43D02*
X155Y43D01*
X245Y43D02*
X245Y43D01*
X252Y43D02*
X254Y43D01*
X645Y43D02*
X650Y43D01*
X749Y43D02*
X753Y43D01*
X1020Y43D02*
X1025Y43D01*
X1080Y43D02*
X1084Y43D01*
X1135Y43D02*
X1142Y43D01*
X0Y42D02*
X7Y42D01*
X65Y42D02*
X70Y42D01*
X152Y42D02*
X155Y42D01*
X160Y42D02*
X165Y42D01*
X243Y42D02*
X246Y42D01*
X250Y42D02*
X257Y42D01*
X336Y42D02*
X337Y42D01*
X353Y42D02*
X353Y42D01*
X433Y42D02*
X440Y42D01*
X549Y42D02*
X550Y42D01*
X558Y42D02*
X563Y42D01*
X645Y42D02*
X650Y42D01*
X750Y42D02*
X752Y42D01*
X1020Y42D02*
X1025Y42D01*
X1080Y42D02*
X1084Y42D01*
X1135Y42D02*
X1142Y42D01*
X0Y41D02*
X7Y41D01*
X65Y41D02*
X70Y41D01*
X152Y41D02*
X155Y41D01*
X158Y41D02*
X167Y41D01*
X243Y41D02*
X246Y41D01*
X248Y41D02*
X258Y41D01*
X335Y41D02*
X338Y41D01*
X352Y41D02*
X354Y41D01*
X430Y41D02*
X442Y41D01*
X548Y41D02*
X551Y41D01*
X556Y41D02*
X565Y41D01*
X645Y41D02*
X650Y41D01*
X751Y41D02*
X751Y41D01*
X1020Y41D02*
X1025Y41D01*
X1080Y41D02*
X1084Y41D01*
X1135Y41D02*
X1142Y41D01*
X0Y40D02*
X7Y40D01*
X65Y40D02*
X70Y40D01*
X152Y40D02*
X169Y40D01*
X243Y40D02*
X259Y40D01*
X335Y40D02*
X338Y40D01*
X351Y40D02*
X355Y40D01*
X429Y40D02*
X443Y40D01*
X548Y40D02*
X551Y40D01*
X555Y40D02*
X567Y40D01*
X645Y40D02*
X650Y40D01*
X1020Y40D02*
X1025Y40D01*
X1080Y40D02*
X1084Y40D01*
X1135Y40D02*
X1142Y40D01*
X0Y39D02*
X7Y39D01*
X65Y39D02*
X70Y39D01*
X152Y39D02*
X170Y39D01*
X243Y39D02*
X260Y39D01*
X335Y39D02*
X338Y39D01*
X351Y39D02*
X355Y39D01*
X428Y39D02*
X444Y39D01*
X548Y39D02*
X551Y39D01*
X554Y39D02*
X567Y39D01*
X645Y39D02*
X650Y39D01*
X1020Y39D02*
X1025Y39D01*
X1080Y39D02*
X1084Y39D01*
X1135Y39D02*
X1142Y39D01*
X0Y38D02*
X7Y38D01*
X65Y38D02*
X70Y38D01*
X152Y38D02*
X171Y38D01*
X243Y38D02*
X250Y38D01*
X256Y38D02*
X261Y38D01*
X335Y38D02*
X338Y38D01*
X351Y38D02*
X355Y38D01*
X427Y38D02*
X445Y38D01*
X548Y38D02*
X568Y38D01*
X645Y38D02*
X650Y38D01*
X1020Y38D02*
X1025Y38D01*
X1080Y38D02*
X1084Y38D01*
X1135Y38D02*
X1142Y38D01*
X0Y37D02*
X7Y37D01*
X65Y37D02*
X70Y37D01*
X152Y37D02*
X159Y37D01*
X167Y37D02*
X171Y37D01*
X243Y37D02*
X250Y37D01*
X257Y37D02*
X262Y37D01*
X335Y37D02*
X338Y37D01*
X351Y37D02*
X355Y37D01*
X427Y37D02*
X431Y37D01*
X441Y37D02*
X446Y37D01*
X548Y37D02*
X557Y37D01*
X564Y37D02*
X568Y37D01*
X645Y37D02*
X650Y37D01*
X878Y37D02*
X880Y37D01*
X1020Y37D02*
X1025Y37D01*
X1080Y37D02*
X1084Y37D01*
X1135Y37D02*
X1142Y37D01*
X0Y36D02*
X7Y36D01*
X65Y36D02*
X70Y36D01*
X152Y36D02*
X157Y36D01*
X168Y36D02*
X171Y36D01*
X243Y36D02*
X249Y36D01*
X258Y36D02*
X263Y36D01*
X335Y36D02*
X338Y36D01*
X351Y36D02*
X354Y36D01*
X426Y36D02*
X430Y36D01*
X442Y36D02*
X446Y36D01*
X548Y36D02*
X556Y36D01*
X565Y36D02*
X568Y36D01*
X645Y36D02*
X650Y36D01*
X877Y36D02*
X881Y36D01*
X1020Y36D02*
X1025Y36D01*
X1080Y36D02*
X1084Y36D01*
X1135Y36D02*
X1142Y36D01*
X0Y35D02*
X7Y35D01*
X65Y35D02*
X70Y35D01*
X152Y35D02*
X156Y35D01*
X168Y35D02*
X172Y35D01*
X243Y35D02*
X248Y35D01*
X259Y35D02*
X263Y35D01*
X335Y35D02*
X339Y35D01*
X350Y35D02*
X354Y35D01*
X426Y35D02*
X429Y35D01*
X443Y35D02*
X446Y35D01*
X548Y35D02*
X555Y35D01*
X565Y35D02*
X568Y35D01*
X645Y35D02*
X650Y35D01*
X877Y35D02*
X881Y35D01*
X1020Y35D02*
X1025Y35D01*
X1080Y35D02*
X1084Y35D01*
X1135Y35D02*
X1142Y35D01*
X0Y34D02*
X7Y34D01*
X65Y34D02*
X70Y34D01*
X152Y34D02*
X155Y34D01*
X168Y34D02*
X172Y34D01*
X243Y34D02*
X247Y34D01*
X260Y34D02*
X263Y34D01*
X336Y34D02*
X339Y34D01*
X350Y34D02*
X354Y34D01*
X426Y34D02*
X429Y34D01*
X443Y34D02*
X446Y34D01*
X548Y34D02*
X554Y34D01*
X565Y34D02*
X568Y34D01*
X645Y34D02*
X650Y34D01*
X877Y34D02*
X881Y34D01*
X1020Y34D02*
X1025Y34D01*
X1080Y34D02*
X1084Y34D01*
X1135Y34D02*
X1142Y34D01*
X0Y33D02*
X7Y33D01*
X65Y33D02*
X70Y33D01*
X152Y33D02*
X155Y33D01*
X168Y33D02*
X172Y33D01*
X243Y33D02*
X246Y33D01*
X260Y33D02*
X263Y33D01*
X336Y33D02*
X340Y33D01*
X350Y33D02*
X353Y33D01*
X426Y33D02*
X429Y33D01*
X443Y33D02*
X446Y33D01*
X548Y33D02*
X553Y33D01*
X566Y33D02*
X567Y33D01*
X645Y33D02*
X650Y33D01*
X877Y33D02*
X881Y33D01*
X1020Y33D02*
X1025Y33D01*
X1080Y33D02*
X1084Y33D01*
X1135Y33D02*
X1142Y33D01*
X0Y32D02*
X7Y32D01*
X65Y32D02*
X70Y32D01*
X152Y32D02*
X155Y32D01*
X168Y32D02*
X172Y32D01*
X243Y32D02*
X246Y32D01*
X260Y32D02*
X263Y32D01*
X336Y32D02*
X340Y32D01*
X349Y32D02*
X353Y32D01*
X426Y32D02*
X429Y32D01*
X443Y32D02*
X446Y32D01*
X548Y32D02*
X552Y32D01*
X645Y32D02*
X650Y32D01*
X877Y32D02*
X881Y32D01*
X1021Y32D02*
X1024Y32D01*
X1080Y32D02*
X1084Y32D01*
X1135Y32D02*
X1142Y32D01*
X0Y31D02*
X7Y31D01*
X65Y31D02*
X70Y31D01*
X152Y31D02*
X155Y31D01*
X168Y31D02*
X172Y31D01*
X243Y31D02*
X246Y31D01*
X260Y31D02*
X263Y31D01*
X337Y31D02*
X340Y31D01*
X349Y31D02*
X352Y31D01*
X426Y31D02*
X429Y31D01*
X443Y31D02*
X446Y31D01*
X548Y31D02*
X551Y31D01*
X645Y31D02*
X650Y31D01*
X877Y31D02*
X881Y31D01*
X1021Y31D02*
X1024Y31D01*
X1081Y31D02*
X1084Y31D01*
X1135Y31D02*
X1142Y31D01*
X0Y30D02*
X7Y30D01*
X65Y30D02*
X70Y30D01*
X152Y30D02*
X155Y30D01*
X168Y30D02*
X172Y30D01*
X243Y30D02*
X246Y30D01*
X260Y30D02*
X263Y30D01*
X337Y30D02*
X341Y30D01*
X348Y30D02*
X352Y30D01*
X426Y30D02*
X429Y30D01*
X443Y30D02*
X446Y30D01*
X548Y30D02*
X551Y30D01*
X645Y30D02*
X650Y30D01*
X877Y30D02*
X881Y30D01*
X1022Y30D02*
X1023Y30D01*
X1082Y30D02*
X1083Y30D01*
X1135Y30D02*
X1142Y30D01*
X0Y29D02*
X7Y29D01*
X65Y29D02*
X70Y29D01*
X152Y29D02*
X155Y29D01*
X168Y29D02*
X172Y29D01*
X243Y29D02*
X246Y29D01*
X260Y29D02*
X263Y29D01*
X338Y29D02*
X341Y29D01*
X348Y29D02*
X351Y29D01*
X426Y29D02*
X429Y29D01*
X443Y29D02*
X446Y29D01*
X548Y29D02*
X551Y29D01*
X645Y29D02*
X650Y29D01*
X877Y29D02*
X881Y29D01*
X1135Y29D02*
X1142Y29D01*
X0Y28D02*
X7Y28D01*
X65Y28D02*
X70Y28D01*
X152Y28D02*
X155Y28D01*
X168Y28D02*
X172Y28D01*
X243Y28D02*
X246Y28D01*
X260Y28D02*
X263Y28D01*
X338Y28D02*
X342Y28D01*
X347Y28D02*
X351Y28D01*
X426Y28D02*
X429Y28D01*
X443Y28D02*
X446Y28D01*
X548Y28D02*
X551Y28D01*
X645Y28D02*
X650Y28D01*
X877Y28D02*
X881Y28D01*
X1135Y28D02*
X1142Y28D01*
X0Y27D02*
X7Y27D01*
X65Y27D02*
X70Y27D01*
X152Y27D02*
X155Y27D01*
X168Y27D02*
X172Y27D01*
X243Y27D02*
X246Y27D01*
X260Y27D02*
X263Y27D01*
X339Y27D02*
X342Y27D01*
X347Y27D02*
X351Y27D01*
X426Y27D02*
X429Y27D01*
X443Y27D02*
X446Y27D01*
X548Y27D02*
X551Y27D01*
X645Y27D02*
X650Y27D01*
X876Y27D02*
X881Y27D01*
X1135Y27D02*
X1142Y27D01*
X0Y26D02*
X7Y26D01*
X65Y26D02*
X70Y26D01*
X152Y26D02*
X156Y26D01*
X168Y26D02*
X172Y26D01*
X243Y26D02*
X247Y26D01*
X260Y26D02*
X263Y26D01*
X339Y26D02*
X343Y26D01*
X346Y26D02*
X350Y26D01*
X426Y26D02*
X429Y26D01*
X443Y26D02*
X446Y26D01*
X548Y26D02*
X551Y26D01*
X645Y26D02*
X650Y26D01*
X750Y26D02*
X774Y26D01*
X867Y26D02*
X891Y26D01*
X1135Y26D02*
X1142Y26D01*
X0Y25D02*
X7Y25D01*
X65Y25D02*
X70Y25D01*
X152Y25D02*
X157Y25D01*
X168Y25D02*
X172Y25D01*
X243Y25D02*
X248Y25D01*
X259Y25D02*
X263Y25D01*
X339Y25D02*
X343Y25D01*
X346Y25D02*
X350Y25D01*
X426Y25D02*
X430Y25D01*
X443Y25D02*
X446Y25D01*
X548Y25D02*
X551Y25D01*
X645Y25D02*
X650Y25D01*
X749Y25D02*
X774Y25D01*
X866Y25D02*
X892Y25D01*
X1135Y25D02*
X1142Y25D01*
X0Y24D02*
X7Y24D01*
X65Y24D02*
X70Y24D01*
X152Y24D02*
X158Y24D01*
X167Y24D02*
X171Y24D01*
X243Y24D02*
X249Y24D01*
X258Y24D02*
X262Y24D01*
X340Y24D02*
X349Y24D01*
X426Y24D02*
X430Y24D01*
X442Y24D02*
X446Y24D01*
X548Y24D02*
X551Y24D01*
X645Y24D02*
X650Y24D01*
X749Y24D02*
X775Y24D01*
X866Y24D02*
X892Y24D01*
X1135Y24D02*
X1142Y24D01*
X0Y23D02*
X7Y23D01*
X65Y23D02*
X70Y23D01*
X152Y23D02*
X159Y23D01*
X166Y23D02*
X171Y23D01*
X243Y23D02*
X250Y23D01*
X256Y23D02*
X262Y23D01*
X340Y23D02*
X349Y23D01*
X427Y23D02*
X432Y23D01*
X441Y23D02*
X445Y23D01*
X548Y23D02*
X551Y23D01*
X645Y23D02*
X650Y23D01*
X749Y23D02*
X775Y23D01*
X866Y23D02*
X891Y23D01*
X1135Y23D02*
X1142Y23D01*
X0Y22D02*
X7Y22D01*
X65Y22D02*
X70Y22D01*
X152Y22D02*
X170Y22D01*
X243Y22D02*
X251Y22D01*
X255Y22D02*
X261Y22D01*
X341Y22D02*
X348Y22D01*
X427Y22D02*
X445Y22D01*
X548Y22D02*
X551Y22D01*
X645Y22D02*
X650Y22D01*
X749Y22D02*
X775Y22D01*
X867Y22D02*
X891Y22D01*
X1135Y22D02*
X1142Y22D01*
X0Y21D02*
X7Y21D01*
X65Y21D02*
X70Y21D01*
X152Y21D02*
X169Y21D01*
X243Y21D02*
X260Y21D01*
X341Y21D02*
X348Y21D01*
X428Y21D02*
X444Y21D01*
X548Y21D02*
X551Y21D01*
X645Y21D02*
X650Y21D01*
X749Y21D02*
X774Y21D01*
X876Y21D02*
X881Y21D01*
X1135Y21D02*
X1142Y21D01*
X0Y20D02*
X7Y20D01*
X65Y20D02*
X70Y20D01*
X152Y20D02*
X155Y20D01*
X157Y20D02*
X168Y20D01*
X243Y20D02*
X259Y20D01*
X343Y20D02*
X348Y20D01*
X430Y20D02*
X443Y20D01*
X548Y20D02*
X551Y20D01*
X645Y20D02*
X650Y20D01*
X749Y20D02*
X774Y20D01*
X877Y20D02*
X881Y20D01*
X1135Y20D02*
X1142Y20D01*
X0Y19D02*
X7Y19D01*
X65Y19D02*
X70Y19D01*
X152Y19D02*
X154Y19D01*
X159Y19D02*
X167Y19D01*
X243Y19D02*
X246Y19D01*
X249Y19D02*
X257Y19D01*
X343Y19D02*
X347Y19D01*
X431Y19D02*
X441Y19D01*
X549Y19D02*
X551Y19D01*
X645Y19D02*
X650Y19D01*
X877Y19D02*
X881Y19D01*
X1135Y19D02*
X1142Y19D01*
X0Y18D02*
X7Y18D01*
X65Y18D02*
X70Y18D01*
X243Y18D02*
X246Y18D01*
X251Y18D02*
X256Y18D01*
X343Y18D02*
X347Y18D01*
X645Y18D02*
X650Y18D01*
X877Y18D02*
X881Y18D01*
X1135Y18D02*
X1142Y18D01*
X0Y17D02*
X7Y17D01*
X65Y17D02*
X70Y17D01*
X243Y17D02*
X246Y17D01*
X343Y17D02*
X346Y17D01*
X645Y17D02*
X650Y17D01*
X877Y17D02*
X881Y17D01*
X1135Y17D02*
X1142Y17D01*
X0Y16D02*
X7Y16D01*
X65Y16D02*
X70Y16D01*
X243Y16D02*
X246Y16D01*
X342Y16D02*
X346Y16D01*
X645Y16D02*
X650Y16D01*
X877Y16D02*
X881Y16D01*
X1135Y16D02*
X1142Y16D01*
X0Y15D02*
X7Y15D01*
X65Y15D02*
X70Y15D01*
X243Y15D02*
X246Y15D01*
X342Y15D02*
X345Y15D01*
X645Y15D02*
X650Y15D01*
X877Y15D02*
X881Y15D01*
X1135Y15D02*
X1142Y15D01*
X0Y14D02*
X7Y14D01*
X65Y14D02*
X70Y14D01*
X243Y14D02*
X246Y14D01*
X341Y14D02*
X345Y14D01*
X645Y14D02*
X650Y14D01*
X877Y14D02*
X881Y14D01*
X1135Y14D02*
X1142Y14D01*
X0Y13D02*
X7Y13D01*
X65Y13D02*
X70Y13D01*
X243Y13D02*
X246Y13D01*
X335Y13D02*
X344Y13D01*
X645Y13D02*
X650Y13D01*
X877Y13D02*
X881Y13D01*
X1135Y13D02*
X1142Y13D01*
X0Y12D02*
X7Y12D01*
X65Y12D02*
X70Y12D01*
X243Y12D02*
X246Y12D01*
X335Y12D02*
X344Y12D01*
X645Y12D02*
X650Y12D01*
X877Y12D02*
X881Y12D01*
X1135Y12D02*
X1142Y12D01*
X0Y11D02*
X7Y11D01*
X65Y11D02*
X70Y11D01*
X243Y11D02*
X246Y11D01*
X335Y11D02*
X344Y11D01*
X645Y11D02*
X650Y11D01*
X878Y11D02*
X880Y11D01*
X1135Y11D02*
X1142Y11D01*
X0Y10D02*
X7Y10D01*
X65Y10D02*
X70Y10D01*
X244Y10D02*
X246Y10D01*
X335Y10D02*
X343Y10D01*
X645Y10D02*
X650Y10D01*
X1135Y10D02*
X1142Y10D01*
X0Y9D02*
X1142Y9D01*
X0Y8D02*
X1142Y8D01*
X0Y7D02*
X1142Y7D01*
X0Y6D02*
X1142Y6D01*
X0Y5D02*
X1142Y5D01*
X0Y4D02*
X1142Y4D01*
X0Y3D02*
X1142Y3D01*
X0Y2D02*
X1142Y2D01*
D02*
G04 End of Silk1*
M02*