G04 MADE WITH FRITZING*
G04 WWW.FRITZING.ORG*
G04 DOUBLE SIDED*
G04 HOLES PLATED*
G04 CONTOUR ON CENTER OF CONTOUR VECTOR*
%ASAXBY*%
%FSLAX23Y23*%
%MOIN*%
%OFA0B0*%
%SFA1.0B1.0*%
%ADD10C,0.078000*%
%ADD11C,0.039370*%
%ADD12C,0.060000*%
%ADD13C,0.051496*%
%ADD14C,0.075000*%
%ADD15C,0.074472*%
%ADD16C,0.070000*%
%ADD17R,0.075000X0.075000*%
%ADD18C,0.012000*%
%ADD19C,0.020000*%
%ADD20C,0.017108*%
%ADD21R,0.001000X0.001000*%
%LNCOPPER0*%
G90*
G70*
G54D10*
X769Y91D03*
X869Y91D03*
G54D11*
X814Y166D03*
X663Y166D03*
G54D12*
X1019Y547D03*
X1019Y447D03*
X1019Y347D03*
X1016Y1038D03*
X1016Y938D03*
X1016Y838D03*
G54D11*
X611Y539D03*
X827Y923D03*
G54D13*
X1054Y166D03*
X1054Y66D03*
G54D14*
X421Y277D03*
X121Y277D03*
X421Y377D03*
X121Y377D03*
X421Y477D03*
X121Y477D03*
X421Y577D03*
X121Y577D03*
G54D15*
X703Y265D03*
X803Y265D03*
X703Y365D03*
X803Y365D03*
X703Y466D03*
X803Y466D03*
X703Y567D03*
X803Y567D03*
G54D16*
X559Y91D03*
X459Y91D03*
X359Y91D03*
X259Y91D03*
X159Y91D03*
G54D14*
X823Y1067D03*
X823Y767D03*
X723Y1067D03*
X723Y767D03*
X623Y1067D03*
X623Y767D03*
X523Y1067D03*
X523Y767D03*
X423Y1067D03*
X423Y767D03*
X323Y1067D03*
X323Y767D03*
X223Y1067D03*
X223Y767D03*
X123Y1067D03*
X123Y767D03*
G54D17*
X823Y1067D03*
G54D18*
X839Y45D02*
X769Y91D01*
D02*
X1009Y31D02*
X859Y31D01*
D02*
X1054Y66D02*
X1026Y44D01*
D02*
X613Y544D02*
X611Y539D01*
D02*
X619Y601D02*
X619Y556D01*
D02*
X949Y631D02*
X649Y630D01*
D02*
X649Y630D02*
X619Y601D01*
D02*
X1019Y547D02*
X965Y612D01*
D02*
X1093Y601D02*
X1019Y547D01*
D02*
X1114Y870D02*
X1114Y616D01*
D02*
X1016Y938D02*
X1093Y885D01*
D02*
X677Y166D02*
X800Y166D01*
D02*
X323Y767D02*
X289Y725D01*
D02*
X269Y130D02*
X259Y91D01*
D02*
X275Y707D02*
X274Y150D01*
D02*
X198Y705D02*
X198Y435D01*
D02*
X223Y767D02*
X207Y727D01*
D02*
X180Y422D02*
X121Y377D01*
D02*
X803Y567D02*
X854Y526D01*
D02*
X874Y510D02*
X874Y436D01*
D02*
X856Y418D02*
X803Y365D01*
D02*
X934Y436D02*
X874Y436D01*
D02*
X1019Y447D02*
X959Y439D01*
D02*
X323Y1067D02*
X323Y1066D01*
D02*
X334Y916D02*
X394Y856D01*
D02*
X334Y1006D02*
X334Y916D01*
D02*
X394Y856D02*
X858Y856D01*
D02*
X323Y1043D02*
X334Y1006D01*
D02*
X889Y826D02*
X889Y721D01*
D02*
X858Y856D02*
X889Y826D01*
D02*
X858Y690D02*
X409Y691D01*
D02*
X889Y721D02*
X858Y690D01*
D02*
X352Y130D02*
X359Y91D01*
D02*
X349Y631D02*
X349Y150D01*
D02*
X409Y691D02*
X349Y631D01*
D02*
X468Y436D02*
X604Y436D01*
D02*
X625Y421D02*
X703Y365D01*
D02*
X421Y477D02*
X451Y451D01*
D02*
X1054Y166D02*
X1013Y193D01*
D02*
X636Y204D02*
X604Y241D01*
D02*
X996Y205D02*
X636Y204D01*
D02*
X604Y241D02*
X604Y316D01*
D02*
X627Y328D02*
X703Y365D01*
D02*
X468Y556D02*
X589Y556D01*
D02*
X600Y548D02*
X611Y539D01*
D02*
X421Y577D02*
X447Y565D01*
D02*
X121Y577D02*
X123Y632D01*
D02*
X123Y655D02*
X63Y706D01*
D02*
X64Y1111D02*
X93Y1140D01*
D02*
X63Y706D02*
X64Y1111D01*
D02*
X93Y1140D02*
X683Y1139D01*
D02*
X694Y1119D02*
X723Y1067D01*
D02*
X623Y1067D02*
X664Y1023D01*
D02*
X874Y1005D02*
X889Y1021D01*
D02*
X679Y1006D02*
X874Y1005D01*
D02*
X889Y1140D02*
X858Y1171D01*
D02*
X889Y1021D02*
X889Y1140D01*
D02*
X858Y1171D02*
X79Y1171D01*
D02*
X33Y1126D02*
X34Y210D01*
D02*
X79Y1171D02*
X33Y1126D01*
D02*
X48Y196D02*
X159Y91D01*
D02*
X850Y913D02*
X1003Y843D01*
G54D19*
X740Y120D02*
X798Y120D01*
X798Y62D01*
X740Y62D01*
X740Y120D01*
D02*
X393Y249D02*
X393Y304D01*
X448Y304D01*
X448Y249D01*
X393Y249D01*
D02*
G54D20*
X675Y293D02*
X732Y293D01*
X732Y236D01*
X675Y236D01*
X675Y293D01*
D02*
X675Y595D02*
X732Y595D01*
X732Y538D01*
X675Y538D01*
X675Y595D01*
D02*
G54D21*
X979Y1068D02*
X1050Y1068D01*
X975Y1067D02*
X1054Y1067D01*
X973Y1066D02*
X1056Y1066D01*
X971Y1065D02*
X1058Y1065D01*
X969Y1064D02*
X1060Y1064D01*
X967Y1063D02*
X1061Y1063D01*
X966Y1062D02*
X1063Y1062D01*
X965Y1061D02*
X1064Y1061D01*
X964Y1060D02*
X1065Y1060D01*
X963Y1059D02*
X1066Y1059D01*
X962Y1058D02*
X1009Y1058D01*
X1020Y1058D02*
X1067Y1058D01*
X961Y1057D02*
X1006Y1057D01*
X1023Y1057D02*
X1068Y1057D01*
X961Y1056D02*
X1004Y1056D01*
X1025Y1056D02*
X1068Y1056D01*
X960Y1055D02*
X1002Y1055D01*
X1026Y1055D02*
X1069Y1055D01*
X959Y1054D02*
X1001Y1054D01*
X1028Y1054D02*
X1070Y1054D01*
X959Y1053D02*
X1000Y1053D01*
X1029Y1053D02*
X1070Y1053D01*
X958Y1052D02*
X999Y1052D01*
X1030Y1052D02*
X1071Y1052D01*
X958Y1051D02*
X998Y1051D01*
X1031Y1051D02*
X1071Y1051D01*
X957Y1050D02*
X998Y1050D01*
X1031Y1050D02*
X1072Y1050D01*
X957Y1049D02*
X997Y1049D01*
X1032Y1049D02*
X1072Y1049D01*
X956Y1048D02*
X996Y1048D01*
X1033Y1048D02*
X1072Y1048D01*
X956Y1047D02*
X996Y1047D01*
X1033Y1047D02*
X1073Y1047D01*
X956Y1046D02*
X995Y1046D01*
X1034Y1046D02*
X1073Y1046D01*
X956Y1045D02*
X995Y1045D01*
X1034Y1045D02*
X1073Y1045D01*
X955Y1044D02*
X995Y1044D01*
X1034Y1044D02*
X1073Y1044D01*
X955Y1043D02*
X994Y1043D01*
X1034Y1043D02*
X1074Y1043D01*
X955Y1042D02*
X994Y1042D01*
X1035Y1042D02*
X1074Y1042D01*
X955Y1041D02*
X994Y1041D01*
X1035Y1041D02*
X1074Y1041D01*
X955Y1040D02*
X994Y1040D01*
X1035Y1040D02*
X1074Y1040D01*
X955Y1039D02*
X994Y1039D01*
X1035Y1039D02*
X1074Y1039D01*
X955Y1038D02*
X994Y1038D01*
X1035Y1038D02*
X1074Y1038D01*
X955Y1037D02*
X994Y1037D01*
X1035Y1037D02*
X1074Y1037D01*
X955Y1036D02*
X994Y1036D01*
X1035Y1036D02*
X1074Y1036D01*
X955Y1035D02*
X994Y1035D01*
X1035Y1035D02*
X1074Y1035D01*
X955Y1034D02*
X995Y1034D01*
X1034Y1034D02*
X1074Y1034D01*
X956Y1033D02*
X995Y1033D01*
X1034Y1033D02*
X1073Y1033D01*
X956Y1032D02*
X995Y1032D01*
X1034Y1032D02*
X1073Y1032D01*
X956Y1031D02*
X996Y1031D01*
X1033Y1031D02*
X1073Y1031D01*
X956Y1030D02*
X996Y1030D01*
X1033Y1030D02*
X1073Y1030D01*
X957Y1029D02*
X997Y1029D01*
X1032Y1029D02*
X1072Y1029D01*
X957Y1028D02*
X997Y1028D01*
X1032Y1028D02*
X1072Y1028D01*
X957Y1027D02*
X998Y1027D01*
X1031Y1027D02*
X1072Y1027D01*
X958Y1026D02*
X999Y1026D01*
X1030Y1026D02*
X1071Y1026D01*
X958Y1025D02*
X999Y1025D01*
X1029Y1025D02*
X1071Y1025D01*
X959Y1024D02*
X1000Y1024D01*
X1028Y1024D02*
X1070Y1024D01*
X959Y1023D02*
X1002Y1023D01*
X1027Y1023D02*
X1069Y1023D01*
X960Y1022D02*
X1003Y1022D01*
X1026Y1022D02*
X1069Y1022D01*
X961Y1021D02*
X1005Y1021D01*
X1024Y1021D02*
X1068Y1021D01*
X962Y1020D02*
X1007Y1020D01*
X1022Y1020D02*
X1067Y1020D01*
X962Y1019D02*
X1011Y1019D01*
X1018Y1019D02*
X1067Y1019D01*
X963Y1018D02*
X1066Y1018D01*
X964Y1017D02*
X1065Y1017D01*
X965Y1016D02*
X1063Y1016D01*
X967Y1015D02*
X1062Y1015D01*
X968Y1014D02*
X1061Y1014D01*
X970Y1013D02*
X1059Y1013D01*
X971Y1012D02*
X1058Y1012D01*
X973Y1011D02*
X1055Y1011D01*
X976Y1010D02*
X1053Y1010D01*
X981Y1009D02*
X1048Y1009D01*
X978Y968D02*
X1050Y968D01*
X975Y967D02*
X1054Y967D01*
X973Y966D02*
X1056Y966D01*
X971Y965D02*
X1058Y965D01*
X969Y964D02*
X1060Y964D01*
X967Y963D02*
X1062Y963D01*
X966Y962D02*
X1063Y962D01*
X965Y961D02*
X1064Y961D01*
X964Y960D02*
X1065Y960D01*
X963Y959D02*
X1066Y959D01*
X962Y958D02*
X1009Y958D01*
X1020Y958D02*
X1067Y958D01*
X961Y957D02*
X1006Y957D01*
X1023Y957D02*
X1068Y957D01*
X960Y956D02*
X1004Y956D01*
X1025Y956D02*
X1068Y956D01*
X960Y955D02*
X1002Y955D01*
X1026Y955D02*
X1069Y955D01*
X959Y954D02*
X1001Y954D01*
X1028Y954D02*
X1070Y954D01*
X959Y953D02*
X1000Y953D01*
X1029Y953D02*
X1070Y953D01*
X958Y952D02*
X999Y952D01*
X1030Y952D02*
X1071Y952D01*
X958Y951D02*
X998Y951D01*
X1031Y951D02*
X1071Y951D01*
X957Y950D02*
X997Y950D01*
X1031Y950D02*
X1072Y950D01*
X957Y949D02*
X997Y949D01*
X1032Y949D02*
X1072Y949D01*
X956Y948D02*
X996Y948D01*
X1033Y948D02*
X1072Y948D01*
X956Y947D02*
X996Y947D01*
X1033Y947D02*
X1073Y947D01*
X956Y946D02*
X995Y946D01*
X1034Y946D02*
X1073Y946D01*
X956Y945D02*
X995Y945D01*
X1034Y945D02*
X1073Y945D01*
X955Y944D02*
X995Y944D01*
X1034Y944D02*
X1073Y944D01*
X955Y943D02*
X994Y943D01*
X1034Y943D02*
X1074Y943D01*
X955Y942D02*
X994Y942D01*
X1035Y942D02*
X1074Y942D01*
X955Y941D02*
X994Y941D01*
X1035Y941D02*
X1074Y941D01*
X955Y940D02*
X994Y940D01*
X1035Y940D02*
X1074Y940D01*
X955Y939D02*
X994Y939D01*
X1035Y939D02*
X1074Y939D01*
X955Y938D02*
X994Y938D01*
X1035Y938D02*
X1074Y938D01*
X955Y937D02*
X994Y937D01*
X1035Y937D02*
X1074Y937D01*
X955Y936D02*
X994Y936D01*
X1035Y936D02*
X1074Y936D01*
X955Y935D02*
X994Y935D01*
X1035Y935D02*
X1074Y935D01*
X955Y934D02*
X995Y934D01*
X1034Y934D02*
X1074Y934D01*
X956Y933D02*
X995Y933D01*
X1034Y933D02*
X1073Y933D01*
X956Y932D02*
X995Y932D01*
X1034Y932D02*
X1073Y932D01*
X956Y931D02*
X996Y931D01*
X1033Y931D02*
X1073Y931D01*
X956Y930D02*
X996Y930D01*
X1033Y930D02*
X1073Y930D01*
X957Y929D02*
X997Y929D01*
X1032Y929D02*
X1072Y929D01*
X957Y928D02*
X997Y928D01*
X1032Y928D02*
X1072Y928D01*
X957Y927D02*
X998Y927D01*
X1031Y927D02*
X1072Y927D01*
X958Y926D02*
X999Y926D01*
X1030Y926D02*
X1071Y926D01*
X958Y925D02*
X1000Y925D01*
X1029Y925D02*
X1071Y925D01*
X959Y924D02*
X1001Y924D01*
X1028Y924D02*
X1070Y924D01*
X960Y923D02*
X1002Y923D01*
X1027Y923D02*
X1069Y923D01*
X960Y922D02*
X1003Y922D01*
X1026Y922D02*
X1069Y922D01*
X961Y921D02*
X1005Y921D01*
X1024Y921D02*
X1068Y921D01*
X962Y920D02*
X1007Y920D01*
X1022Y920D02*
X1067Y920D01*
X962Y919D02*
X1012Y919D01*
X1017Y919D02*
X1066Y919D01*
X963Y918D02*
X1066Y918D01*
X964Y917D02*
X1065Y917D01*
X965Y916D02*
X1063Y916D01*
X967Y915D02*
X1062Y915D01*
X968Y914D02*
X1061Y914D01*
X970Y913D02*
X1059Y913D01*
X971Y912D02*
X1057Y912D01*
X974Y911D02*
X1055Y911D01*
X976Y910D02*
X1052Y910D01*
X981Y909D02*
X1048Y909D01*
X978Y868D02*
X1051Y868D01*
X975Y867D02*
X1054Y867D01*
X972Y866D02*
X1057Y866D01*
X970Y865D02*
X1059Y865D01*
X969Y864D02*
X1060Y864D01*
X967Y863D02*
X1062Y863D01*
X966Y862D02*
X1063Y862D01*
X965Y861D02*
X1064Y861D01*
X964Y860D02*
X1065Y860D01*
X963Y859D02*
X1066Y859D01*
X962Y858D02*
X1009Y858D01*
X1020Y858D02*
X1067Y858D01*
X961Y857D02*
X1006Y857D01*
X1023Y857D02*
X1068Y857D01*
X960Y856D02*
X1004Y856D01*
X1025Y856D02*
X1068Y856D01*
X960Y855D02*
X1002Y855D01*
X1027Y855D02*
X1069Y855D01*
X959Y854D02*
X1001Y854D01*
X1028Y854D02*
X1070Y854D01*
X959Y853D02*
X1000Y853D01*
X1029Y853D02*
X1070Y853D01*
X958Y852D02*
X999Y852D01*
X1030Y852D02*
X1071Y852D01*
X958Y851D02*
X998Y851D01*
X1031Y851D02*
X1071Y851D01*
X957Y850D02*
X997Y850D01*
X1031Y850D02*
X1072Y850D01*
X957Y849D02*
X997Y849D01*
X1032Y849D02*
X1072Y849D01*
X956Y848D02*
X996Y848D01*
X1033Y848D02*
X1072Y848D01*
X956Y847D02*
X996Y847D01*
X1033Y847D02*
X1073Y847D01*
X956Y846D02*
X995Y846D01*
X1034Y846D02*
X1073Y846D01*
X956Y845D02*
X995Y845D01*
X1034Y845D02*
X1073Y845D01*
X955Y844D02*
X995Y844D01*
X1034Y844D02*
X1073Y844D01*
X955Y843D02*
X994Y843D01*
X1034Y843D02*
X1074Y843D01*
X955Y842D02*
X994Y842D01*
X1035Y842D02*
X1074Y842D01*
X955Y841D02*
X994Y841D01*
X1035Y841D02*
X1074Y841D01*
X955Y840D02*
X994Y840D01*
X1035Y840D02*
X1074Y840D01*
X955Y839D02*
X994Y839D01*
X1035Y839D02*
X1074Y839D01*
X955Y838D02*
X994Y838D01*
X1035Y838D02*
X1074Y838D01*
X955Y837D02*
X994Y837D01*
X1035Y837D02*
X1074Y837D01*
X955Y836D02*
X994Y836D01*
X1035Y836D02*
X1074Y836D01*
X955Y835D02*
X994Y835D01*
X1035Y835D02*
X1074Y835D01*
X955Y834D02*
X995Y834D01*
X1034Y834D02*
X1073Y834D01*
X956Y833D02*
X995Y833D01*
X1034Y833D02*
X1073Y833D01*
X956Y832D02*
X995Y832D01*
X1034Y832D02*
X1073Y832D01*
X956Y831D02*
X996Y831D01*
X1033Y831D02*
X1073Y831D01*
X956Y830D02*
X996Y830D01*
X1033Y830D02*
X1073Y830D01*
X957Y829D02*
X997Y829D01*
X1032Y829D02*
X1072Y829D01*
X957Y828D02*
X997Y828D01*
X1032Y828D02*
X1072Y828D01*
X957Y827D02*
X998Y827D01*
X1031Y827D02*
X1071Y827D01*
X958Y826D02*
X999Y826D01*
X1030Y826D02*
X1071Y826D01*
X958Y825D02*
X1000Y825D01*
X1029Y825D02*
X1071Y825D01*
X959Y824D02*
X1001Y824D01*
X1028Y824D02*
X1070Y824D01*
X960Y823D02*
X1002Y823D01*
X1027Y823D02*
X1069Y823D01*
X960Y822D02*
X1003Y822D01*
X1026Y822D02*
X1069Y822D01*
X961Y821D02*
X1005Y821D01*
X1024Y821D02*
X1068Y821D01*
X962Y820D02*
X1007Y820D01*
X1021Y820D02*
X1067Y820D01*
X963Y819D02*
X1012Y819D01*
X1017Y819D02*
X1066Y819D01*
X963Y818D02*
X1065Y818D01*
X964Y817D02*
X1064Y817D01*
X966Y816D02*
X1063Y816D01*
X967Y815D02*
X1062Y815D01*
X968Y814D02*
X1061Y814D01*
X970Y813D02*
X1059Y813D01*
X972Y812D02*
X1057Y812D01*
X974Y811D02*
X1055Y811D01*
X977Y810D02*
X1052Y810D01*
X982Y809D02*
X1047Y809D01*
X983Y578D02*
X1052Y578D01*
X979Y577D02*
X1056Y577D01*
X976Y576D02*
X1059Y576D01*
X974Y575D02*
X1061Y575D01*
X973Y574D02*
X1063Y574D01*
X971Y573D02*
X1064Y573D01*
X970Y572D02*
X1066Y572D01*
X968Y571D02*
X1067Y571D01*
X967Y570D02*
X1068Y570D01*
X966Y569D02*
X1069Y569D01*
X966Y568D02*
X1013Y568D01*
X1022Y568D02*
X1070Y568D01*
X965Y567D02*
X1010Y567D01*
X1026Y567D02*
X1071Y567D01*
X964Y566D02*
X1008Y566D01*
X1028Y566D02*
X1072Y566D01*
X963Y565D02*
X1006Y565D01*
X1029Y565D02*
X1072Y565D01*
X963Y564D02*
X1005Y564D01*
X1031Y564D02*
X1073Y564D01*
X962Y563D02*
X1004Y563D01*
X1032Y563D02*
X1073Y563D01*
X962Y562D02*
X1003Y562D01*
X1033Y562D02*
X1074Y562D01*
X961Y561D02*
X1002Y561D01*
X1034Y561D02*
X1074Y561D01*
X961Y560D02*
X1001Y560D01*
X1035Y560D02*
X1075Y560D01*
X960Y559D02*
X1000Y559D01*
X1035Y559D02*
X1075Y559D01*
X960Y558D02*
X1000Y558D01*
X1036Y558D02*
X1076Y558D01*
X960Y557D02*
X999Y557D01*
X1036Y557D02*
X1076Y557D01*
X959Y556D02*
X999Y556D01*
X1037Y556D02*
X1076Y556D01*
X959Y555D02*
X998Y555D01*
X1037Y555D02*
X1076Y555D01*
X959Y554D02*
X998Y554D01*
X1037Y554D02*
X1077Y554D01*
X959Y553D02*
X998Y553D01*
X1038Y553D02*
X1077Y553D01*
X958Y552D02*
X998Y552D01*
X1038Y552D02*
X1077Y552D01*
X958Y551D02*
X998Y551D01*
X1038Y551D02*
X1077Y551D01*
X958Y550D02*
X997Y550D01*
X1038Y550D02*
X1077Y550D01*
X958Y549D02*
X997Y549D01*
X1038Y549D02*
X1077Y549D01*
X958Y548D02*
X997Y548D01*
X1038Y548D02*
X1077Y548D01*
X958Y547D02*
X997Y547D01*
X1038Y547D02*
X1077Y547D01*
X958Y546D02*
X998Y546D01*
X1038Y546D02*
X1077Y546D01*
X958Y545D02*
X998Y545D01*
X1038Y545D02*
X1077Y545D01*
X959Y544D02*
X998Y544D01*
X1038Y544D02*
X1077Y544D01*
X959Y543D02*
X998Y543D01*
X1037Y543D02*
X1077Y543D01*
X959Y542D02*
X998Y542D01*
X1037Y542D02*
X1076Y542D01*
X959Y541D02*
X999Y541D01*
X1037Y541D02*
X1076Y541D01*
X960Y540D02*
X999Y540D01*
X1036Y540D02*
X1076Y540D01*
X960Y539D02*
X1000Y539D01*
X1036Y539D02*
X1076Y539D01*
X960Y538D02*
X1000Y538D01*
X1035Y538D02*
X1075Y538D01*
X961Y537D02*
X1001Y537D01*
X1035Y537D02*
X1075Y537D01*
X961Y536D02*
X1002Y536D01*
X1034Y536D02*
X1074Y536D01*
X962Y535D02*
X1003Y535D01*
X1033Y535D02*
X1074Y535D01*
X962Y534D02*
X1004Y534D01*
X1032Y534D02*
X1073Y534D01*
X963Y533D02*
X1005Y533D01*
X1031Y533D02*
X1073Y533D01*
X963Y532D02*
X1006Y532D01*
X1029Y532D02*
X1072Y532D01*
X964Y531D02*
X1008Y531D01*
X1028Y531D02*
X1072Y531D01*
X965Y530D02*
X1010Y530D01*
X1026Y530D02*
X1071Y530D01*
X966Y529D02*
X1013Y529D01*
X1022Y529D02*
X1070Y529D01*
X966Y528D02*
X1069Y528D01*
X967Y527D02*
X1068Y527D01*
X968Y526D02*
X1067Y526D01*
X970Y525D02*
X1066Y525D01*
X971Y524D02*
X1064Y524D01*
X973Y523D02*
X1063Y523D01*
X974Y522D02*
X1061Y522D01*
X976Y521D02*
X1059Y521D01*
X979Y520D02*
X1057Y520D01*
X983Y519D02*
X1052Y519D01*
X983Y478D02*
X1053Y478D01*
X979Y477D02*
X1057Y477D01*
X976Y476D02*
X1059Y476D01*
X974Y475D02*
X1061Y475D01*
X972Y474D02*
X1063Y474D01*
X971Y473D02*
X1065Y473D01*
X970Y472D02*
X1066Y472D01*
X968Y471D02*
X1067Y471D01*
X967Y470D02*
X1068Y470D01*
X966Y469D02*
X1069Y469D01*
X965Y468D02*
X1013Y468D01*
X1023Y468D02*
X1070Y468D01*
X965Y467D02*
X1010Y467D01*
X1026Y467D02*
X1071Y467D01*
X964Y466D02*
X1008Y466D01*
X1028Y466D02*
X1072Y466D01*
X963Y465D02*
X1006Y465D01*
X1030Y465D02*
X1072Y465D01*
X963Y464D02*
X1005Y464D01*
X1031Y464D02*
X1073Y464D01*
X962Y463D02*
X1003Y463D01*
X1032Y463D02*
X1073Y463D01*
X961Y462D02*
X1003Y462D01*
X1033Y462D02*
X1074Y462D01*
X961Y461D02*
X1002Y461D01*
X1034Y461D02*
X1074Y461D01*
X961Y460D02*
X1001Y460D01*
X1035Y460D02*
X1075Y460D01*
X960Y459D02*
X1000Y459D01*
X1035Y459D02*
X1075Y459D01*
X960Y458D02*
X1000Y458D01*
X1036Y458D02*
X1076Y458D01*
X960Y457D02*
X999Y457D01*
X1036Y457D02*
X1076Y457D01*
X959Y456D02*
X999Y456D01*
X1037Y456D02*
X1076Y456D01*
X959Y455D02*
X998Y455D01*
X1037Y455D02*
X1076Y455D01*
X959Y454D02*
X998Y454D01*
X1037Y454D02*
X1077Y454D01*
X959Y453D02*
X998Y453D01*
X1038Y453D02*
X1077Y453D01*
X958Y452D02*
X998Y452D01*
X1038Y452D02*
X1077Y452D01*
X958Y451D02*
X997Y451D01*
X1038Y451D02*
X1077Y451D01*
X958Y450D02*
X997Y450D01*
X1038Y450D02*
X1077Y450D01*
X958Y449D02*
X997Y449D01*
X1038Y449D02*
X1077Y449D01*
X958Y448D02*
X997Y448D01*
X1038Y448D02*
X1077Y448D01*
X958Y447D02*
X997Y447D01*
X1038Y447D02*
X1077Y447D01*
X958Y446D02*
X998Y446D01*
X1038Y446D02*
X1077Y446D01*
X959Y445D02*
X998Y445D01*
X1038Y445D02*
X1077Y445D01*
X959Y444D02*
X998Y444D01*
X1038Y444D02*
X1077Y444D01*
X959Y443D02*
X998Y443D01*
X1037Y443D02*
X1077Y443D01*
X959Y442D02*
X998Y442D01*
X1037Y442D02*
X1076Y442D01*
X959Y441D02*
X999Y441D01*
X1037Y441D02*
X1076Y441D01*
X960Y440D02*
X999Y440D01*
X1036Y440D02*
X1076Y440D01*
X960Y439D02*
X1000Y439D01*
X1036Y439D02*
X1076Y439D01*
X960Y438D02*
X1000Y438D01*
X1035Y438D02*
X1075Y438D01*
X961Y437D02*
X1001Y437D01*
X1034Y437D02*
X1075Y437D01*
X961Y436D02*
X1002Y436D01*
X1034Y436D02*
X1074Y436D01*
X962Y435D02*
X1003Y435D01*
X1033Y435D02*
X1074Y435D01*
X962Y434D02*
X1004Y434D01*
X1032Y434D02*
X1073Y434D01*
X963Y433D02*
X1005Y433D01*
X1031Y433D02*
X1073Y433D01*
X963Y432D02*
X1006Y432D01*
X1029Y432D02*
X1072Y432D01*
X964Y431D02*
X1008Y431D01*
X1028Y431D02*
X1071Y431D01*
X965Y430D02*
X1010Y430D01*
X1026Y430D02*
X1071Y430D01*
X966Y429D02*
X1013Y429D01*
X1022Y429D02*
X1070Y429D01*
X966Y428D02*
X1069Y428D01*
X967Y427D02*
X1068Y427D01*
X969Y426D02*
X1067Y426D01*
X970Y425D02*
X1066Y425D01*
X971Y424D02*
X1064Y424D01*
X973Y423D02*
X1063Y423D01*
X974Y422D02*
X1061Y422D01*
X976Y421D02*
X1059Y421D01*
X979Y420D02*
X1056Y420D01*
X983Y419D02*
X1052Y419D01*
X982Y378D02*
X1053Y378D01*
X979Y377D02*
X1057Y377D01*
X976Y376D02*
X1059Y376D01*
X974Y375D02*
X1061Y375D01*
X972Y374D02*
X1063Y374D01*
X971Y373D02*
X1065Y373D01*
X970Y372D02*
X1066Y372D01*
X968Y371D02*
X1067Y371D01*
X967Y370D02*
X1068Y370D01*
X966Y369D02*
X1069Y369D01*
X965Y368D02*
X1013Y368D01*
X1023Y368D02*
X1070Y368D01*
X965Y367D02*
X1009Y367D01*
X1026Y367D02*
X1071Y367D01*
X964Y366D02*
X1008Y366D01*
X1028Y366D02*
X1072Y366D01*
X963Y365D02*
X1006Y365D01*
X1030Y365D02*
X1072Y365D01*
X963Y364D02*
X1005Y364D01*
X1031Y364D02*
X1073Y364D01*
X962Y363D02*
X1003Y363D01*
X1032Y363D02*
X1074Y363D01*
X961Y362D02*
X1002Y362D01*
X1033Y362D02*
X1074Y362D01*
X961Y361D02*
X1002Y361D01*
X1034Y361D02*
X1074Y361D01*
X961Y360D02*
X1001Y360D01*
X1035Y360D02*
X1075Y360D01*
X960Y359D02*
X1000Y359D01*
X1035Y359D02*
X1075Y359D01*
X960Y358D02*
X1000Y358D01*
X1036Y358D02*
X1076Y358D01*
X959Y357D02*
X999Y357D01*
X1036Y357D02*
X1076Y357D01*
X959Y356D02*
X999Y356D01*
X1037Y356D02*
X1076Y356D01*
X959Y355D02*
X998Y355D01*
X1037Y355D02*
X1076Y355D01*
X959Y354D02*
X998Y354D01*
X1037Y354D02*
X1077Y354D01*
X959Y353D02*
X998Y353D01*
X1038Y353D02*
X1077Y353D01*
X958Y352D02*
X998Y352D01*
X1038Y352D02*
X1077Y352D01*
X958Y351D02*
X997Y351D01*
X1038Y351D02*
X1077Y351D01*
X958Y350D02*
X997Y350D01*
X1038Y350D02*
X1077Y350D01*
X958Y349D02*
X997Y349D01*
X1038Y349D02*
X1077Y349D01*
X958Y348D02*
X997Y348D01*
X1038Y348D02*
X1077Y348D01*
X958Y347D02*
X997Y347D01*
X1038Y347D02*
X1077Y347D01*
X958Y346D02*
X998Y346D01*
X1038Y346D02*
X1077Y346D01*
X959Y345D02*
X998Y345D01*
X1038Y345D02*
X1077Y345D01*
X959Y344D02*
X998Y344D01*
X1038Y344D02*
X1077Y344D01*
X959Y343D02*
X998Y343D01*
X1037Y343D02*
X1077Y343D01*
X959Y342D02*
X998Y342D01*
X1037Y342D02*
X1076Y342D01*
X959Y341D02*
X999Y341D01*
X1037Y341D02*
X1076Y341D01*
X960Y340D02*
X999Y340D01*
X1036Y340D02*
X1076Y340D01*
X960Y339D02*
X1000Y339D01*
X1036Y339D02*
X1076Y339D01*
X960Y338D02*
X1000Y338D01*
X1035Y338D02*
X1075Y338D01*
X961Y337D02*
X1001Y337D01*
X1034Y337D02*
X1075Y337D01*
X961Y336D02*
X1002Y336D01*
X1034Y336D02*
X1074Y336D01*
X962Y335D02*
X1003Y335D01*
X1033Y335D02*
X1074Y335D01*
X962Y334D02*
X1004Y334D01*
X1032Y334D02*
X1073Y334D01*
X963Y333D02*
X1005Y333D01*
X1031Y333D02*
X1073Y333D01*
X963Y332D02*
X1006Y332D01*
X1029Y332D02*
X1072Y332D01*
X964Y331D02*
X1008Y331D01*
X1027Y331D02*
X1071Y331D01*
X965Y330D02*
X1010Y330D01*
X1025Y330D02*
X1071Y330D01*
X966Y329D02*
X1014Y329D01*
X1022Y329D02*
X1070Y329D01*
X967Y328D02*
X1069Y328D01*
X968Y327D02*
X1068Y327D01*
X969Y326D02*
X1067Y326D01*
X970Y325D02*
X1066Y325D01*
X971Y324D02*
X1064Y324D01*
X973Y323D02*
X1063Y323D01*
X974Y322D02*
X1061Y322D01*
X977Y321D02*
X1059Y321D01*
X979Y320D02*
X1056Y320D01*
X984Y319D02*
X1052Y319D01*
X157Y127D02*
X160Y127D01*
X256Y127D02*
X260Y127D01*
X356Y127D02*
X360Y127D01*
X456Y127D02*
X460Y127D01*
X556Y127D02*
X559Y127D01*
X151Y126D02*
X166Y126D01*
X251Y126D02*
X265Y126D01*
X351Y126D02*
X365Y126D01*
X450Y126D02*
X465Y126D01*
X550Y126D02*
X565Y126D01*
X148Y125D02*
X169Y125D01*
X248Y125D02*
X269Y125D01*
X348Y125D02*
X368Y125D01*
X447Y125D02*
X468Y125D01*
X547Y125D02*
X568Y125D01*
X145Y124D02*
X171Y124D01*
X245Y124D02*
X271Y124D01*
X345Y124D02*
X371Y124D01*
X445Y124D02*
X471Y124D01*
X545Y124D02*
X571Y124D01*
X143Y123D02*
X173Y123D01*
X243Y123D02*
X273Y123D01*
X343Y123D02*
X373Y123D01*
X443Y123D02*
X473Y123D01*
X543Y123D02*
X573Y123D01*
X142Y122D02*
X175Y122D01*
X242Y122D02*
X275Y122D01*
X341Y122D02*
X375Y122D01*
X441Y122D02*
X474Y122D01*
X541Y122D02*
X574Y122D01*
X140Y121D02*
X176Y121D01*
X240Y121D02*
X276Y121D01*
X340Y121D02*
X376Y121D01*
X440Y121D02*
X476Y121D01*
X540Y121D02*
X576Y121D01*
X139Y120D02*
X178Y120D01*
X239Y120D02*
X278Y120D01*
X339Y120D02*
X377Y120D01*
X438Y120D02*
X477Y120D01*
X538Y120D02*
X577Y120D01*
X137Y119D02*
X179Y119D01*
X237Y119D02*
X279Y119D01*
X337Y119D02*
X379Y119D01*
X437Y119D02*
X479Y119D01*
X537Y119D02*
X579Y119D01*
X136Y118D02*
X180Y118D01*
X236Y118D02*
X280Y118D01*
X336Y118D02*
X380Y118D01*
X436Y118D02*
X480Y118D01*
X536Y118D02*
X580Y118D01*
X135Y117D02*
X181Y117D01*
X235Y117D02*
X281Y117D01*
X335Y117D02*
X381Y117D01*
X435Y117D02*
X481Y117D01*
X535Y117D02*
X581Y117D01*
X134Y116D02*
X182Y116D01*
X234Y116D02*
X282Y116D01*
X334Y116D02*
X382Y116D01*
X434Y116D02*
X482Y116D01*
X534Y116D02*
X582Y116D01*
X133Y115D02*
X183Y115D01*
X233Y115D02*
X283Y115D01*
X333Y115D02*
X383Y115D01*
X433Y115D02*
X483Y115D01*
X533Y115D02*
X583Y115D01*
X132Y114D02*
X184Y114D01*
X232Y114D02*
X284Y114D01*
X332Y114D02*
X384Y114D01*
X432Y114D02*
X484Y114D01*
X532Y114D02*
X584Y114D01*
X131Y113D02*
X185Y113D01*
X231Y113D02*
X285Y113D01*
X331Y113D02*
X385Y113D01*
X431Y113D02*
X485Y113D01*
X531Y113D02*
X585Y113D01*
X131Y112D02*
X186Y112D01*
X231Y112D02*
X286Y112D01*
X331Y112D02*
X385Y112D01*
X430Y112D02*
X485Y112D01*
X530Y112D02*
X585Y112D01*
X130Y111D02*
X186Y111D01*
X230Y111D02*
X286Y111D01*
X330Y111D02*
X386Y111D01*
X430Y111D02*
X486Y111D01*
X530Y111D02*
X586Y111D01*
X129Y110D02*
X187Y110D01*
X229Y110D02*
X287Y110D01*
X329Y110D02*
X387Y110D01*
X429Y110D02*
X487Y110D01*
X529Y110D02*
X587Y110D01*
X129Y109D02*
X188Y109D01*
X229Y109D02*
X288Y109D01*
X329Y109D02*
X387Y109D01*
X428Y109D02*
X487Y109D01*
X528Y109D02*
X587Y109D01*
X128Y108D02*
X188Y108D01*
X228Y108D02*
X288Y108D01*
X328Y108D02*
X388Y108D01*
X428Y108D02*
X488Y108D01*
X528Y108D02*
X588Y108D01*
X128Y107D02*
X156Y107D01*
X161Y107D02*
X189Y107D01*
X227Y107D02*
X256Y107D01*
X260Y107D02*
X289Y107D01*
X327Y107D02*
X356Y107D01*
X360Y107D02*
X389Y107D01*
X427Y107D02*
X456Y107D01*
X460Y107D02*
X489Y107D01*
X527Y107D02*
X555Y107D01*
X560Y107D02*
X588Y107D01*
X127Y106D02*
X151Y106D01*
X165Y106D02*
X189Y106D01*
X227Y106D02*
X251Y106D01*
X265Y106D02*
X289Y106D01*
X327Y106D02*
X351Y106D01*
X365Y106D02*
X389Y106D01*
X427Y106D02*
X451Y106D01*
X465Y106D02*
X489Y106D01*
X527Y106D02*
X551Y106D01*
X565Y106D02*
X589Y106D01*
X127Y105D02*
X149Y105D01*
X167Y105D02*
X190Y105D01*
X226Y105D02*
X249Y105D01*
X267Y105D02*
X290Y105D01*
X326Y105D02*
X349Y105D01*
X367Y105D02*
X390Y105D01*
X426Y105D02*
X449Y105D01*
X467Y105D02*
X490Y105D01*
X526Y105D02*
X549Y105D01*
X567Y105D02*
X589Y105D01*
X126Y104D02*
X147Y104D01*
X169Y104D02*
X190Y104D01*
X226Y104D02*
X247Y104D01*
X269Y104D02*
X290Y104D01*
X326Y104D02*
X347Y104D01*
X369Y104D02*
X390Y104D01*
X426Y104D02*
X447Y104D01*
X469Y104D02*
X490Y104D01*
X526Y104D02*
X547Y104D01*
X569Y104D02*
X590Y104D01*
X126Y103D02*
X146Y103D01*
X170Y103D02*
X191Y103D01*
X226Y103D02*
X246Y103D01*
X270Y103D02*
X290Y103D01*
X326Y103D02*
X346Y103D01*
X370Y103D02*
X390Y103D01*
X426Y103D02*
X446Y103D01*
X470Y103D02*
X490Y103D01*
X525Y103D02*
X546Y103D01*
X570Y103D02*
X590Y103D01*
X125Y102D02*
X146Y102D01*
X171Y102D02*
X191Y102D01*
X225Y102D02*
X245Y102D01*
X271Y102D02*
X291Y102D01*
X325Y102D02*
X345Y102D01*
X371Y102D02*
X391Y102D01*
X425Y102D02*
X445Y102D01*
X471Y102D02*
X491Y102D01*
X525Y102D02*
X545Y102D01*
X570Y102D02*
X591Y102D01*
X125Y101D02*
X145Y101D01*
X171Y101D02*
X191Y101D01*
X225Y101D02*
X245Y101D01*
X271Y101D02*
X291Y101D01*
X325Y101D02*
X345Y101D01*
X371Y101D02*
X391Y101D01*
X425Y101D02*
X445Y101D01*
X471Y101D02*
X491Y101D01*
X525Y101D02*
X545Y101D01*
X571Y101D02*
X591Y101D01*
X125Y100D02*
X144Y100D01*
X172Y100D02*
X192Y100D01*
X225Y100D02*
X244Y100D01*
X272Y100D02*
X291Y100D01*
X325Y100D02*
X344Y100D01*
X372Y100D02*
X391Y100D01*
X425Y100D02*
X444Y100D01*
X472Y100D02*
X491Y100D01*
X524Y100D02*
X544Y100D01*
X572Y100D02*
X591Y100D01*
X124Y99D02*
X144Y99D01*
X172Y99D02*
X192Y99D01*
X224Y99D02*
X244Y99D01*
X272Y99D02*
X292Y99D01*
X324Y99D02*
X344Y99D01*
X372Y99D02*
X392Y99D01*
X424Y99D02*
X444Y99D01*
X472Y99D02*
X492Y99D01*
X524Y99D02*
X544Y99D01*
X572Y99D02*
X591Y99D01*
X124Y98D02*
X144Y98D01*
X173Y98D02*
X192Y98D01*
X224Y98D02*
X243Y98D01*
X273Y98D02*
X292Y98D01*
X324Y98D02*
X343Y98D01*
X373Y98D02*
X392Y98D01*
X424Y98D02*
X443Y98D01*
X473Y98D02*
X492Y98D01*
X524Y98D02*
X543Y98D01*
X572Y98D02*
X592Y98D01*
X124Y97D02*
X143Y97D01*
X173Y97D02*
X192Y97D01*
X224Y97D02*
X243Y97D01*
X273Y97D02*
X292Y97D01*
X324Y97D02*
X343Y97D01*
X373Y97D02*
X392Y97D01*
X424Y97D02*
X443Y97D01*
X473Y97D02*
X492Y97D01*
X524Y97D02*
X543Y97D01*
X573Y97D02*
X592Y97D01*
X124Y96D02*
X143Y96D01*
X173Y96D02*
X192Y96D01*
X224Y96D02*
X243Y96D01*
X273Y96D02*
X292Y96D01*
X324Y96D02*
X343Y96D01*
X373Y96D02*
X392Y96D01*
X424Y96D02*
X443Y96D01*
X473Y96D02*
X492Y96D01*
X524Y96D02*
X543Y96D01*
X573Y96D02*
X592Y96D01*
X124Y95D02*
X143Y95D01*
X173Y95D02*
X192Y95D01*
X224Y95D02*
X243Y95D01*
X273Y95D02*
X292Y95D01*
X324Y95D02*
X343Y95D01*
X373Y95D02*
X392Y95D01*
X424Y95D02*
X443Y95D01*
X473Y95D02*
X492Y95D01*
X524Y95D02*
X543Y95D01*
X573Y95D02*
X592Y95D01*
X124Y94D02*
X143Y94D01*
X173Y94D02*
X193Y94D01*
X224Y94D02*
X243Y94D01*
X273Y94D02*
X292Y94D01*
X324Y94D02*
X343Y94D01*
X373Y94D02*
X392Y94D01*
X424Y94D02*
X443Y94D01*
X473Y94D02*
X492Y94D01*
X523Y94D02*
X542Y94D01*
X573Y94D02*
X592Y94D01*
X124Y93D02*
X143Y93D01*
X174Y93D02*
X193Y93D01*
X224Y93D02*
X243Y93D01*
X273Y93D02*
X292Y93D01*
X324Y93D02*
X343Y93D01*
X373Y93D02*
X392Y93D01*
X423Y93D02*
X442Y93D01*
X473Y93D02*
X492Y93D01*
X523Y93D02*
X542Y93D01*
X573Y93D02*
X592Y93D01*
X124Y92D02*
X143Y92D01*
X174Y92D02*
X193Y92D01*
X224Y92D02*
X243Y92D01*
X274Y92D02*
X293Y92D01*
X324Y92D02*
X343Y92D01*
X373Y92D02*
X392Y92D01*
X423Y92D02*
X442Y92D01*
X473Y92D02*
X492Y92D01*
X523Y92D02*
X542Y92D01*
X573Y92D02*
X592Y92D01*
X124Y91D02*
X143Y91D01*
X174Y91D02*
X193Y91D01*
X224Y91D02*
X243Y91D01*
X273Y91D02*
X292Y91D01*
X324Y91D02*
X343Y91D01*
X373Y91D02*
X392Y91D01*
X424Y91D02*
X443Y91D01*
X473Y91D02*
X492Y91D01*
X523Y91D02*
X542Y91D01*
X573Y91D02*
X592Y91D01*
X124Y90D02*
X143Y90D01*
X173Y90D02*
X192Y90D01*
X224Y90D02*
X243Y90D01*
X273Y90D02*
X292Y90D01*
X324Y90D02*
X343Y90D01*
X373Y90D02*
X392Y90D01*
X424Y90D02*
X443Y90D01*
X473Y90D02*
X492Y90D01*
X523Y90D02*
X543Y90D01*
X573Y90D02*
X592Y90D01*
X124Y89D02*
X143Y89D01*
X173Y89D02*
X192Y89D01*
X224Y89D02*
X243Y89D01*
X273Y89D02*
X292Y89D01*
X324Y89D02*
X343Y89D01*
X373Y89D02*
X392Y89D01*
X424Y89D02*
X443Y89D01*
X473Y89D02*
X492Y89D01*
X524Y89D02*
X543Y89D01*
X573Y89D02*
X592Y89D01*
X124Y88D02*
X143Y88D01*
X173Y88D02*
X192Y88D01*
X224Y88D02*
X243Y88D01*
X273Y88D02*
X292Y88D01*
X324Y88D02*
X343Y88D01*
X373Y88D02*
X392Y88D01*
X424Y88D02*
X443Y88D01*
X473Y88D02*
X492Y88D01*
X524Y88D02*
X543Y88D01*
X573Y88D02*
X592Y88D01*
X124Y87D02*
X143Y87D01*
X173Y87D02*
X192Y87D01*
X224Y87D02*
X243Y87D01*
X273Y87D02*
X292Y87D01*
X324Y87D02*
X343Y87D01*
X373Y87D02*
X392Y87D01*
X424Y87D02*
X443Y87D01*
X473Y87D02*
X492Y87D01*
X524Y87D02*
X543Y87D01*
X573Y87D02*
X592Y87D01*
X124Y86D02*
X144Y86D01*
X173Y86D02*
X192Y86D01*
X224Y86D02*
X244Y86D01*
X273Y86D02*
X292Y86D01*
X324Y86D02*
X343Y86D01*
X373Y86D02*
X392Y86D01*
X424Y86D02*
X443Y86D01*
X472Y86D02*
X492Y86D01*
X524Y86D02*
X543Y86D01*
X572Y86D02*
X592Y86D01*
X125Y85D02*
X144Y85D01*
X172Y85D02*
X192Y85D01*
X224Y85D02*
X244Y85D01*
X272Y85D02*
X292Y85D01*
X324Y85D02*
X344Y85D01*
X372Y85D02*
X392Y85D01*
X424Y85D02*
X444Y85D01*
X472Y85D02*
X491Y85D01*
X524Y85D02*
X544Y85D01*
X572Y85D02*
X591Y85D01*
X125Y84D02*
X144Y84D01*
X172Y84D02*
X191Y84D01*
X225Y84D02*
X244Y84D01*
X272Y84D02*
X291Y84D01*
X325Y84D02*
X344Y84D01*
X372Y84D02*
X391Y84D01*
X425Y84D02*
X444Y84D01*
X472Y84D02*
X491Y84D01*
X525Y84D02*
X544Y84D01*
X572Y84D02*
X591Y84D01*
X125Y83D02*
X145Y83D01*
X171Y83D02*
X191Y83D01*
X225Y83D02*
X245Y83D01*
X271Y83D02*
X291Y83D01*
X325Y83D02*
X345Y83D01*
X371Y83D02*
X391Y83D01*
X425Y83D02*
X445Y83D01*
X471Y83D02*
X491Y83D01*
X525Y83D02*
X545Y83D01*
X571Y83D02*
X591Y83D01*
X125Y82D02*
X146Y82D01*
X171Y82D02*
X191Y82D01*
X225Y82D02*
X246Y82D01*
X270Y82D02*
X291Y82D01*
X325Y82D02*
X346Y82D01*
X370Y82D02*
X391Y82D01*
X425Y82D02*
X446Y82D01*
X470Y82D02*
X491Y82D01*
X525Y82D02*
X545Y82D01*
X570Y82D02*
X591Y82D01*
X126Y81D02*
X147Y81D01*
X170Y81D02*
X190Y81D01*
X226Y81D02*
X247Y81D01*
X270Y81D02*
X290Y81D01*
X326Y81D02*
X346Y81D01*
X370Y81D02*
X390Y81D01*
X426Y81D02*
X446Y81D01*
X469Y81D02*
X490Y81D01*
X526Y81D02*
X546Y81D01*
X569Y81D02*
X590Y81D01*
X126Y80D02*
X148Y80D01*
X168Y80D02*
X190Y80D01*
X226Y80D02*
X248Y80D01*
X268Y80D02*
X290Y80D01*
X326Y80D02*
X348Y80D01*
X368Y80D02*
X390Y80D01*
X426Y80D02*
X448Y80D01*
X468Y80D02*
X490Y80D01*
X526Y80D02*
X548Y80D01*
X568Y80D02*
X590Y80D01*
X127Y79D02*
X149Y79D01*
X167Y79D02*
X190Y79D01*
X227Y79D02*
X249Y79D01*
X267Y79D02*
X290Y79D01*
X327Y79D02*
X349Y79D01*
X367Y79D02*
X389Y79D01*
X426Y79D02*
X449Y79D01*
X467Y79D02*
X489Y79D01*
X526Y79D02*
X549Y79D01*
X567Y79D02*
X589Y79D01*
X127Y78D02*
X152Y78D01*
X164Y78D02*
X189Y78D01*
X227Y78D02*
X252Y78D01*
X264Y78D02*
X289Y78D01*
X327Y78D02*
X352Y78D01*
X364Y78D02*
X389Y78D01*
X427Y78D02*
X452Y78D01*
X464Y78D02*
X489Y78D01*
X527Y78D02*
X552Y78D01*
X564Y78D02*
X589Y78D01*
X128Y77D02*
X189Y77D01*
X228Y77D02*
X289Y77D01*
X328Y77D02*
X388Y77D01*
X427Y77D02*
X488Y77D01*
X527Y77D02*
X588Y77D01*
X128Y76D02*
X188Y76D01*
X228Y76D02*
X288Y76D01*
X328Y76D02*
X388Y76D01*
X428Y76D02*
X488Y76D01*
X528Y76D02*
X588Y76D01*
X129Y75D02*
X187Y75D01*
X229Y75D02*
X287Y75D01*
X329Y75D02*
X387Y75D01*
X429Y75D02*
X487Y75D01*
X529Y75D02*
X587Y75D01*
X129Y74D02*
X187Y74D01*
X229Y74D02*
X287Y74D01*
X329Y74D02*
X387Y74D01*
X429Y74D02*
X487Y74D01*
X529Y74D02*
X586Y74D01*
X130Y73D02*
X186Y73D01*
X230Y73D02*
X286Y73D01*
X330Y73D02*
X386Y73D01*
X430Y73D02*
X486Y73D01*
X530Y73D02*
X586Y73D01*
X131Y72D02*
X185Y72D01*
X231Y72D02*
X285Y72D01*
X331Y72D02*
X385Y72D01*
X431Y72D02*
X485Y72D01*
X531Y72D02*
X585Y72D01*
X132Y71D02*
X185Y71D01*
X232Y71D02*
X285Y71D01*
X332Y71D02*
X384Y71D01*
X431Y71D02*
X484Y71D01*
X531Y71D02*
X584Y71D01*
X133Y70D02*
X184Y70D01*
X232Y70D02*
X284Y70D01*
X332Y70D02*
X384Y70D01*
X432Y70D02*
X484Y70D01*
X532Y70D02*
X583Y70D01*
X133Y69D02*
X183Y69D01*
X233Y69D02*
X283Y69D01*
X333Y69D02*
X383Y69D01*
X433Y69D02*
X483Y69D01*
X533Y69D02*
X583Y69D01*
X134Y68D02*
X182Y68D01*
X234Y68D02*
X282Y68D01*
X334Y68D02*
X382Y68D01*
X434Y68D02*
X482Y68D01*
X534Y68D02*
X582Y68D01*
X135Y67D02*
X181Y67D01*
X235Y67D02*
X281Y67D01*
X335Y67D02*
X381Y67D01*
X435Y67D02*
X481Y67D01*
X535Y67D02*
X581Y67D01*
X137Y66D02*
X180Y66D01*
X236Y66D02*
X280Y66D01*
X336Y66D02*
X380Y66D01*
X436Y66D02*
X480Y66D01*
X536Y66D02*
X579Y66D01*
X138Y65D02*
X179Y65D01*
X238Y65D02*
X278Y65D01*
X338Y65D02*
X378Y65D01*
X438Y65D02*
X478Y65D01*
X537Y65D02*
X578Y65D01*
X139Y64D02*
X177Y64D01*
X239Y64D02*
X277Y64D01*
X339Y64D02*
X377Y64D01*
X439Y64D02*
X477Y64D01*
X539Y64D02*
X577Y64D01*
X140Y63D02*
X176Y63D01*
X240Y63D02*
X276Y63D01*
X340Y63D02*
X376Y63D01*
X440Y63D02*
X476Y63D01*
X540Y63D02*
X576Y63D01*
X142Y62D02*
X174Y62D01*
X242Y62D02*
X274Y62D01*
X342Y62D02*
X374Y62D01*
X442Y62D02*
X474Y62D01*
X542Y62D02*
X574Y62D01*
X144Y61D02*
X172Y61D01*
X244Y61D02*
X272Y61D01*
X344Y61D02*
X372Y61D01*
X444Y61D02*
X472Y61D01*
X544Y61D02*
X572Y61D01*
X146Y60D02*
X170Y60D01*
X246Y60D02*
X270Y60D01*
X346Y60D02*
X370Y60D01*
X446Y60D02*
X470Y60D01*
X546Y60D02*
X570Y60D01*
X148Y59D02*
X168Y59D01*
X248Y59D02*
X268Y59D01*
X348Y59D02*
X368Y59D01*
X448Y59D02*
X468Y59D01*
X548Y59D02*
X568Y59D01*
X152Y58D02*
X165Y58D01*
X252Y58D02*
X264Y58D01*
X352Y58D02*
X364Y58D01*
X452Y58D02*
X464Y58D01*
X551Y58D02*
X564Y58D01*
D02*
G04 End of Copper0*
M02*