; NON-PLATED HOLES START AT T1
; THROUGH (PLATED) HOLES START AT T100
M48
INCH
T100C0.038000
T101C0.040255
T102C0.040000
T103C0.015748
T104C0.031496
T105C0.030000
T106C0.035000
%
T100
X008687Y000906
X007687Y000906
T101
X008032Y004660
X007032Y003653
X008032Y003653
X007032Y002647
X008032Y002647
X007032Y005666
X008032Y005666
X007032Y004660
T102
X010157Y009378
X010190Y004473
X010190Y005473
X010157Y010378
X010157Y008378
X010190Y003473
T103
X006108Y005390
X006632Y001657
X008268Y009230
X008138Y001657
T104
X010537Y000656
X010537Y001656
T105
X005587Y000906
X004587Y000906
X003587Y000906
X002587Y000906
X001587Y000906
T106
X004208Y005768
X002232Y010670
X004208Y002768
X004232Y007670
X001232Y010670
X001208Y005768
X003232Y007670
X001208Y002768
X004208Y004768
X007232Y010670
X008232Y007670
X001208Y004768
X004232Y010670
X006232Y007670
X003232Y010670
X005232Y007670
X002232Y007670
X001232Y007670
X004208Y003768
X008232Y010670
X001208Y003768
X006232Y010670
X005232Y010670
X007232Y007670
T00
M30
